<?xml version="1.0" standalone="no"?>
<!DOCTYPE svg PUBLIC "-//W3C//DTD SVG 1.1//EN" "http://www.w3.org/Graphics/SVG/1.1/DTD/svg11.dtd" >
<svg xmlns="http://www.w3.org/2000/svg" xmlns:xlink="http://www.w3.org/1999/xlink" version="1.1">
<metadata>
Created by FontForge 20190801 at Wed Nov 29 11:04:33 2023
 By root
Copyright 2020 The Protest Project Authors (https://github.com/octaviopardo/Protest)
</metadata>
<defs>
<font id="ProtestStrike-Regular" horiz-adv-x="0" >
  <font-face 
    font-family="Protest Strike"
    font-weight="400"
    font-stretch="normal"
    units-per-em="1000"
    panose-1="0 0 0 0 0 0 0 0 0 0"
    ascent="800"
    descent="-200"
    x-height="575"
    cap-height="720"
    bbox="-292 -204 1234 1140"
    underline-thickness="50"
    underline-position="-125"
    unicode-range="U+0020-FB02"
  />
<missing-glyph horiz-adv-x="622" 
d="M311 -9q-61 0 -114.5 22t-94.5 62t-64 94t-23 118q0 61 23 114.5t64 94.5t94.5 64t114.5 23t114.5 -23t94.5 -64t64 -94.5t23 -114.5t-23 -114.5t-64 -94.5t-94.5 -64t-114.5 -23zM531 198q17 43 17 89q0 66 -32 119.5t-85.5 85.5t-119.5 32q-61 0 -100.5 -23.5
t-59 -62.5t-19.5 -84q0 -53 28 -95q-3 14 -3 28q0 43 21 78t56 56t77 21q56 0 106.5 -28.5t82.5 -78.5t32 -115v-11t-1 -11zM311 174q31 0 56.5 15.5t41 41t15.5 56.5t-15.5 56.5t-41 41t-56.5 15.5t-56.5 -15.5t-41 -41t-15.5 -56.5t15.5 -56.5t41 -41t56.5 -15.5zM311 50
q52 0 92.5 21t64 59t23.5 90q0 26 -7.5 50.5t-20.5 44.5q1 -7 2 -13.5t1 -14.5q0 -42 -21 -77t-56 -56t-78 -21q-59 0 -109.5 29.5t-81 79.5t-30.5 112v11t1 11q-17 -43 -17 -89q0 -65 32 -119t85.5 -86t119.5 -32z" />
    <glyph glyph-name="f_f" unicode="ff" horiz-adv-x="728" 
d="M80 0v440h-60v135h60v26q0 62 24 97t76 50t137 15q20 0 42 -3v-129q-21 3 -39 3q-29 0 -44.5 -10.5t-15.5 -35.5v-13h99v-135h-99v-440h-180zM429 0v440h-60v135h60v26q0 62 24 97t76 50t137 15q20 0 42 -3v-129q-21 3 -39 3q-29 0 -44.5 -10.5t-15.5 -35.5v-13h99v-135
h-99v-440h-180z" />
    <glyph glyph-name="fi" unicode="fi" horiz-adv-x="639" 
d="M80 0v440h-60v135h60v26q0 62 24 97t76 50t137 15q20 0 42 -3v-129q-21 3 -39 3q-29 0 -44.5 -10.5t-15.5 -35.5v-13h339v-575h-180v440h-159v-440h-180zM414 755h190v-136h-190v136z" />
    <glyph glyph-name="fl" unicode="fl" horiz-adv-x="624" 
d="M584 0h-180v440h-144v-440h-180v440h-60v135h60v26q0 62 20.5 97t65 50t117.5 15q18 0 37.5 -1.5t38.5 -3.5v-127q-7 1 -14 1.5t-13 0.5q-37 0 -54.5 -9.5t-17.5 -35.5v-13h144v156l180 24v-755z" />
    <glyph glyph-name=".notdef" horiz-adv-x="622" 
d="M311 -9q-61 0 -114.5 22t-94.5 62t-64 94t-23 118q0 61 23 114.5t64 94.5t94.5 64t114.5 23t114.5 -23t94.5 -64t64 -94.5t23 -114.5t-23 -114.5t-64 -94.5t-94.5 -64t-114.5 -23zM531 198q17 43 17 89q0 66 -32 119.5t-85.5 85.5t-119.5 32q-61 0 -100.5 -23.5
t-59 -62.5t-19.5 -84q0 -53 28 -95q-3 14 -3 28q0 43 21 78t56 56t77 21q56 0 106.5 -28.5t82.5 -78.5t32 -115v-11t-1 -11zM311 174q31 0 56.5 15.5t41 41t15.5 56.5t-15.5 56.5t-41 41t-56.5 15.5t-56.5 -15.5t-41 -41t-15.5 -56.5t15.5 -56.5t41 -41t56.5 -15.5zM311 50
q52 0 92.5 21t64 59t23.5 90q0 26 -7.5 50.5t-20.5 44.5q1 -7 2 -13.5t1 -14.5q0 -42 -21 -77t-56 -56t-78 -21q-59 0 -109.5 29.5t-81 79.5t-30.5 112v11t1 11q-17 -43 -17 -89q0 -65 32 -119t85.5 -86t119.5 -32z" />
    <glyph glyph-name="space" unicode=" " horiz-adv-x="250" 
 />
    <glyph glyph-name="uni00A0" unicode="&#xa0;" horiz-adv-x="250" 
 />
    <glyph glyph-name="A" unicode="A" horiz-adv-x="590" 
d="M233 97l-19 -97h-209l144 630l-23 98h302l157 -728h-207l-19 97h-126zM253 252h85l-42 262z" />
    <glyph glyph-name="Aacute" unicode="&#xc1;" horiz-adv-x="590" 
d="M233 97l-19 -97h-209l144 630l-23 98h302l157 -728h-207l-19 97h-126zM253 252h85l-42 262zM262 891h186l-80 -120h-151z" />
    <glyph glyph-name="Abreve" unicode="&#x102;" horiz-adv-x="590" 
d="M233 97l-19 -97h-209l144 630l-23 98h302l157 -728h-207l-19 97h-126zM253 252h85l-42 262zM295 771q-76 0 -110.5 33.5t-42.5 106.5h86q16 -41 67 -41t67 41h86q-7 -73 -41.5 -106.5t-111.5 -33.5z" />
    <glyph glyph-name="uni1EAE" unicode="&#x1eae;" horiz-adv-x="590" 
d="M233 97l-19 -97h-209l144 630l-23 98h302l157 -728h-207l-19 97h-126zM253 252h85l-42 262zM295 771q-76 0 -110.5 33.5t-42.5 106.5h86q16 -41 67 -41t67 41h86q-7 -73 -41.5 -106.5t-111.5 -33.5zM262 1057h186l-80 -120h-151z" />
    <glyph glyph-name="uni1EB6" unicode="&#x1eb6;" horiz-adv-x="590" 
d="M233 97l-19 -97h-209l144 630l-23 98h302l157 -728h-207l-19 97h-126zM253 252h85l-42 262zM201 -46h190v-136h-190v136zM295 771q-76 0 -110.5 33.5t-42.5 106.5h86q16 -41 67 -41t67 41h86q-7 -73 -41.5 -106.5t-111.5 -33.5z" />
    <glyph glyph-name="uni1EB0" unicode="&#x1eb0;" horiz-adv-x="590" 
d="M233 97l-19 -97h-209l144 630l-23 98h302l157 -728h-207l-19 97h-126zM253 252h85l-42 262zM295 771q-76 0 -110.5 33.5t-42.5 106.5h86q16 -41 67 -41t67 41h86q-7 -73 -41.5 -106.5t-111.5 -33.5zM333 1057l45 -120h-151l-80 120h186z" />
    <glyph glyph-name="uni1EB2" unicode="&#x1eb2;" horiz-adv-x="590" 
d="M233 97l-19 -97h-209l144 630l-23 98h302l157 -728h-207l-19 97h-126zM253 252h85l-42 262zM295 771q-76 0 -110.5 33.5t-42.5 106.5h86q16 -41 67 -41t67 41h86q-7 -73 -41.5 -106.5t-111.5 -33.5zM290 923l-43 52q22 11 31 28.5t1.5 31.5t-34.5 14q-15 0 -29.5 -2.5
t-22.5 -5.5l7 86q37 13 79 13q47 0 75 -18.5t38 -47t2 -59t-34 -56t-70 -36.5z" />
    <glyph glyph-name="uni1EB4" unicode="&#x1eb4;" horiz-adv-x="590" 
d="M233 97l-19 -97h-209l144 630l-23 98h302l157 -728h-207l-19 97h-126zM253 252h85l-42 262zM295 771q-76 0 -110.5 33.5t-42.5 106.5h86q16 -41 67 -41t67 41h86q-7 -73 -41.5 -106.5t-111.5 -33.5zM438 1075q2 -10 3.5 -20.5t1.5 -20.5q0 -43 -23.5 -72.5t-71.5 -29.5
q-20 0 -38 9t-32.5 17.5t-24.5 8.5q-13 0 -18 -8t-5 -19h-71q-2 11 -3.5 21t-1.5 20q0 44 23.5 73t71.5 29q20 0 38 -8.5t32.5 -17.5t24.5 -9q14 0 18.5 8t4.5 19h71z" />
    <glyph glyph-name="Acircumflex" unicode="&#xc2;" horiz-adv-x="590" 
d="M233 97l-19 -97h-209l144 630l-23 98h302l157 -728h-207l-19 97h-126zM253 252h85l-42 262zM126 771l108 120h122l108 -120h-124l-45 41l-45 -41h-124z" />
    <glyph glyph-name="uni1EA4" unicode="&#x1ea4;" horiz-adv-x="590" 
d="M233 97l-19 -97h-209l144 630l-23 98h302l157 -728h-207l-19 97h-126zM253 252h85l-42 262zM126 771l108 120h122l108 -120h-124l-45 41l-45 -41h-124zM262 1040h186l-80 -120h-151z" />
    <glyph glyph-name="uni1EAC" unicode="&#x1eac;" horiz-adv-x="590" 
d="M233 97l-19 -97h-209l144 630l-23 98h302l157 -728h-207l-19 97h-126zM253 252h85l-42 262zM201 -46h190v-136h-190v136zM126 771l108 120h122l108 -120h-124l-45 41l-45 -41h-124z" />
    <glyph glyph-name="uni1EA6" unicode="&#x1ea6;" horiz-adv-x="590" 
d="M233 97l-19 -97h-209l144 630l-23 98h302l157 -728h-207l-19 97h-126zM253 252h85l-42 262zM126 771l108 120h122l108 -120h-124l-45 41l-45 -41h-124zM333 1040l45 -120h-151l-80 120h186z" />
    <glyph glyph-name="uni1EA8" unicode="&#x1ea8;" horiz-adv-x="590" 
d="M233 97l-19 -97h-209l144 630l-23 98h302l157 -728h-207l-19 97h-126zM253 252h85l-42 262zM126 771l108 120h122l108 -120h-124l-45 41l-45 -41h-124zM447 827l-43 52q22 11 31 28.5t1.5 31.5t-34.5 14q-15 0 -29.5 -2.5t-22.5 -5.5l7 86q37 13 79 13q47 0 75 -18.5
t38 -47t2 -59t-34 -56t-70 -36.5z" />
    <glyph glyph-name="uni1EAA" unicode="&#x1eaa;" horiz-adv-x="590" 
d="M233 97l-19 -97h-209l144 630l-23 98h302l157 -728h-207l-19 97h-126zM253 252h85l-42 262zM126 771l108 120h122l108 -120h-124l-45 41l-45 -41h-124zM438 1058q2 -10 3.5 -20.5t1.5 -20.5q0 -43 -23.5 -72.5t-71.5 -29.5q-20 0 -38 9t-32.5 17.5t-24.5 8.5
q-13 0 -18 -8t-5 -19h-71q-2 11 -3.5 21t-1.5 20q0 44 23.5 73t71.5 29q20 0 38 -8.5t32.5 -17.5t24.5 -9q14 0 18.5 8t4.5 19h71z" />
    <glyph glyph-name="uni0200" unicode="&#x200;" horiz-adv-x="590" 
d="M233 97l-19 -97h-209l144 630l-23 98h302l157 -728h-207l-19 97h-126zM253 252h85l-42 262zM430 891l45 -120h-151l-80 120h186zM227 891l45 -120h-151l-80 120h186z" />
    <glyph glyph-name="Adieresis" unicode="&#xc4;" horiz-adv-x="590" 
d="M233 97l-19 -97h-209l144 630l-23 98h302l157 -728h-207l-19 97h-126zM253 252h85l-42 262zM113 913h160v-136h-160v136zM317 913h160v-136h-160v136z" />
    <glyph glyph-name="uni1EA0" unicode="&#x1ea0;" horiz-adv-x="590" 
d="M233 97l-19 -97h-209l144 630l-23 98h302l157 -728h-207l-19 97h-126zM253 252h85l-42 262zM201 -46h190v-136h-190v136z" />
    <glyph glyph-name="Agrave" unicode="&#xc0;" horiz-adv-x="590" 
d="M233 97l-19 -97h-209l144 630l-23 98h302l157 -728h-207l-19 97h-126zM253 252h85l-42 262zM333 891l45 -120h-151l-80 120h186z" />
    <glyph glyph-name="uni1EA2" unicode="&#x1ea2;" horiz-adv-x="590" 
d="M233 97l-19 -97h-209l144 630l-23 98h302l157 -728h-207l-19 97h-126zM253 252h85l-42 262zM290 757l-43 52q22 11 31 28.5t1.5 31.5t-34.5 14q-15 0 -29.5 -2.5t-22.5 -5.5l7 86q37 13 79 13q47 0 75 -18.5t38 -47t2 -59t-34 -56t-70 -36.5z" />
    <glyph glyph-name="uni0202" unicode="&#x202;" horiz-adv-x="590" 
d="M233 97l-19 -97h-209l144 630l-23 98h302l157 -728h-207l-19 97h-126zM253 252h85l-42 262zM295 912q77 0 111.5 -33.5t41.5 -106.5h-86q-16 41 -67 41t-67 -41h-86q8 73 42.5 106.5t110.5 33.5z" />
    <glyph glyph-name="Amacron" unicode="&#x100;" horiz-adv-x="590" 
d="M233 97l-19 -97h-209l144 630l-23 98h302l157 -728h-207l-19 97h-126zM253 252h85l-42 262zM144 897h296v-110h-296v110z" />
    <glyph glyph-name="Aogonek" unicode="&#x104;" horiz-adv-x="590" 
d="M233 97l-19 -97h-209l144 630l-23 98h302l157 -728h-207l-19 97h-126zM253 252h85l-42 262zM520 -160q-62 0 -90.5 27.5t-25.5 68.5t35 80h94q-19 -52 -8 -75.5t50 -16.5v-77q-13 -3 -27.5 -5t-27.5 -2z" />
    <glyph glyph-name="Aring" unicode="&#xc5;" horiz-adv-x="590" 
d="M233 97l-19 -97h-209l144 630l-23 98h302l157 -728h-207l-19 97h-126zM253 252h85l-42 262zM417 847q0 -41 -29 -60t-92 -19q-64 0 -93.5 19t-29.5 60q0 45 29.5 64.5t93.5 19.5q63 0 92 -19.5t29 -64.5zM268 848q0 -17 8.5 -23.5t19.5 -6.5q9 0 18 6.5t9 23.5
q0 20 -9 26t-18 6q-11 0 -19.5 -6t-8.5 -26z" />
    <glyph glyph-name="Aringacute" unicode="&#x1fa;" horiz-adv-x="570" 
d="M277 758q-64 0 -93.5 19t-29.5 60q0 57 48 74l32 84h186l-59 -89q37 -19 37 -69q0 -41 -29 -60t-92 -19zM277 808q9 0 18 6.5t9 23.5q0 20 -9 26t-18 6q-11 0 -19.5 -6t-8.5 -26q0 -17 8.5 -23.5t19.5 -6.5zM5 0l154 630l-23 98h252l177 -728h-197l-19 97h-126l-19 -97
h-199zM243 252h85l-42 262z" />
    <glyph glyph-name="Atilde" unicode="&#xc3;" horiz-adv-x="590" 
d="M233 97l-19 -97h-209l144 630l-23 98h302l157 -728h-207l-19 97h-126zM253 252h85l-42 262zM438 909q2 -10 3.5 -20.5t1.5 -20.5q0 -43 -23.5 -72.5t-71.5 -29.5q-20 0 -38 9t-32.5 17.5t-24.5 8.5q-13 0 -18 -8t-5 -19h-71q-2 11 -3.5 21t-1.5 20q0 44 23.5 73t71.5 29
q20 0 38 -8.5t32.5 -17.5t24.5 -9q14 0 18.5 8t4.5 19h71z" />
    <glyph glyph-name="AE" unicode="&#xc6;" horiz-adv-x="753" 
d="M6 0l204 615l-28 105h549l-30 -160h-179v-110h167l-30 -160h-137v-130h216l-30 -160h-381v97h-106l-25 -97h-190zM260 252h67v267h-2z" />
    <glyph glyph-name="AEacute" unicode="&#x1fc;" horiz-adv-x="753" 
d="M6 0l204 615l-28 105h549l-30 -160h-179v-110h167l-30 -160h-137v-130h216l-30 -160h-381v97h-106l-25 -97h-190zM260 252h67v267h-2zM405 891h186l-80 -120h-151z" />
    <glyph glyph-name="B" unicode="B" horiz-adv-x="584" 
d="M55 0v583l-55 137h300q121 0 176 -48.5t55 -130.5q0 -53 -20 -96t-76 -72v-2q68 -22 96.5 -65t28.5 -113q0 -93 -68 -143t-207 -50h-230zM250 424h9q45 0 65.5 17.5t20.5 61.5q0 45 -20.5 62.5t-65.5 17.5h-9v-159zM250 132h10q50 0 73.5 18.5t23.5 65.5q0 48 -23.5 66.5
t-73.5 18.5h-10v-169z" />
    <glyph glyph-name="C" unicode="C" horiz-adv-x="505" 
d="M20 355q0 142 33 223.5t99.5 115.5t165.5 34q32 0 73.5 -3.5t80.5 -12.5v-264h-121l-16 121q-27 0 -46.5 -6.5t-32.5 -27.5t-19.5 -64t-6.5 -115q0 -78 17 -122.5t51.5 -63t88.5 -18.5q24 0 46 3t47 7v-158q-29 -7 -70 -10.5t-73 -3.5q-171 0 -244 92t-73 273z" />
    <glyph glyph-name="Cacute" unicode="&#x106;" horiz-adv-x="505" 
d="M20 355q0 142 33 223.5t99.5 115.5t165.5 34q32 0 73.5 -3.5t80.5 -12.5v-264h-121l-16 121q-27 0 -46.5 -6.5t-32.5 -27.5t-19.5 -64t-6.5 -115q0 -78 17 -122.5t51.5 -63t88.5 -18.5q24 0 46 3t47 7v-158q-29 -7 -70 -10.5t-73 -3.5q-171 0 -244 92t-73 273zM285 891
h186l-80 -120h-151z" />
    <glyph glyph-name="Ccaron" unicode="&#x10c;" horiz-adv-x="505" 
d="M20 355q0 142 33 223.5t99.5 115.5t165.5 34q32 0 73.5 -3.5t80.5 -12.5v-264h-121l-16 121q-27 0 -46.5 -6.5t-32.5 -27.5t-19.5 -64t-6.5 -115q0 -78 17 -122.5t51.5 -63t88.5 -18.5q24 0 46 3t47 7v-158q-29 -7 -70 -10.5t-73 -3.5q-171 0 -244 92t-73 273zM149 891
h124l45 -41l45 41h124l-108 -120h-122z" />
    <glyph glyph-name="Ccedilla" unicode="&#xc7;" horiz-adv-x="505" 
d="M20 355q0 142 33 223.5t99.5 115.5t165.5 34q32 0 73.5 -3.5t80.5 -12.5v-264h-121l-16 121q-27 0 -46.5 -6.5t-32.5 -27.5t-19.5 -64t-6.5 -115q0 -78 17 -122.5t51.5 -63t88.5 -18.5q24 0 46 3t47 7v-158q-29 -7 -70 -10.5t-73 -3.5q-171 0 -244 92t-73 273zM348 16
q6 -22 8.5 -40.5t2.5 -33.5q0 -57 -35.5 -79.5t-83.5 -22.5q-16 0 -35.5 1t-41.5 5v82q10 -1 21 -3t21 -2q44 0 44 50q0 18 -6 43h105z" />
    <glyph glyph-name="Ccircumflex" unicode="&#x108;" horiz-adv-x="505" 
d="M20 355q0 142 33 223.5t99.5 115.5t165.5 34q32 0 73.5 -3.5t80.5 -12.5v-264h-121l-16 121q-27 0 -46.5 -6.5t-32.5 -27.5t-19.5 -64t-6.5 -115q0 -78 17 -122.5t51.5 -63t88.5 -18.5q24 0 46 3t47 7v-158q-29 -7 -70 -10.5t-73 -3.5q-171 0 -244 92t-73 273zM149 771
l108 120h122l108 -120h-124l-45 41l-45 -41h-124z" />
    <glyph glyph-name="Cdotaccent" unicode="&#x10a;" horiz-adv-x="505" 
d="M20 355q0 142 33 223.5t99.5 115.5t165.5 34q32 0 73.5 -3.5t80.5 -12.5v-264h-121l-16 121q-27 0 -46.5 -6.5t-32.5 -27.5t-19.5 -64t-6.5 -115q0 -78 17 -122.5t51.5 -63t88.5 -18.5q24 0 46 3t47 7v-158q-29 -7 -70 -10.5t-73 -3.5q-171 0 -244 92t-73 273zM223 913
h190v-136h-190v136z" />
    <glyph glyph-name="D" unicode="D" horiz-adv-x="600" 
d="M293 720q103 0 166 -31.5t92 -107t29 -207.5q0 -142 -29 -224t-92 -116t-166 -34h-238v583l-55 137h293zM281 160q32 0 51.5 19.5t28.5 66t9 128.5q0 75 -8 115.5t-27 55.5t-54 15h-31v-400h31z" />
    <glyph glyph-name="uni01C4" unicode="&#x1c4;" horiz-adv-x="1106" 
d="M293 720q103 0 166 -31.5t92 -107t29 -207.5q0 -142 -29 -224t-92 -116t-166 -34h-238v583l-55 137h293zM281 160q32 0 51.5 19.5t28.5 66t9 128.5q0 75 -8 115.5t-27 55.5t-54 15h-31v-400h31zM625 720h461v-121l-230 -439h235v-160h-476v121l229 439h-219v160zM684 891
h124l45 -41l45 41h124l-108 -120h-122z" />
    <glyph glyph-name="Dcaron" unicode="&#x10e;" horiz-adv-x="600" 
d="M293 720q103 0 166 -31.5t92 -107t29 -207.5q0 -142 -29 -224t-92 -116t-166 -34h-238v583l-55 137h293zM281 160q32 0 51.5 19.5t28.5 66t9 128.5q0 75 -8 115.5t-27 55.5t-54 15h-31v-400h31zM112 891h124l45 -41l45 41h124l-108 -120h-122z" />
    <glyph glyph-name="Dcroat" unicode="&#x110;" horiz-adv-x="600" 
d="M13 323v83h42v177l-55 137h293q103 0 166 -31.5t92 -107t29 -207.5q0 -142 -29 -224t-92 -116t-166 -34h-238v323h-42zM281 160q32 0 51.5 19.5t28.5 66t9 128.5q0 75 -8 115.5t-27 55.5t-54 15h-31v-154h69v-83h-69v-163h31z" />
    <glyph glyph-name="uni01C5" unicode="&#x1c5;" horiz-adv-x="1057" 
d="M293 720q103 0 166 -31.5t92 -107t29 -207.5q0 -142 -29 -224t-92 -116t-166 -34h-238v583l-55 137h293zM281 160q32 0 51.5 19.5t28.5 66t9 128.5q0 75 -8 115.5t-27 55.5t-54 15h-31v-400h31zM630 110l172 325h-165v140h381v-106l-174 -329h183v-140h-397v110zM671 769
h131l39 -48l39 48h131l-109 -149h-122z" />
    <glyph glyph-name="Eth" unicode="&#xd0;" horiz-adv-x="600" 
d="M13 323v83h42v177l-55 137h293q103 0 166 -31.5t92 -107t29 -207.5q0 -142 -29 -224t-92 -116t-166 -34h-238v323h-42zM281 160q32 0 51.5 19.5t28.5 66t9 128.5q0 75 -8 115.5t-27 55.5t-54 15h-31v-154h69v-83h-69v-163h31z" />
    <glyph glyph-name="E" unicode="E" horiz-adv-x="501" 
d="M0 720h479l-30 -160h-199v-110h187l-30 -160h-157v-130h236l-30 -160h-401v583z" />
    <glyph glyph-name="Eacute" unicode="&#xc9;" horiz-adv-x="501" 
d="M0 720h479l-30 -160h-199v-110h187l-30 -160h-157v-130h236l-30 -160h-401v583zM226 891h186l-80 -120h-151z" />
    <glyph glyph-name="Ebreve" unicode="&#x114;" horiz-adv-x="501" 
d="M0 720h479l-30 -160h-199v-110h187l-30 -160h-157v-130h236l-30 -160h-401v583zM259 771q-76 0 -110.5 33.5t-42.5 106.5h86q16 -41 67 -41t67 41h86q-7 -73 -41.5 -106.5t-111.5 -33.5z" />
    <glyph glyph-name="Ecaron" unicode="&#x11a;" horiz-adv-x="501" 
d="M0 720h479l-30 -160h-199v-110h187l-30 -160h-157v-130h236l-30 -160h-401v583zM90 891h124l45 -41l45 41h124l-108 -120h-122z" />
    <glyph glyph-name="Ecircumflex" unicode="&#xca;" horiz-adv-x="501" 
d="M0 720h479l-30 -160h-199v-110h187l-30 -160h-157v-130h236l-30 -160h-401v583zM90 771l108 120h122l108 -120h-124l-45 41l-45 -41h-124z" />
    <glyph glyph-name="uni1EBE" unicode="&#x1ebe;" horiz-adv-x="501" 
d="M0 720h479l-30 -160h-199v-110h187l-30 -160h-157v-130h236l-30 -160h-401v583zM90 771l108 120h122l108 -120h-124l-45 41l-45 -41h-124zM226 1040h186l-80 -120h-151z" />
    <glyph glyph-name="uni1EC6" unicode="&#x1ec6;" horiz-adv-x="501" 
d="M0 720h479l-30 -160h-199v-110h187l-30 -160h-157v-130h236l-30 -160h-401v583zM181 -46h190v-136h-190v136zM90 771l108 120h122l108 -120h-124l-45 41l-45 -41h-124z" />
    <glyph glyph-name="uni1EC0" unicode="&#x1ec0;" horiz-adv-x="501" 
d="M0 720h479l-30 -160h-199v-110h187l-30 -160h-157v-130h236l-30 -160h-401v583zM90 771l108 120h122l108 -120h-124l-45 41l-45 -41h-124zM297 1040l45 -120h-151l-80 120h186z" />
    <glyph glyph-name="uni1EC2" unicode="&#x1ec2;" horiz-adv-x="501" 
d="M0 720h479l-30 -160h-199v-110h187l-30 -160h-157v-130h236l-30 -160h-401v583zM90 771l108 120h122l108 -120h-124l-45 41l-45 -41h-124zM421 827l-43 52q22 11 31 28.5t1.5 31.5t-34.5 14q-15 0 -29.5 -2.5t-22.5 -5.5l7 86q37 13 79 13q47 0 75 -18.5t38 -47t2 -59
t-34 -56t-70 -36.5z" />
    <glyph glyph-name="uni1EC4" unicode="&#x1ec4;" horiz-adv-x="501" 
d="M0 720h479l-30 -160h-199v-110h187l-30 -160h-157v-130h236l-30 -160h-401v583zM90 771l108 120h122l108 -120h-124l-45 41l-45 -41h-124zM402 1058q2 -10 3.5 -20.5t1.5 -20.5q0 -43 -23.5 -72.5t-71.5 -29.5q-20 0 -38 9t-32.5 17.5t-24.5 8.5q-13 0 -18 -8t-5 -19h-71
q-2 11 -3.5 21t-1.5 20q0 44 23.5 73t71.5 29q20 0 38 -8.5t32.5 -17.5t24.5 -9q14 0 18.5 8t4.5 19h71z" />
    <glyph glyph-name="uni0204" unicode="&#x204;" horiz-adv-x="501" 
d="M0 720h479l-30 -160h-199v-110h187l-30 -160h-157v-130h236l-30 -160h-401v583zM394 891l45 -120h-151l-80 120h186zM191 891l45 -120h-151l-80 120h186z" />
    <glyph glyph-name="Edieresis" unicode="&#xcb;" horiz-adv-x="501" 
d="M0 720h479l-30 -160h-199v-110h187l-30 -160h-157v-130h236l-30 -160h-401v583zM77 913h160v-136h-160v136zM281 913h160v-136h-160v136z" />
    <glyph glyph-name="Edotaccent" unicode="&#x116;" horiz-adv-x="501" 
d="M0 720h479l-30 -160h-199v-110h187l-30 -160h-157v-130h236l-30 -160h-401v583zM164 913h190v-136h-190v136z" />
    <glyph glyph-name="uni1EB8" unicode="&#x1eb8;" horiz-adv-x="501" 
d="M0 720h479l-30 -160h-199v-110h187l-30 -160h-157v-130h236l-30 -160h-401v583zM181 -46h190v-136h-190v136z" />
    <glyph glyph-name="Egrave" unicode="&#xc8;" horiz-adv-x="501" 
d="M0 720h479l-30 -160h-199v-110h187l-30 -160h-157v-130h236l-30 -160h-401v583zM297 891l45 -120h-151l-80 120h186z" />
    <glyph glyph-name="uni1EBA" unicode="&#x1eba;" horiz-adv-x="501" 
d="M0 720h479l-30 -160h-199v-110h187l-30 -160h-157v-130h236l-30 -160h-401v583zM254 757l-43 52q22 11 31 28.5t1.5 31.5t-34.5 14q-15 0 -29.5 -2.5t-22.5 -5.5l7 86q37 13 79 13q47 0 75 -18.5t38 -47t2 -59t-34 -56t-70 -36.5z" />
    <glyph glyph-name="uni0206" unicode="&#x206;" horiz-adv-x="501" 
d="M0 720h479l-30 -160h-199v-110h187l-30 -160h-157v-130h236l-30 -160h-401v583zM259 912q77 0 111.5 -33.5t41.5 -106.5h-86q-16 41 -67 41t-67 -41h-86q8 73 42.5 106.5t110.5 33.5z" />
    <glyph glyph-name="Emacron" unicode="&#x112;" horiz-adv-x="501" 
d="M0 720h479l-30 -160h-199v-110h187l-30 -160h-157v-130h236l-30 -160h-401v583zM108 897h296v-110h-296v110z" />
    <glyph glyph-name="Eogonek" unicode="&#x118;" horiz-adv-x="501" 
d="M0 720h479l-30 -160h-199v-110h187l-30 -160h-157v-130h236l-30 -160h-401v583zM431 -160q-62 0 -90.5 27.5t-25.5 68.5t35 80h94q-19 -52 -8 -75.5t50 -16.5v-77q-13 -3 -27.5 -5t-27.5 -2z" />
    <glyph glyph-name="uni1EBC" unicode="&#x1ebc;" horiz-adv-x="501" 
d="M0 720h479l-30 -160h-199v-110h187l-30 -160h-157v-130h236l-30 -160h-401v583zM402 909q2 -10 3.5 -20.5t1.5 -20.5q0 -43 -23.5 -72.5t-71.5 -29.5q-20 0 -38 9t-32.5 17.5t-24.5 8.5q-13 0 -18 -8t-5 -19h-71q-2 11 -3.5 21t-1.5 20q0 44 23.5 73t71.5 29
q20 0 38 -8.5t32.5 -17.5t24.5 -9q14 0 18.5 8t4.5 19h71z" />
    <glyph glyph-name="uni018F" unicode="&#x18f;" horiz-adv-x="573" 
d="M553 357q0 -193 -67 -280t-219 -87q-91 0 -146.5 40.5t-80.5 112.5t-25 164q0 29 2 59t6 61h320q-8 53 -29 81t-55 38.5t-80 10.5q-55 0 -123 -12l-18 162q55 11 99.5 16t87.5 5q162 0 245 -99t83 -272zM213 275q0 -29 5.5 -59.5t19.5 -51.5t40 -21q33 0 49 36t19 110
h-133v-14z" />
    <glyph glyph-name="F" unicode="F" horiz-adv-x="474" 
d="M464 720l-30 -160h-184v-136h166l-30 -160h-136v-264h-195v583l-55 137h464z" />
    <glyph glyph-name="G" unicode="G" horiz-adv-x="547" 
d="M230 356q0 -74 11 -118t37.5 -64t73.5 -24v69l-55 137h235v-322q-32 -21 -83 -32.5t-117 -11.5q-96 0 -166 36t-108 116.5t-38 212.5q0 133 41 215t115 120t172 38q35 0 73 -6t78 -14l-18 -164q-33 6 -56.5 9.5t-47.5 3.5q-52 0 -84.5 -17t-47.5 -60.5t-15 -123.5z" />
    <glyph glyph-name="Gbreve" unicode="&#x11e;" horiz-adv-x="547" 
d="M230 356q0 -74 11 -118t37.5 -64t73.5 -24v69l-55 137h235v-322q-32 -21 -83 -32.5t-117 -11.5q-96 0 -166 36t-108 116.5t-38 212.5q0 133 41 215t115 120t172 38q35 0 73 -6t78 -14l-18 -164q-33 6 -56.5 9.5t-47.5 3.5q-52 0 -84.5 -17t-47.5 -60.5t-15 -123.5z
M336 771q-76 0 -110.5 33.5t-42.5 106.5h86q16 -41 67 -41t67 41h86q-7 -73 -41.5 -106.5t-111.5 -33.5z" />
    <glyph glyph-name="Gcaron" unicode="&#x1e6;" horiz-adv-x="547" 
d="M230 356q0 -74 11 -118t37.5 -64t73.5 -24v69l-55 137h235v-322q-32 -21 -83 -32.5t-117 -11.5q-96 0 -166 36t-108 116.5t-38 212.5q0 133 41 215t115 120t172 38q35 0 73 -6t78 -14l-18 -164q-33 6 -56.5 9.5t-47.5 3.5q-52 0 -84.5 -17t-47.5 -60.5t-15 -123.5z
M167 891h124l45 -41l45 41h124l-108 -120h-122z" />
    <glyph glyph-name="Gcircumflex" unicode="&#x11c;" horiz-adv-x="547" 
d="M230 356q0 -74 11 -118t37.5 -64t73.5 -24v69l-55 137h235v-322q-32 -21 -83 -32.5t-117 -11.5q-96 0 -166 36t-108 116.5t-38 212.5q0 133 41 215t115 120t172 38q35 0 73 -6t78 -14l-18 -164q-33 6 -56.5 9.5t-47.5 3.5q-52 0 -84.5 -17t-47.5 -60.5t-15 -123.5z
M167 771l108 120h122l108 -120h-124l-45 41l-45 -41h-124z" />
    <glyph glyph-name="uni0122" unicode="&#x122;" horiz-adv-x="547" 
d="M230 356q0 -74 11 -118t37.5 -64t73.5 -24v69l-55 137h235v-322q-32 -21 -83 -32.5t-117 -11.5q-96 0 -166 36t-108 116.5t-38 212.5q0 133 41 215t115 120t172 38q35 0 73 -6t78 -14l-18 -164q-33 6 -56.5 9.5t-47.5 3.5q-52 0 -84.5 -17t-47.5 -60.5t-15 -123.5z
M226 -150l28 113h171l-61 -113h-138z" />
    <glyph glyph-name="Gdotaccent" unicode="&#x120;" horiz-adv-x="547" 
d="M230 356q0 -74 11 -118t37.5 -64t73.5 -24v69l-55 137h235v-322q-32 -21 -83 -32.5t-117 -11.5q-96 0 -166 36t-108 116.5t-38 212.5q0 133 41 215t115 120t172 38q35 0 73 -6t78 -14l-18 -164q-33 6 -56.5 9.5t-47.5 3.5q-52 0 -84.5 -17t-47.5 -60.5t-15 -123.5z
M241 913h190v-136h-190v136z" />
    <glyph glyph-name="H" unicode="H" horiz-adv-x="580" 
d="M45 0v720h195v-277h100v277h195v-720h-195v283h-100v-283h-195z" />
    <glyph glyph-name="Hbar" unicode="&#x126;" horiz-adv-x="580" 
d="M45 0v525h-30v83h30v112h195v-112h100v112h195v-112h30v-83h-30v-525h-195v283h-100v-283h-195zM240 443h100v82h-100v-82z" />
    <glyph glyph-name="Hcircumflex" unicode="&#x124;" horiz-adv-x="580" 
d="M45 0v720h195v-277h100v277h195v-720h-195v283h-100v-283h-195zM121 771l108 120h122l108 -120h-124l-45 41l-45 -41h-124z" />
    <glyph glyph-name="I" unicode="I" horiz-adv-x="285" 
d="M45 720h195v-720h-195v720z" />
    <glyph glyph-name="IJ" unicode="&#x132;" horiz-adv-x="708" 
d="M45 720h195v-720h-195v720zM473 583l-55 137h250v-505q0 -72 -11.5 -116t-37 -68t-68 -32.5t-104.5 -8.5q-19 0 -48 2.5t-57.5 7.5t-46.5 10l19 159q16 -4 34 -7.5t35 -3.5q39 0 58.5 10.5t25.5 37t6 75.5v302z" />
    <glyph glyph-name="Iacute" unicode="&#xcd;" horiz-adv-x="285" 
d="M45 720h195v-720h-195v720zM109 891h186l-80 -120h-151z" />
    <glyph glyph-name="Ibreve" unicode="&#x12c;" horiz-adv-x="285" 
d="M45 720h195v-720h-195v720zM142 771q-76 0 -110.5 33.5t-42.5 106.5h86q16 -41 67 -41t67 41h86q-7 -73 -41.5 -106.5t-111.5 -33.5z" />
    <glyph glyph-name="Icircumflex" unicode="&#xce;" horiz-adv-x="285" 
d="M45 720h195v-720h-195v720zM-27 771l108 120h122l108 -120h-124l-45 41l-45 -41h-124z" />
    <glyph glyph-name="uni0208" unicode="&#x208;" horiz-adv-x="285" 
d="M45 720h195v-720h-195v720zM277 891l45 -120h-151l-80 120h186zM74 891l45 -120h-151l-80 120h186z" />
    <glyph glyph-name="Idieresis" unicode="&#xcf;" horiz-adv-x="285" 
d="M45 720h195v-720h-195v720zM-40 913h160v-136h-160v136zM164 913h160v-136h-160v136z" />
    <glyph glyph-name="Idotaccent" unicode="&#x130;" horiz-adv-x="285" 
d="M45 720h195v-720h-195v720zM47 913h190v-136h-190v136z" />
    <glyph glyph-name="uni1ECA" unicode="&#x1eca;" horiz-adv-x="285" 
d="M45 720h195v-720h-195v720zM47 -46h190v-136h-190v136z" />
    <glyph glyph-name="Igrave" unicode="&#xcc;" horiz-adv-x="285" 
d="M45 720h195v-720h-195v720zM180 891l45 -120h-151l-80 120h186z" />
    <glyph glyph-name="uni1EC8" unicode="&#x1ec8;" horiz-adv-x="285" 
d="M45 720h195v-720h-195v720zM137 757l-43 52q22 11 31 28.5t1.5 31.5t-34.5 14q-15 0 -29.5 -2.5t-22.5 -5.5l7 86q37 13 79 13q47 0 75 -18.5t38 -47t2 -59t-34 -56t-70 -36.5z" />
    <glyph glyph-name="uni020A" unicode="&#x20a;" horiz-adv-x="285" 
d="M45 720h195v-720h-195v720zM142 912q77 0 111.5 -33.5t41.5 -106.5h-86q-16 41 -67 41t-67 -41h-86q8 73 42.5 106.5t110.5 33.5z" />
    <glyph glyph-name="Imacron" unicode="&#x12a;" horiz-adv-x="285" 
d="M45 720h195v-720h-195v720zM-9 897h296v-110h-296v110z" />
    <glyph glyph-name="Iogonek" unicode="&#x12e;" horiz-adv-x="285" 
d="M45 720h195v-720h-195v720zM182 -160q-62 0 -90.5 27.5t-25.5 68.5t35 80h94q-19 -52 -8 -75.5t50 -16.5v-77q-13 -3 -27.5 -5t-27.5 -2z" />
    <glyph glyph-name="Itilde" unicode="&#x128;" horiz-adv-x="285" 
d="M45 720h195v-720h-195v720zM285 909q2 -10 3.5 -20.5t1.5 -20.5q0 -43 -23.5 -72.5t-71.5 -29.5q-20 0 -38 9t-32.5 17.5t-24.5 8.5q-13 0 -18 -8t-5 -19h-71q-2 11 -3.5 21t-1.5 20q0 44 23.5 73t71.5 29q20 0 38 -8.5t32.5 -17.5t24.5 -9q14 0 18.5 8t4.5 19h71z" />
    <glyph glyph-name="J" unicode="J" horiz-adv-x="423" 
d="M188 583l-55 137h250v-505q0 -72 -11.5 -116t-37 -68t-68 -32.5t-104.5 -8.5q-19 0 -48 2.5t-57.5 7.5t-46.5 10l19 159q16 -4 34 -7.5t35 -3.5q39 0 58.5 10.5t25.5 37t6 75.5v302z" />
    <glyph glyph-name="Jcircumflex" unicode="&#x134;" horiz-adv-x="423" 
d="M188 583l-55 137h250v-505q0 -72 -11.5 -116t-37 -68t-68 -32.5t-104.5 -8.5q-19 0 -48 2.5t-57.5 7.5t-46.5 10l19 159q16 -4 34 -7.5t35 -3.5q39 0 58.5 10.5t25.5 37t6 75.5v302zM111 771l108 120h122l108 -120h-124l-45 41l-45 -41h-124z" />
    <glyph glyph-name="K" unicode="K" horiz-adv-x="565" 
d="M45 720h195v-289l107 289h210l-134 -349l127 -371h-210l-100 305v-305h-195v720z" />
    <glyph glyph-name="uni0136" unicode="&#x136;" horiz-adv-x="565" 
d="M45 720h195v-289l107 289h210l-134 -349l127 -371h-210l-100 305v-305h-195v720zM174 -150l28 113h171l-61 -113h-138z" />
    <glyph glyph-name="L" unicode="L" horiz-adv-x="466" 
d="M45 720h195v-550h221l-31 -170h-385v720z" />
    <glyph glyph-name="uni01C7" unicode="&#x1c7;" horiz-adv-x="884" 
d="M45 720h195v-550h221l-31 -170h-385v720zM649 583l-55 137h250v-505q0 -72 -11.5 -116t-37 -68t-68 -32.5t-104.5 -8.5q-19 0 -48 2.5t-57.5 7.5t-46.5 10l19 159q16 -4 34 -7.5t35 -3.5q39 0 58.5 10.5t25.5 37t6 75.5v302z" />
    <glyph glyph-name="Lacute" unicode="&#x139;" horiz-adv-x="466" 
d="M45 720h195v-550h221l-31 -170h-385v720zM112 891h186l-80 -120h-151z" />
    <glyph glyph-name="Lcaron" unicode="&#x13d;" horiz-adv-x="466" 
d="M45 720h195v-550h221l-31 -170h-385v720zM300 755h165l-60 -155h-136z" />
    <glyph glyph-name="uni013B" unicode="&#x13b;" horiz-adv-x="466" 
d="M45 720h195v-550h221l-31 -170h-385v720zM125 -150l28 113h171l-61 -113h-138z" />
    <glyph glyph-name="Ldot" unicode="&#x13f;" horiz-adv-x="573" 
d="M45 720h195v-550h221l-31 -170h-385v720zM372 403h176v-165h-176v165z" />
    <glyph glyph-name="uni01C8" unicode="&#x1c8;" horiz-adv-x="726" 
d="M45 720h195v-550h221l-31 -170h-385v720zM506 575h180v-700l-180 -25v725zM501 755h190v-136h-190v136z" />
    <glyph glyph-name="Lslash" unicode="&#x141;" horiz-adv-x="466" 
d="M45 720h195v-225l91 38v-98l-91 -38v-227h221l-31 -170h-385v328l-63 -27v100l63 26v293z" />
    <glyph glyph-name="M" unicode="M" horiz-adv-x="737" 
d="M323 148l-88 210v-358h-190v583l-55 137h238l140 -301l140 301h184v-720h-190v356l-88 -208h-91z" />
    <glyph glyph-name="N" unicode="N" horiz-adv-x="638" 
d="M262 720l141 -411v411h190v-720h-234l-128 374v-374h-190v617l-41 103h262z" />
    <glyph glyph-name="uni01CA" unicode="&#x1ca;" horiz-adv-x="1061" 
d="M262 720l141 -411v411h190v-720h-234l-128 374v-374h-190v617l-41 103h262zM826 583l-55 137h250v-505q0 -72 -11.5 -116t-37 -68t-68 -32.5t-104.5 -8.5q-19 0 -48 2.5t-57.5 7.5t-46.5 10l19 159q16 -4 34 -7.5t35 -3.5q39 0 58.5 10.5t25.5 37t6 75.5v302z" />
    <glyph glyph-name="Nacute" unicode="&#x143;" horiz-adv-x="638" 
d="M262 720l141 -411v411h190v-720h-234l-128 374v-374h-190v617l-41 103h262zM306 891h186l-80 -120h-151z" />
    <glyph glyph-name="Ncaron" unicode="&#x147;" horiz-adv-x="638" 
d="M262 720l141 -411v411h190v-720h-234l-128 374v-374h-190v617l-41 103h262zM170 891h124l45 -41l45 41h124l-108 -120h-122z" />
    <glyph glyph-name="uni0145" unicode="&#x145;" horiz-adv-x="638" 
d="M262 720l141 -411v411h190v-720h-234l-128 374v-374h-190v617l-41 103h262zM236 -150l28 113h171l-61 -113h-138z" />
    <glyph glyph-name="uni01CB" unicode="&#x1cb;" horiz-adv-x="898" 
d="M262 720l141 -411v411h190v-720h-234l-128 374v-374h-190v617l-41 103h262zM678 575h180v-700l-180 -25v725zM673 755h190v-136h-190v136z" />
    <glyph glyph-name="Ntilde" unicode="&#xd1;" horiz-adv-x="638" 
d="M262 720l141 -411v411h190v-720h-234l-128 374v-374h-190v617l-41 103h262zM482 909q2 -10 3.5 -20.5t1.5 -20.5q0 -43 -23.5 -72.5t-71.5 -29.5q-20 0 -38 9t-32.5 17.5t-24.5 8.5q-13 0 -18 -8t-5 -19h-71q-2 11 -3.5 21t-1.5 20q0 44 23.5 73t71.5 29q20 0 38 -8.5
t32.5 -17.5t24.5 -9q14 0 18.5 8t4.5 19h71z" />
    <glyph glyph-name="Eng" unicode="&#x14a;" horiz-adv-x="638" 
d="M593 30q0 -81 -17.5 -122.5t-58.5 -55.5t-112 -14q-16 0 -41 2.5t-49 6.5t-39 8l11 102q14 -1 29 -3.5t30 -2.5q31 0 47 7t23 27l-185 373v-358h-190v617l-41 103h232l171 -344v344h190v-690z" />
    <glyph glyph-name="O" unicode="O" horiz-adv-x="586" 
d="M293 -10q-98 0 -158 33.5t-87.5 114t-27.5 221.5t27.5 221.5t87.5 114t158 33.5t158 -33.5t87.5 -114t27.5 -221.5t-27.5 -221.5t-87.5 -114t-158 -33.5zM356 361q0 86 -5.5 131.5t-19 63t-38.5 17.5q-24 0 -38 -17.5t-19.5 -63t-5.5 -131.5q0 -85 5.5 -132t19.5 -65.5
t38 -18.5q25 0 38.5 18.5t19 65.5t5.5 132z" />
    <glyph glyph-name="Oacute" unicode="&#xd3;" horiz-adv-x="586" 
d="M293 -10q-98 0 -158 33.5t-87.5 114t-27.5 221.5t27.5 221.5t87.5 114t158 33.5t158 -33.5t87.5 -114t27.5 -221.5t-27.5 -221.5t-87.5 -114t-158 -33.5zM356 361q0 86 -5.5 131.5t-19 63t-38.5 17.5q-24 0 -38 -17.5t-19.5 -63t-5.5 -131.5q0 -85 5.5 -132t19.5 -65.5
t38 -18.5q25 0 38.5 18.5t19 65.5t5.5 132zM260 891h186l-80 -120h-151z" />
    <glyph glyph-name="Obreve" unicode="&#x14e;" horiz-adv-x="586" 
d="M293 -10q-98 0 -158 33.5t-87.5 114t-27.5 221.5t27.5 221.5t87.5 114t158 33.5t158 -33.5t87.5 -114t27.5 -221.5t-27.5 -221.5t-87.5 -114t-158 -33.5zM356 361q0 86 -5.5 131.5t-19 63t-38.5 17.5q-24 0 -38 -17.5t-19.5 -63t-5.5 -131.5q0 -85 5.5 -132t19.5 -65.5
t38 -18.5q25 0 38.5 18.5t19 65.5t5.5 132zM293 771q-76 0 -110.5 33.5t-42.5 106.5h86q16 -41 67 -41t67 41h86q-7 -73 -41.5 -106.5t-111.5 -33.5z" />
    <glyph glyph-name="Ocircumflex" unicode="&#xd4;" horiz-adv-x="586" 
d="M293 -10q-98 0 -158 33.5t-87.5 114t-27.5 221.5t27.5 221.5t87.5 114t158 33.5t158 -33.5t87.5 -114t27.5 -221.5t-27.5 -221.5t-87.5 -114t-158 -33.5zM356 361q0 86 -5.5 131.5t-19 63t-38.5 17.5q-24 0 -38 -17.5t-19.5 -63t-5.5 -131.5q0 -85 5.5 -132t19.5 -65.5
t38 -18.5q25 0 38.5 18.5t19 65.5t5.5 132zM124 771l108 120h122l108 -120h-124l-45 41l-45 -41h-124z" />
    <glyph glyph-name="uni1ED0" unicode="&#x1ed0;" horiz-adv-x="586" 
d="M293 -10q-98 0 -158 33.5t-87.5 114t-27.5 221.5t27.5 221.5t87.5 114t158 33.5t158 -33.5t87.5 -114t27.5 -221.5t-27.5 -221.5t-87.5 -114t-158 -33.5zM356 361q0 86 -5.5 131.5t-19 63t-38.5 17.5q-24 0 -38 -17.5t-19.5 -63t-5.5 -131.5q0 -85 5.5 -132t19.5 -65.5
t38 -18.5q25 0 38.5 18.5t19 65.5t5.5 132zM124 771l108 120h122l108 -120h-124l-45 41l-45 -41h-124zM260 1040h186l-80 -120h-151z" />
    <glyph glyph-name="uni1ED8" unicode="&#x1ed8;" horiz-adv-x="586" 
d="M293 -10q-98 0 -158 33.5t-87.5 114t-27.5 221.5t27.5 221.5t87.5 114t158 33.5t158 -33.5t87.5 -114t27.5 -221.5t-27.5 -221.5t-87.5 -114t-158 -33.5zM356 361q0 86 -5.5 131.5t-19 63t-38.5 17.5q-24 0 -38 -17.5t-19.5 -63t-5.5 -131.5q0 -85 5.5 -132t19.5 -65.5
t38 -18.5q25 0 38.5 18.5t19 65.5t5.5 132zM198 -46h190v-136h-190v136zM124 771l108 120h122l108 -120h-124l-45 41l-45 -41h-124z" />
    <glyph glyph-name="uni1ED2" unicode="&#x1ed2;" horiz-adv-x="586" 
d="M293 -10q-98 0 -158 33.5t-87.5 114t-27.5 221.5t27.5 221.5t87.5 114t158 33.5t158 -33.5t87.5 -114t27.5 -221.5t-27.5 -221.5t-87.5 -114t-158 -33.5zM356 361q0 86 -5.5 131.5t-19 63t-38.5 17.5q-24 0 -38 -17.5t-19.5 -63t-5.5 -131.5q0 -85 5.5 -132t19.5 -65.5
t38 -18.5q25 0 38.5 18.5t19 65.5t5.5 132zM124 771l108 120h122l108 -120h-124l-45 41l-45 -41h-124zM331 1040l45 -120h-151l-80 120h186z" />
    <glyph glyph-name="uni1ED4" unicode="&#x1ed4;" horiz-adv-x="586" 
d="M293 -10q-98 0 -158 33.5t-87.5 114t-27.5 221.5t27.5 221.5t87.5 114t158 33.5t158 -33.5t87.5 -114t27.5 -221.5t-27.5 -221.5t-87.5 -114t-158 -33.5zM356 361q0 86 -5.5 131.5t-19 63t-38.5 17.5q-24 0 -38 -17.5t-19.5 -63t-5.5 -131.5q0 -85 5.5 -132t19.5 -65.5
t38 -18.5q25 0 38.5 18.5t19 65.5t5.5 132zM124 771l108 120h122l108 -120h-124l-45 41l-45 -41h-124zM455 827l-43 52q22 11 31 28.5t1.5 31.5t-34.5 14q-15 0 -29.5 -2.5t-22.5 -5.5l7 86q37 13 79 13q47 0 75 -18.5t38 -47t2 -59t-34 -56t-70 -36.5z" />
    <glyph glyph-name="uni1ED6" unicode="&#x1ed6;" horiz-adv-x="586" 
d="M293 -10q-98 0 -158 33.5t-87.5 114t-27.5 221.5t27.5 221.5t87.5 114t158 33.5t158 -33.5t87.5 -114t27.5 -221.5t-27.5 -221.5t-87.5 -114t-158 -33.5zM356 361q0 86 -5.5 131.5t-19 63t-38.5 17.5q-24 0 -38 -17.5t-19.5 -63t-5.5 -131.5q0 -85 5.5 -132t19.5 -65.5
t38 -18.5q25 0 38.5 18.5t19 65.5t5.5 132zM124 771l108 120h122l108 -120h-124l-45 41l-45 -41h-124zM436 1058q2 -10 3.5 -20.5t1.5 -20.5q0 -43 -23.5 -72.5t-71.5 -29.5q-20 0 -38 9t-32.5 17.5t-24.5 8.5q-13 0 -18 -8t-5 -19h-71q-2 11 -3.5 21t-1.5 20q0 44 23.5 73
t71.5 29q20 0 38 -8.5t32.5 -17.5t24.5 -9q14 0 18.5 8t4.5 19h71z" />
    <glyph glyph-name="uni020C" unicode="&#x20c;" horiz-adv-x="586" 
d="M293 -10q-98 0 -158 33.5t-87.5 114t-27.5 221.5t27.5 221.5t87.5 114t158 33.5t158 -33.5t87.5 -114t27.5 -221.5t-27.5 -221.5t-87.5 -114t-158 -33.5zM356 361q0 86 -5.5 131.5t-19 63t-38.5 17.5q-24 0 -38 -17.5t-19.5 -63t-5.5 -131.5q0 -85 5.5 -132t19.5 -65.5
t38 -18.5q25 0 38.5 18.5t19 65.5t5.5 132zM428 891l45 -120h-151l-80 120h186zM225 891l45 -120h-151l-80 120h186z" />
    <glyph glyph-name="Odieresis" unicode="&#xd6;" horiz-adv-x="586" 
d="M293 -10q-98 0 -158 33.5t-87.5 114t-27.5 221.5t27.5 221.5t87.5 114t158 33.5t158 -33.5t87.5 -114t27.5 -221.5t-27.5 -221.5t-87.5 -114t-158 -33.5zM356 361q0 86 -5.5 131.5t-19 63t-38.5 17.5q-24 0 -38 -17.5t-19.5 -63t-5.5 -131.5q0 -85 5.5 -132t19.5 -65.5
t38 -18.5q25 0 38.5 18.5t19 65.5t5.5 132zM111 913h160v-136h-160v136zM315 913h160v-136h-160v136z" />
    <glyph glyph-name="uni022A" unicode="&#x22a;" horiz-adv-x="586" 
d="M293 -10q-98 0 -158 33.5t-87.5 114t-27.5 221.5t27.5 221.5t87.5 114t158 33.5t158 -33.5t87.5 -114t27.5 -221.5t-27.5 -221.5t-87.5 -114t-158 -33.5zM356 361q0 86 -5.5 131.5t-19 63t-38.5 17.5q-24 0 -38 -17.5t-19.5 -63t-5.5 -131.5q0 -85 5.5 -132t19.5 -65.5
t38 -18.5q25 0 38.5 18.5t19 65.5t5.5 132zM111 913h160v-136h-160v136zM315 913h160v-136h-160v136zM142 1052h296v-110h-296v110z" />
    <glyph glyph-name="uni0230" unicode="&#x230;" horiz-adv-x="586" 
d="M293 -10q-98 0 -158 33.5t-87.5 114t-27.5 221.5t27.5 221.5t87.5 114t158 33.5t158 -33.5t87.5 -114t27.5 -221.5t-27.5 -221.5t-87.5 -114t-158 -33.5zM356 361q0 86 -5.5 131.5t-19 63t-38.5 17.5q-24 0 -38 -17.5t-19.5 -63t-5.5 -131.5q0 -85 5.5 -132t19.5 -65.5
t38 -18.5q25 0 38.5 18.5t19 65.5t5.5 132zM198 913h190v-136h-190v136zM142 1052h296v-110h-296v110z" />
    <glyph glyph-name="uni1ECC" unicode="&#x1ecc;" horiz-adv-x="586" 
d="M293 -10q-98 0 -158 33.5t-87.5 114t-27.5 221.5t27.5 221.5t87.5 114t158 33.5t158 -33.5t87.5 -114t27.5 -221.5t-27.5 -221.5t-87.5 -114t-158 -33.5zM356 361q0 86 -5.5 131.5t-19 63t-38.5 17.5q-24 0 -38 -17.5t-19.5 -63t-5.5 -131.5q0 -85 5.5 -132t19.5 -65.5
t38 -18.5q25 0 38.5 18.5t19 65.5t5.5 132zM198 -46h190v-136h-190v136z" />
    <glyph glyph-name="Ograve" unicode="&#xd2;" horiz-adv-x="586" 
d="M293 -10q-98 0 -158 33.5t-87.5 114t-27.5 221.5t27.5 221.5t87.5 114t158 33.5t158 -33.5t87.5 -114t27.5 -221.5t-27.5 -221.5t-87.5 -114t-158 -33.5zM356 361q0 86 -5.5 131.5t-19 63t-38.5 17.5q-24 0 -38 -17.5t-19.5 -63t-5.5 -131.5q0 -85 5.5 -132t19.5 -65.5
t38 -18.5q25 0 38.5 18.5t19 65.5t5.5 132zM331 891l45 -120h-151l-80 120h186z" />
    <glyph glyph-name="uni1ECE" unicode="&#x1ece;" horiz-adv-x="586" 
d="M293 -10q-98 0 -158 33.5t-87.5 114t-27.5 221.5t27.5 221.5t87.5 114t158 33.5t158 -33.5t87.5 -114t27.5 -221.5t-27.5 -221.5t-87.5 -114t-158 -33.5zM356 361q0 86 -5.5 131.5t-19 63t-38.5 17.5q-24 0 -38 -17.5t-19.5 -63t-5.5 -131.5q0 -85 5.5 -132t19.5 -65.5
t38 -18.5q25 0 38.5 18.5t19 65.5t5.5 132zM288 757l-43 52q22 11 31 28.5t1.5 31.5t-34.5 14q-15 0 -29.5 -2.5t-22.5 -5.5l7 86q37 13 79 13q47 0 75 -18.5t38 -47t2 -59t-34 -56t-70 -36.5z" />
    <glyph glyph-name="Ohorn" unicode="&#x1a0;" horiz-adv-x="586" 
d="M293 -10q-98 0 -158 33.5t-87.5 114t-27.5 221.5t27.5 221.5t87.5 114t158 33.5h167q49 0 49 61v72h152v-69q0 -107 -30 -152t-102 -36q20 -43 28.5 -103.5t8.5 -141.5q0 -141 -27.5 -221.5t-87.5 -114t-158 -33.5zM293 145q25 0 38.5 18.5t19 65.5t5.5 132
q0 86 -5.5 131.5t-19 63t-38.5 17.5q-24 0 -38 -17.5t-19.5 -63t-5.5 -131.5q0 -85 5.5 -132t19.5 -65.5t38 -18.5z" />
    <glyph glyph-name="uni1EDA" unicode="&#x1eda;" horiz-adv-x="586" 
d="M293 -10q-98 0 -158 33.5t-87.5 114t-27.5 221.5t27.5 221.5t87.5 114t158 33.5h167q49 0 49 61v72h152v-69q0 -107 -30 -152t-102 -36q20 -43 28.5 -103.5t8.5 -141.5q0 -141 -27.5 -221.5t-87.5 -114t-158 -33.5zM293 145q25 0 38.5 18.5t19 65.5t5.5 132
q0 86 -5.5 131.5t-19 63t-38.5 17.5q-24 0 -38 -17.5t-19.5 -63t-5.5 -131.5q0 -85 5.5 -132t19.5 -65.5t38 -18.5zM260 891h186l-80 -120h-151z" />
    <glyph glyph-name="uni1EE2" unicode="&#x1ee2;" horiz-adv-x="586" 
d="M293 -10q-98 0 -158 33.5t-87.5 114t-27.5 221.5t27.5 221.5t87.5 114t158 33.5h167q49 0 49 61v72h152v-69q0 -107 -30 -152t-102 -36q20 -43 28.5 -103.5t8.5 -141.5q0 -141 -27.5 -221.5t-87.5 -114t-158 -33.5zM293 145q25 0 38.5 18.5t19 65.5t5.5 132
q0 86 -5.5 131.5t-19 63t-38.5 17.5q-24 0 -38 -17.5t-19.5 -63t-5.5 -131.5q0 -85 5.5 -132t19.5 -65.5t38 -18.5zM198 -46h190v-136h-190v136z" />
    <glyph glyph-name="uni1EDC" unicode="&#x1edc;" horiz-adv-x="586" 
d="M293 -10q-98 0 -158 33.5t-87.5 114t-27.5 221.5t27.5 221.5t87.5 114t158 33.5h167q49 0 49 61v72h152v-69q0 -107 -30 -152t-102 -36q20 -43 28.5 -103.5t8.5 -141.5q0 -141 -27.5 -221.5t-87.5 -114t-158 -33.5zM293 145q25 0 38.5 18.5t19 65.5t5.5 132
q0 86 -5.5 131.5t-19 63t-38.5 17.5q-24 0 -38 -17.5t-19.5 -63t-5.5 -131.5q0 -85 5.5 -132t19.5 -65.5t38 -18.5zM331 891l45 -120h-151l-80 120h186z" />
    <glyph glyph-name="uni1EDE" unicode="&#x1ede;" horiz-adv-x="586" 
d="M293 -10q-98 0 -158 33.5t-87.5 114t-27.5 221.5t27.5 221.5t87.5 114t158 33.5h167q49 0 49 61v72h152v-69q0 -107 -30 -152t-102 -36q20 -43 28.5 -103.5t8.5 -141.5q0 -141 -27.5 -221.5t-87.5 -114t-158 -33.5zM293 145q25 0 38.5 18.5t19 65.5t5.5 132
q0 86 -5.5 131.5t-19 63t-38.5 17.5q-24 0 -38 -17.5t-19.5 -63t-5.5 -131.5q0 -85 5.5 -132t19.5 -65.5t38 -18.5zM288 757l-43 52q22 11 31 28.5t1.5 31.5t-34.5 14q-15 0 -29.5 -2.5t-22.5 -5.5l7 86q37 13 79 13q47 0 75 -18.5t38 -47t2 -59t-34 -56t-70 -36.5z" />
    <glyph glyph-name="uni1EE0" unicode="&#x1ee0;" horiz-adv-x="586" 
d="M293 -10q-98 0 -158 33.5t-87.5 114t-27.5 221.5t27.5 221.5t87.5 114t158 33.5h167q49 0 49 61v72h152v-69q0 -107 -30 -152t-102 -36q20 -43 28.5 -103.5t8.5 -141.5q0 -141 -27.5 -221.5t-87.5 -114t-158 -33.5zM293 145q25 0 38.5 18.5t19 65.5t5.5 132
q0 86 -5.5 131.5t-19 63t-38.5 17.5q-24 0 -38 -17.5t-19.5 -63t-5.5 -131.5q0 -85 5.5 -132t19.5 -65.5t38 -18.5zM436 909q2 -10 3.5 -20.5t1.5 -20.5q0 -43 -23.5 -72.5t-71.5 -29.5q-20 0 -38 9t-32.5 17.5t-24.5 8.5q-13 0 -18 -8t-5 -19h-71q-2 11 -3.5 21t-1.5 20
q0 44 23.5 73t71.5 29q20 0 38 -8.5t32.5 -17.5t24.5 -9q14 0 18.5 8t4.5 19h71z" />
    <glyph glyph-name="Ohungarumlaut" unicode="&#x150;" horiz-adv-x="586" 
d="M293 -10q-98 0 -158 33.5t-87.5 114t-27.5 221.5t27.5 221.5t87.5 114t158 33.5t158 -33.5t87.5 -114t27.5 -221.5t-27.5 -221.5t-87.5 -114t-158 -33.5zM356 361q0 86 -5.5 131.5t-19 63t-38.5 17.5q-24 0 -38 -17.5t-19.5 -63t-5.5 -131.5q0 -85 5.5 -132t19.5 -65.5
t38 -18.5q25 0 38.5 18.5t19 65.5t5.5 132zM158 891h186l-80 -120h-151zM361 891h186l-80 -120h-151z" />
    <glyph glyph-name="uni020E" unicode="&#x20e;" horiz-adv-x="586" 
d="M293 -10q-98 0 -158 33.5t-87.5 114t-27.5 221.5t27.5 221.5t87.5 114t158 33.5t158 -33.5t87.5 -114t27.5 -221.5t-27.5 -221.5t-87.5 -114t-158 -33.5zM356 361q0 86 -5.5 131.5t-19 63t-38.5 17.5q-24 0 -38 -17.5t-19.5 -63t-5.5 -131.5q0 -85 5.5 -132t19.5 -65.5
t38 -18.5q25 0 38.5 18.5t19 65.5t5.5 132zM293 912q77 0 111.5 -33.5t41.5 -106.5h-86q-16 41 -67 41t-67 -41h-86q8 73 42.5 106.5t110.5 33.5z" />
    <glyph glyph-name="Omacron" unicode="&#x14c;" horiz-adv-x="586" 
d="M293 -10q-98 0 -158 33.5t-87.5 114t-27.5 221.5t27.5 221.5t87.5 114t158 33.5t158 -33.5t87.5 -114t27.5 -221.5t-27.5 -221.5t-87.5 -114t-158 -33.5zM356 361q0 86 -5.5 131.5t-19 63t-38.5 17.5q-24 0 -38 -17.5t-19.5 -63t-5.5 -131.5q0 -85 5.5 -132t19.5 -65.5
t38 -18.5q25 0 38.5 18.5t19 65.5t5.5 132zM142 897h296v-110h-296v110z" />
    <glyph glyph-name="uni01EA" unicode="&#x1ea;" horiz-adv-x="586" 
d="M293 -10q-98 0 -158 33.5t-87.5 114t-27.5 221.5t27.5 221.5t87.5 114t158 33.5t158 -33.5t87.5 -114t27.5 -221.5t-27.5 -221.5t-87.5 -114t-158 -33.5zM356 361q0 86 -5.5 131.5t-19 63t-38.5 17.5q-24 0 -38 -17.5t-19.5 -63t-5.5 -131.5q0 -85 5.5 -132t19.5 -65.5
t38 -18.5q25 0 38.5 18.5t19 65.5t5.5 132zM400 -160q-62 0 -90.5 27.5t-25.5 68.5t35 80h94q-19 -52 -8 -75.5t50 -16.5v-77q-13 -3 -27.5 -5t-27.5 -2z" />
    <glyph glyph-name="Oslash" unicode="&#xd8;" horiz-adv-x="586" 
d="M293 -10q-46 0 -83.5 7t-66.5 22l-40 -67l-74 43l48 82q-57 83 -57 282q0 141 27.5 221.5t87.5 114t158 33.5q47 0 85 -7t68 -23l40 67l73 -44l-49 -82q56 -83 56 -280q0 -141 -27.5 -221.5t-87.5 -114t-158 -33.5zM230 361v-29l112 203q-8 22 -19.5 30t-29.5 8
q-24 0 -38 -17.5t-19.5 -63t-5.5 -131.5zM356 361v22l-110 -202q7 -20 18.5 -28t28.5 -8q25 0 38.5 18.5t19 65.5t5.5 132z" />
    <glyph glyph-name="Oslashacute" unicode="&#x1fe;" horiz-adv-x="586" 
d="M216 761l45 120h186l-80 -120h-151zM81 -11l-70 49l48 69q-39 84 -39 252q0 141 27.5 221.5t87.5 114t158 33.5q59 0 103.5 -11t76.5 -37l33 48l69 -50l-48 -69q20 -43 29.5 -105t9.5 -145q0 -141 -27.5 -221.5t-87.5 -114t-158 -33.5q-58 0 -102.5 11t-76.5 36zM230 340
l117 172q-7 35 -19.5 48t-34.5 13q-24 0 -38 -17.5t-19.5 -63t-5.5 -131.5v-21zM293 145q25 0 38.5 18.5t19 65.5t5.5 132v14l-117 -170q7 -34 20 -47t34 -13z" />
    <glyph glyph-name="Otilde" unicode="&#xd5;" horiz-adv-x="586" 
d="M293 -10q-98 0 -158 33.5t-87.5 114t-27.5 221.5t27.5 221.5t87.5 114t158 33.5t158 -33.5t87.5 -114t27.5 -221.5t-27.5 -221.5t-87.5 -114t-158 -33.5zM356 361q0 86 -5.5 131.5t-19 63t-38.5 17.5q-24 0 -38 -17.5t-19.5 -63t-5.5 -131.5q0 -85 5.5 -132t19.5 -65.5
t38 -18.5q25 0 38.5 18.5t19 65.5t5.5 132zM436 909q2 -10 3.5 -20.5t1.5 -20.5q0 -43 -23.5 -72.5t-71.5 -29.5q-20 0 -38 9t-32.5 17.5t-24.5 8.5q-13 0 -18 -8t-5 -19h-71q-2 11 -3.5 21t-1.5 20q0 44 23.5 73t71.5 29q20 0 38 -8.5t32.5 -17.5t24.5 -9q14 0 18.5 8
t4.5 19h71z" />
    <glyph glyph-name="uni022C" unicode="&#x22c;" horiz-adv-x="586" 
d="M293 -10q-98 0 -158 33.5t-87.5 114t-27.5 221.5t27.5 221.5t87.5 114t158 33.5t158 -33.5t87.5 -114t27.5 -221.5t-27.5 -221.5t-87.5 -114t-158 -33.5zM356 361q0 86 -5.5 131.5t-19 63t-38.5 17.5q-24 0 -38 -17.5t-19.5 -63t-5.5 -131.5q0 -85 5.5 -132t19.5 -65.5
t38 -18.5q25 0 38.5 18.5t19 65.5t5.5 132zM436 909q2 -10 3.5 -20.5t1.5 -20.5q0 -43 -23.5 -72.5t-71.5 -29.5q-20 0 -38 9t-32.5 17.5t-24.5 8.5q-13 0 -18 -8t-5 -19h-71q-2 11 -3.5 21t-1.5 20q0 44 23.5 73t71.5 29q21 0 38.5 -8.5t32 -17.5t24.5 -9q14 0 18.5 8
t4.5 19h71zM142 1052h296v-110h-296v110z" />
    <glyph glyph-name="OE" unicode="&#x152;" horiz-adv-x="807" 
d="M293 -10q-98 0 -158 33.5t-87.5 114t-27.5 221.5t27.5 221.5t87.5 114t158 33.5q24 0 45.5 -2t40.5 -6h406l-30 -160h-208v-110h196l-30 -160h-166v-130h245l-30 -160h-370v1q-22 -5 -46.5 -8t-52.5 -3zM293 145q25 0 38.5 18.5t19 65.5t5.5 132q0 86 -5.5 131.5t-19 63
t-38.5 17.5q-24 0 -38 -17.5t-19.5 -63t-5.5 -131.5q0 -85 5.5 -132t19.5 -65.5t38 -18.5z" />
    <glyph glyph-name="P" unicode="P" horiz-adv-x="569" 
d="M55 0v583l-55 137h288q90 0 149 -24.5t88 -82.5t29 -158q0 -138 -66 -199t-200 -61h-38v-195h-195zM250 338q48 0 71.5 26t23.5 93q0 51 -8.5 77t-29 35.5t-57.5 9.5v-241z" />
    <glyph glyph-name="Thorn" unicode="&#xde;" horiz-adv-x="559" 
d="M45 0v721h194v-90h40q90 0 148.5 -24.5t87.5 -82t29 -157.5q0 -138 -65.5 -199.5t-199.5 -61.5h-38v-106h-196zM240 249q48 0 71.5 26t23.5 93q0 51 -8.5 77t-29 35.5t-57.5 9.5v-241z" />
    <glyph glyph-name="Q" unicode="Q" horiz-adv-x="586" 
d="M288 -10q-96 1 -155 35t-86 114.5t-27 219.5q0 141 27.5 221.5t87.5 114t158 33.5t158 -33.5t87.5 -114t27.5 -221.5q0 -122 -20.5 -198.5t-65.5 -116.5q23 -16 42 -38t31 -51l-185 -106zM356 361q0 86 -5.5 131.5t-19 63t-38.5 17.5q-24 0 -38 -17.5t-19.5 -63
t-5.5 -131.5q0 -85 5.5 -132t19.5 -65.5t38 -18.5q25 0 38.5 18.5t19 65.5t5.5 132z" />
    <glyph glyph-name="R" unicode="R" horiz-adv-x="583" 
d="M284 720q88 0 147 -22.5t88.5 -75t29.5 -143.5q0 -76 -23 -124.5t-70 -77.5l122 -277h-217l-79 234h-32v-234h-195v583l-55 137h284zM250 368q46 0 68 23t22 81q0 46 -8 68.5t-27.5 30.5t-54.5 8v-211z" />
    <glyph glyph-name="Racute" unicode="&#x154;" horiz-adv-x="583" 
d="M284 720q88 0 147 -22.5t88.5 -75t29.5 -143.5q0 -76 -23 -124.5t-70 -77.5l122 -277h-217l-79 234h-32v-234h-195v583l-55 137h284zM250 368q46 0 68 23t22 81q0 46 -8 68.5t-27.5 30.5t-54.5 8v-211zM250 891h186l-80 -120h-151z" />
    <glyph glyph-name="Rcaron" unicode="&#x158;" horiz-adv-x="583" 
d="M284 720q88 0 147 -22.5t88.5 -75t29.5 -143.5q0 -76 -23 -124.5t-70 -77.5l122 -277h-217l-79 234h-32v-234h-195v583l-55 137h284zM250 368q46 0 68 23t22 81q0 46 -8 68.5t-27.5 30.5t-54.5 8v-211zM114 891h124l45 -41l45 41h124l-108 -120h-122z" />
    <glyph glyph-name="uni0156" unicode="&#x156;" horiz-adv-x="583" 
d="M284 720q88 0 147 -22.5t88.5 -75t29.5 -143.5q0 -76 -23 -124.5t-70 -77.5l122 -277h-217l-79 234h-32v-234h-195v583l-55 137h284zM250 368q46 0 68 23t22 81q0 46 -8 68.5t-27.5 30.5t-54.5 8v-211zM195 -150l28 113h171l-61 -113h-138z" />
    <glyph glyph-name="uni0210" unicode="&#x210;" horiz-adv-x="583" 
d="M284 720q88 0 147 -22.5t88.5 -75t29.5 -143.5q0 -76 -23 -124.5t-70 -77.5l122 -277h-217l-79 234h-32v-234h-195v583l-55 137h284zM250 368q46 0 68 23t22 81q0 46 -8 68.5t-27.5 30.5t-54.5 8v-211zM418 891l45 -120h-151l-80 120h186zM215 891l45 -120h-151l-80 120
h186z" />
    <glyph glyph-name="uni0212" unicode="&#x212;" horiz-adv-x="583" 
d="M284 720q88 0 147 -22.5t88.5 -75t29.5 -143.5q0 -76 -23 -124.5t-70 -77.5l122 -277h-217l-79 234h-32v-234h-195v583l-55 137h284zM250 368q46 0 68 23t22 81q0 46 -8 68.5t-27.5 30.5t-54.5 8v-211zM283 912q77 0 111.5 -33.5t41.5 -106.5h-86q-16 41 -67 41t-67 -41
h-86q8 73 42.5 106.5t110.5 33.5z" />
    <glyph glyph-name="S" unicode="S" horiz-adv-x="523" 
d="M225 163q38 0 57 11t19 36q0 17 -9 27t-32 20l-106 49q-59 27 -91 72t-32 131q0 110 57.5 164.5t190.5 55.5q55 0 100 -5t72 -10.5l27 -5.5l-20 -161l-24.5 3t-60.5 5.5t-70 2.5q-36 0 -54.5 -10.5t-18.5 -39.5q0 -16 14 -26.5t39 -21.5l85 -37q68 -30 99 -74.5
t31 -126.5q0 -111 -58 -171t-191 -61q-66 0 -123 8.5t-101 19.5l20 161l24.5 -4t65.5 -8t90 -4z" />
    <glyph glyph-name="Sacute" unicode="&#x15a;" horiz-adv-x="523" 
d="M225 163q38 0 57 11t19 36q0 17 -9 27t-32 20l-106 49q-59 27 -91 72t-32 131q0 110 57.5 164.5t190.5 55.5q55 0 100 -5t72 -10.5l27 -5.5l-20 -161l-24.5 3t-60.5 5.5t-70 2.5q-36 0 -54.5 -10.5t-18.5 -39.5q0 -16 14 -26.5t39 -21.5l85 -37q68 -30 99 -74.5
t31 -126.5q0 -111 -58 -171t-191 -61q-66 0 -123 8.5t-101 19.5l20 161l24.5 -4t65.5 -8t90 -4zM261 891h186l-80 -120h-151z" />
    <glyph glyph-name="Scaron" unicode="&#x160;" horiz-adv-x="523" 
d="M225 163q38 0 57 11t19 36q0 17 -9 27t-32 20l-106 49q-59 27 -91 72t-32 131q0 110 57.5 164.5t190.5 55.5q55 0 100 -5t72 -10.5l27 -5.5l-20 -161l-24.5 3t-60.5 5.5t-70 2.5q-36 0 -54.5 -10.5t-18.5 -39.5q0 -16 14 -26.5t39 -21.5l85 -37q68 -30 99 -74.5
t31 -126.5q0 -111 -58 -171t-191 -61q-66 0 -123 8.5t-101 19.5l20 161l24.5 -4t65.5 -8t90 -4zM125 891h124l45 -41l45 41h124l-108 -120h-122z" />
    <glyph glyph-name="Scedilla" unicode="&#x15e;" horiz-adv-x="523" 
d="M225 163q38 0 57 11t19 36q0 17 -9 27t-32 20l-106 49q-59 27 -91 72t-32 131q0 110 57.5 164.5t190.5 55.5q55 0 100 -5t72 -10.5l27 -5.5l-20 -161l-24.5 3t-60.5 5.5t-70 2.5q-36 0 -54.5 -10.5t-18.5 -39.5q0 -16 14 -26.5t39 -21.5l85 -37q68 -30 99 -74.5
t31 -126.5q0 -111 -58 -171t-191 -61q-66 0 -123 8.5t-101 19.5l20 161l24.5 -4t65.5 -8t90 -4zM303 16q6 -22 8.5 -40.5t2.5 -33.5q0 -57 -35.5 -79.5t-83.5 -22.5q-16 0 -35.5 1t-41.5 5v82q10 -1 21 -3t21 -2q44 0 44 50q0 18 -6 43h105z" />
    <glyph glyph-name="Scircumflex" unicode="&#x15c;" horiz-adv-x="523" 
d="M225 163q38 0 57 11t19 36q0 17 -9 27t-32 20l-106 49q-59 27 -91 72t-32 131q0 110 57.5 164.5t190.5 55.5q55 0 100 -5t72 -10.5l27 -5.5l-20 -161l-24.5 3t-60.5 5.5t-70 2.5q-36 0 -54.5 -10.5t-18.5 -39.5q0 -16 14 -26.5t39 -21.5l85 -37q68 -30 99 -74.5
t31 -126.5q0 -111 -58 -171t-191 -61q-66 0 -123 8.5t-101 19.5l20 161l24.5 -4t65.5 -8t90 -4zM125 771l108 120h122l108 -120h-124l-45 41l-45 -41h-124z" />
    <glyph glyph-name="uni0218" unicode="&#x218;" horiz-adv-x="523" 
d="M225 163q38 0 57 11t19 36q0 17 -9 27t-32 20l-106 49q-59 27 -91 72t-32 131q0 110 57.5 164.5t190.5 55.5q55 0 100 -5t72 -10.5l27 -5.5l-20 -161l-24.5 3t-60.5 5.5t-70 2.5q-36 0 -54.5 -10.5t-18.5 -39.5q0 -16 14 -26.5t39 -21.5l85 -37q68 -30 99 -74.5
t31 -126.5q0 -111 -58 -171t-191 -61q-66 0 -123 8.5t-101 19.5l20 161l24.5 -4t65.5 -8t90 -4zM138 -150l28 113h171l-61 -113h-138z" />
    <glyph glyph-name="uni1E9E" unicode="&#x1e9e;" horiz-adv-x="637" 
d="M278 -2l12 153q20 -3 36 -3q41 0 67.5 16t26.5 53q0 35 -23 52t-77 17h-28v112l100 162q-38 16 -74 16q-35 0 -59 -18.5t-24 -59.5v-498h-195v499q0 76 37 127t100.5 76.5t141.5 25.5q65 0 134 -18.5t130 -56.5v-114l-107 -170q82 -20 114 -68t32 -107q0 -70 -36 -115.5
t-95.5 -67t-130.5 -21.5q-43 0 -82 8z" />
    <glyph glyph-name="T" unicode="T" horiz-adv-x="519" 
d="M484 560h-132v-560h-196v560h-146v160h504z" />
    <glyph glyph-name="Tbar" unicode="&#x166;" horiz-adv-x="519" 
d="M49 331v95h107v134h-146v160h504l-30 -160h-132v-134h106v-95h-106v-331h-196v331h-107z" />
    <glyph glyph-name="Tcaron" unicode="&#x164;" horiz-adv-x="519" 
d="M484 560h-132v-560h-196v560h-146v160h504zM91 891h124l45 -41l45 41h124l-108 -120h-122z" />
    <glyph glyph-name="uni0162" unicode="&#x162;" horiz-adv-x="519" 
d="M484 560h-132v-560h-196v560h-146v160h504zM305 16q6 -22 8.5 -40.5t2.5 -33.5q0 -57 -35.5 -79.5t-83.5 -22.5q-16 0 -35.5 1t-41.5 5v82q10 -1 21 -3t21 -2q44 0 44 50q0 18 -6 43h105z" />
    <glyph glyph-name="uni021A" unicode="&#x21a;" horiz-adv-x="519" 
d="M484 560h-132v-560h-196v560h-146v160h504zM140 -150l28 113h171l-61 -113h-138z" />
    <glyph glyph-name="U" unicode="U" horiz-adv-x="570" 
d="M235 245q0 -53 12 -76.5t38 -23.5q27 0 38.5 23.5t11.5 76.5v475h195v-466q0 -139 -60 -201.5t-185 -62.5q-124 0 -184.5 62.5t-60.5 201.5v466h195v-475z" />
    <glyph glyph-name="Uacute" unicode="&#xda;" horiz-adv-x="570" 
d="M235 245q0 -53 12 -76.5t38 -23.5q27 0 38.5 23.5t11.5 76.5v475h195v-466q0 -139 -60 -201.5t-185 -62.5q-124 0 -184.5 62.5t-60.5 201.5v466h195v-475zM252 891h186l-80 -120h-151z" />
    <glyph glyph-name="Ubreve" unicode="&#x16c;" horiz-adv-x="570" 
d="M235 245q0 -53 12 -76.5t38 -23.5q27 0 38.5 23.5t11.5 76.5v475h195v-466q0 -139 -60 -201.5t-185 -62.5q-124 0 -184.5 62.5t-60.5 201.5v466h195v-475zM285 771q-76 0 -110.5 33.5t-42.5 106.5h86q16 -41 67 -41t67 41h86q-7 -73 -41.5 -106.5t-111.5 -33.5z" />
    <glyph glyph-name="Ucircumflex" unicode="&#xdb;" horiz-adv-x="570" 
d="M235 245q0 -53 12 -76.5t38 -23.5q27 0 38.5 23.5t11.5 76.5v475h195v-466q0 -139 -60 -201.5t-185 -62.5q-124 0 -184.5 62.5t-60.5 201.5v466h195v-475zM116 771l108 120h122l108 -120h-124l-45 41l-45 -41h-124z" />
    <glyph glyph-name="uni0214" unicode="&#x214;" horiz-adv-x="570" 
d="M235 245q0 -53 12 -76.5t38 -23.5q27 0 38.5 23.5t11.5 76.5v475h195v-466q0 -139 -60 -201.5t-185 -62.5q-124 0 -184.5 62.5t-60.5 201.5v466h195v-475zM420 891l45 -120h-151l-80 120h186zM217 891l45 -120h-151l-80 120h186z" />
    <glyph glyph-name="Udieresis" unicode="&#xdc;" horiz-adv-x="570" 
d="M235 245q0 -53 12 -76.5t38 -23.5q27 0 38.5 23.5t11.5 76.5v475h195v-466q0 -139 -60 -201.5t-185 -62.5q-124 0 -184.5 62.5t-60.5 201.5v466h195v-475zM103 913h160v-136h-160v136zM307 913h160v-136h-160v136z" />
    <glyph glyph-name="uni1EE4" unicode="&#x1ee4;" horiz-adv-x="570" 
d="M235 245q0 -53 12 -76.5t38 -23.5q27 0 38.5 23.5t11.5 76.5v475h195v-466q0 -139 -60 -201.5t-185 -62.5q-124 0 -184.5 62.5t-60.5 201.5v466h195v-475zM190 -46h190v-136h-190v136z" />
    <glyph glyph-name="Ugrave" unicode="&#xd9;" horiz-adv-x="570" 
d="M235 245q0 -53 12 -76.5t38 -23.5q27 0 38.5 23.5t11.5 76.5v475h195v-466q0 -139 -60 -201.5t-185 -62.5q-124 0 -184.5 62.5t-60.5 201.5v466h195v-475zM323 891l45 -120h-151l-80 120h186z" />
    <glyph glyph-name="uni1EE6" unicode="&#x1ee6;" horiz-adv-x="570" 
d="M235 245q0 -53 12 -76.5t38 -23.5q27 0 38.5 23.5t11.5 76.5v475h195v-466q0 -139 -60 -201.5t-185 -62.5q-124 0 -184.5 62.5t-60.5 201.5v466h195v-475zM280 757l-43 52q22 11 31 28.5t1.5 31.5t-34.5 14q-15 0 -29.5 -2.5t-22.5 -5.5l7 86q37 13 79 13q47 0 75 -18.5
t38 -47t2 -59t-34 -56t-70 -36.5z" />
    <glyph glyph-name="Uhorn" unicode="&#x1af;" horiz-adv-x="678" 
d="M235 245q0 -53 12 -76.5t38 -23.5q27 0 38.5 23.5t11.5 76.5v475h195v-466q0 -139 -60 -201.5t-185 -62.5q-124 0 -184.5 62.5t-60.5 201.5v466h195v-475zM482 581l-60 139h75q49 0 49 61v72h152v-69q0 -89 -20.5 -135t-68 -59.5t-127.5 -8.5z" />
    <glyph glyph-name="uni1EE8" unicode="&#x1ee8;" horiz-adv-x="678" 
d="M235 245q0 -53 12 -76.5t38 -23.5q27 0 38.5 23.5t11.5 76.5v475h195v-466q0 -139 -60 -201.5t-185 -62.5q-124 0 -184.5 62.5t-60.5 201.5v466h195v-475zM482 581l-60 139h75q49 0 49 61v72h152v-69q0 -89 -20.5 -135t-68 -59.5t-127.5 -8.5zM252 891h186l-80 -120h-151
z" />
    <glyph glyph-name="uni1EF0" unicode="&#x1ef0;" horiz-adv-x="678" 
d="M235 245q0 -53 12 -76.5t38 -23.5q27 0 38.5 23.5t11.5 76.5v475h195v-466q0 -139 -60 -201.5t-185 -62.5q-124 0 -184.5 62.5t-60.5 201.5v466h195v-475zM482 581l-60 139h75q49 0 49 61v72h152v-69q0 -89 -20.5 -135t-68 -59.5t-127.5 -8.5zM190 -46h190v-136h-190v136
z" />
    <glyph glyph-name="uni1EEA" unicode="&#x1eea;" horiz-adv-x="678" 
d="M235 245q0 -53 12 -76.5t38 -23.5q27 0 38.5 23.5t11.5 76.5v475h195v-466q0 -139 -60 -201.5t-185 -62.5q-124 0 -184.5 62.5t-60.5 201.5v466h195v-475zM482 581l-60 139h75q49 0 49 61v72h152v-69q0 -89 -20.5 -135t-68 -59.5t-127.5 -8.5zM323 891l45 -120h-151
l-80 120h186z" />
    <glyph glyph-name="uni1EEC" unicode="&#x1eec;" horiz-adv-x="678" 
d="M235 245q0 -53 12 -76.5t38 -23.5q27 0 38.5 23.5t11.5 76.5v475h195v-466q0 -139 -60 -201.5t-185 -62.5q-124 0 -184.5 62.5t-60.5 201.5v466h195v-475zM482 581l-60 139h75q49 0 49 61v72h152v-69q0 -89 -20.5 -135t-68 -59.5t-127.5 -8.5zM280 757l-43 52
q22 11 31 28.5t1.5 31.5t-34.5 14q-15 0 -29.5 -2.5t-22.5 -5.5l7 86q37 13 79 13q47 0 75 -18.5t38 -47t2 -59t-34 -56t-70 -36.5z" />
    <glyph glyph-name="uni1EEE" unicode="&#x1eee;" horiz-adv-x="678" 
d="M235 245q0 -53 12 -76.5t38 -23.5q27 0 38.5 23.5t11.5 76.5v475h195v-466q0 -139 -60 -201.5t-185 -62.5q-124 0 -184.5 62.5t-60.5 201.5v466h195v-475zM482 581l-60 139h75q49 0 49 61v72h152v-69q0 -89 -20.5 -135t-68 -59.5t-127.5 -8.5zM428 909q2 -10 3.5 -20.5
t1.5 -20.5q0 -43 -23.5 -72.5t-71.5 -29.5q-20 0 -38 9t-32.5 17.5t-24.5 8.5q-13 0 -18 -8t-5 -19h-71q-2 11 -3.5 21t-1.5 20q0 44 23.5 73t71.5 29q20 0 38 -8.5t32.5 -17.5t24.5 -9q14 0 18.5 8t4.5 19h71z" />
    <glyph glyph-name="Uhungarumlaut" unicode="&#x170;" horiz-adv-x="570" 
d="M235 245q0 -53 12 -76.5t38 -23.5q27 0 38.5 23.5t11.5 76.5v475h195v-466q0 -139 -60 -201.5t-185 -62.5q-124 0 -184.5 62.5t-60.5 201.5v466h195v-475zM150 891h186l-80 -120h-151zM353 891h186l-80 -120h-151z" />
    <glyph glyph-name="uni0216" unicode="&#x216;" horiz-adv-x="570" 
d="M235 245q0 -53 12 -76.5t38 -23.5q27 0 38.5 23.5t11.5 76.5v475h195v-466q0 -139 -60 -201.5t-185 -62.5q-124 0 -184.5 62.5t-60.5 201.5v466h195v-475zM285 912q77 0 111.5 -33.5t41.5 -106.5h-86q-16 41 -67 41t-67 -41h-86q8 73 42.5 106.5t110.5 33.5z" />
    <glyph glyph-name="Umacron" unicode="&#x16a;" horiz-adv-x="570" 
d="M235 245q0 -53 12 -76.5t38 -23.5q27 0 38.5 23.5t11.5 76.5v475h195v-466q0 -139 -60 -201.5t-185 -62.5q-124 0 -184.5 62.5t-60.5 201.5v466h195v-475zM134 897h296v-110h-296v110z" />
    <glyph glyph-name="Uogonek" unicode="&#x172;" horiz-adv-x="570" 
d="M235 245q0 -53 12 -76.5t38 -23.5q27 0 38.5 23.5t11.5 76.5v475h195v-466q0 -139 -60 -201.5t-185 -62.5q-124 0 -184.5 62.5t-60.5 201.5v466h195v-475zM393 -160q-62 0 -90.5 27.5t-25.5 68.5t35 80h94q-19 -52 -8 -75.5t50 -16.5v-77q-13 -3 -27.5 -5t-27.5 -2z" />
    <glyph glyph-name="Uring" unicode="&#x16e;" horiz-adv-x="570" 
d="M235 245q0 -53 12 -76.5t38 -23.5q27 0 38.5 23.5t11.5 76.5v475h195v-466q0 -139 -60 -201.5t-185 -62.5q-124 0 -184.5 62.5t-60.5 201.5v466h195v-475zM407 847q0 -41 -29 -60t-92 -19q-64 0 -93.5 19t-29.5 60q0 45 29.5 64.5t93.5 19.5q63 0 92 -19.5t29 -64.5z
M258 848q0 -17 8.5 -23.5t19.5 -6.5q9 0 18 6.5t9 23.5q0 20 -9 26t-18 6q-11 0 -19.5 -6t-8.5 -26z" />
    <glyph glyph-name="Utilde" unicode="&#x168;" horiz-adv-x="570" 
d="M235 245q0 -53 12 -76.5t38 -23.5q27 0 38.5 23.5t11.5 76.5v475h195v-466q0 -139 -60 -201.5t-185 -62.5q-124 0 -184.5 62.5t-60.5 201.5v466h195v-475zM428 909q2 -10 3.5 -20.5t1.5 -20.5q0 -43 -23.5 -72.5t-71.5 -29.5q-20 0 -38 9t-32.5 17.5t-24.5 8.5
q-13 0 -18 -8t-5 -19h-71q-2 11 -3.5 21t-1.5 20q0 44 23.5 73t71.5 29q20 0 38 -8.5t32.5 -17.5t24.5 -9q14 0 18.5 8t4.5 19h71z" />
    <glyph glyph-name="V" unicode="V" horiz-adv-x="570" 
d="M5 720h208l45 -301l31 -206l34 206l45 301h197l-164 -720h-232z" />
    <glyph glyph-name="W" unicode="W" horiz-adv-x="846" 
d="M134 0l-114 720h208l34 -440l83 342h156l84 -345l33 443h208l-114 -720h-191l-96 424l-100 -424h-191z" />
    <glyph glyph-name="Wacute" unicode="&#x1e82;" horiz-adv-x="846" 
d="M134 0l-114 720h208l34 -440l83 342h156l84 -345l33 443h208l-114 -720h-191l-96 424l-100 -424h-191zM390 891h186l-80 -120h-151z" />
    <glyph glyph-name="Wcircumflex" unicode="&#x174;" horiz-adv-x="846" 
d="M134 0l-114 720h208l34 -440l83 342h156l84 -345l33 443h208l-114 -720h-191l-96 424l-100 -424h-191zM254 771l108 120h122l108 -120h-124l-45 41l-45 -41h-124z" />
    <glyph glyph-name="Wdieresis" unicode="&#x1e84;" horiz-adv-x="846" 
d="M134 0l-114 720h208l34 -440l83 342h156l84 -345l33 443h208l-114 -720h-191l-96 424l-100 -424h-191zM241 913h160v-136h-160v136zM445 913h160v-136h-160v136z" />
    <glyph glyph-name="Wgrave" unicode="&#x1e80;" horiz-adv-x="846" 
d="M134 0l-114 720h208l34 -440l83 342h156l84 -345l33 443h208l-114 -720h-191l-96 424l-100 -424h-191zM461 891l45 -120h-151l-80 120h186z" />
    <glyph glyph-name="X" unicode="X" horiz-adv-x="563" 
d="M208 720l85 -227l72 227h190l-132 -374l132 -346h-200l-77 214l-80 -214h-189l140 356l-141 364h200z" />
    <glyph glyph-name="Y" unicode="Y" horiz-adv-x="570" 
d="M187 220l-182 500h210l58 -212l16 -88h2l16 88l58 212h200l-183 -500v-220h-195v220z" />
    <glyph glyph-name="Yacute" unicode="&#xdd;" horiz-adv-x="570" 
d="M187 220l-182 500h210l58 -212l16 -88h2l16 88l58 212h200l-183 -500v-220h-195v220zM252 891h186l-80 -120h-151z" />
    <glyph glyph-name="Ycircumflex" unicode="&#x176;" horiz-adv-x="570" 
d="M187 220l-182 500h210l58 -212l16 -88h2l16 88l58 212h200l-183 -500v-220h-195v220zM116 771l108 120h122l108 -120h-124l-45 41l-45 -41h-124z" />
    <glyph glyph-name="Ydieresis" unicode="&#x178;" horiz-adv-x="570" 
d="M187 220l-182 500h210l58 -212l16 -88h2l16 88l58 212h200l-183 -500v-220h-195v220zM103 913h160v-136h-160v136zM307 913h160v-136h-160v136z" />
    <glyph glyph-name="uni1EF4" unicode="&#x1ef4;" horiz-adv-x="570" 
d="M187 220l-182 500h210l58 -212l16 -88h2l16 88l58 212h200l-183 -500v-220h-195v220zM189 -46h190v-136h-190v136z" />
    <glyph glyph-name="Ygrave" unicode="&#x1ef2;" horiz-adv-x="570" 
d="M187 220l-182 500h210l58 -212l16 -88h2l16 88l58 212h200l-183 -500v-220h-195v220zM323 891l45 -120h-151l-80 120h186z" />
    <glyph glyph-name="uni1EF6" unicode="&#x1ef6;" horiz-adv-x="570" 
d="M187 220l-182 500h210l58 -212l16 -88h2l16 88l58 212h200l-183 -500v-220h-195v220zM280 757l-43 52q22 11 31 28.5t1.5 31.5t-34.5 14q-15 0 -29.5 -2.5t-22.5 -5.5l7 86q37 13 79 13q47 0 75 -18.5t38 -47t2 -59t-34 -56t-70 -36.5z" />
    <glyph glyph-name="uni0232" unicode="&#x232;" horiz-adv-x="570" 
d="M187 220l-182 500h210l58 -212l16 -88h2l16 88l58 212h200l-183 -500v-220h-195v220zM134 897h296v-110h-296v110z" />
    <glyph glyph-name="uni1EF8" unicode="&#x1ef8;" horiz-adv-x="570" 
d="M187 220l-182 500h210l58 -212l16 -88h2l16 88l58 212h200l-183 -500v-220h-195v220zM428 909q2 -10 3.5 -20.5t1.5 -20.5q0 -43 -23.5 -72.5t-71.5 -29.5q-20 0 -38 9t-32.5 17.5t-24.5 8.5q-13 0 -18 -8t-5 -19h-71q-2 11 -3.5 21t-1.5 20q0 44 23.5 73t71.5 29
q20 0 38 -8.5t32.5 -17.5t24.5 -9q14 0 18.5 8t4.5 19h71z" />
    <glyph glyph-name="Z" unicode="Z" horiz-adv-x="506" 
d="M25 720h461v-121l-230 -439h235v-160h-476v121l229 439h-219v160z" />
    <glyph glyph-name="Zacute" unicode="&#x179;" horiz-adv-x="506" 
d="M25 720h461v-121l-230 -439h235v-160h-476v121l229 439h-219v160zM220 891h186l-80 -120h-151z" />
    <glyph glyph-name="Zcaron" unicode="&#x17d;" horiz-adv-x="506" 
d="M25 720h461v-121l-230 -439h235v-160h-476v121l229 439h-219v160zM84 891h124l45 -41l45 41h124l-108 -120h-122z" />
    <glyph glyph-name="Zdotaccent" unicode="&#x17b;" horiz-adv-x="506" 
d="M25 720h461v-121l-230 -439h235v-160h-476v121l229 439h-219v160zM158 913h190v-136h-190v136z" />
    <glyph glyph-name="a" unicode="a" horiz-adv-x="495" 
d="M174 -10q-40 0 -75 20.5t-57 59.5t-22 94q0 86 60.5 130t156.5 44h43v55q0 29 -20 39.5t-51 10.5q-38 0 -73 -7t-70 -20v140q45 10 93.5 18.5t97.5 8.5q55 0 101 -13.5t74 -48.5t28 -100v-421h-156l-12 43q-25 -27 -56 -40t-62 -13zM244 122q20 0 36 18v99h-13
q-30 0 -51 -14.5t-21 -43.5q0 -28 15 -43.5t34 -15.5z" />
    <glyph glyph-name="aacute" unicode="&#xe1;" horiz-adv-x="495" 
d="M174 -10q-40 0 -75 20.5t-57 59.5t-22 94q0 86 60.5 130t156.5 44h43v55q0 29 -20 39.5t-51 10.5q-38 0 -73 -7t-70 -20v140q45 10 93.5 18.5t97.5 8.5q55 0 101 -13.5t74 -48.5t28 -100v-421h-156l-12 43q-25 -27 -56 -40t-62 -13zM244 122q20 0 36 18v99h-13
q-30 0 -51 -14.5t-21 -43.5q0 -28 15 -43.5t34 -15.5zM223 755h190l-90 -135h-151z" />
    <glyph glyph-name="abreve" unicode="&#x103;" horiz-adv-x="495" 
d="M174 -10q-40 0 -75 20.5t-57 59.5t-22 94q0 86 60.5 130t156.5 44h43v55q0 29 -20 39.5t-51 10.5q-38 0 -73 -7t-70 -20v140q45 10 93.5 18.5t97.5 8.5q55 0 101 -13.5t74 -48.5t28 -100v-421h-156l-12 43q-25 -27 -56 -40t-62 -13zM244 122q20 0 36 18v99h-13
q-30 0 -51 -14.5t-21 -43.5q0 -28 15 -43.5t34 -15.5zM410 778v-15.5t-1 -15.5q-6 -65 -42 -99.5t-107 -34.5q-82 0 -118.5 41.5t-36.5 123.5h78q15 -48 74 -48q32 0 50 11.5t25 36.5h78z" />
    <glyph glyph-name="uni1EAF" unicode="&#x1eaf;" horiz-adv-x="495" 
d="M174 -10q-40 0 -75 20.5t-57 59.5t-22 94q0 86 60.5 130t156.5 44h43v55q0 29 -20 39.5t-51 10.5q-38 0 -73 -7t-70 -20v140q45 10 93.5 18.5t97.5 8.5q55 0 101 -13.5t74 -48.5t28 -100v-421h-156l-12 43q-25 -27 -56 -40t-62 -13zM244 122q20 0 36 18v99h-13
q-30 0 -51 -14.5t-21 -43.5q0 -28 15 -43.5t34 -15.5zM410 778v-15.5t-1 -15.5q-6 -65 -42 -99.5t-107 -34.5q-82 0 -118.5 41.5t-36.5 123.5h78q15 -48 74 -48q32 0 50 11.5t25 36.5h78zM223 941h190l-90 -135h-151z" />
    <glyph glyph-name="uni1EB7" unicode="&#x1eb7;" horiz-adv-x="495" 
d="M174 -10q-40 0 -75 20.5t-57 59.5t-22 94q0 86 60.5 130t156.5 44h43v55q0 29 -20 39.5t-51 10.5q-38 0 -73 -7t-70 -20v140q45 10 93.5 18.5t97.5 8.5q55 0 101 -13.5t74 -48.5t28 -100v-421h-156l-12 43q-25 -27 -56 -40t-62 -13zM244 122q20 0 36 18v99h-13
q-30 0 -51 -14.5t-21 -43.5q0 -28 15 -43.5t34 -15.5zM175 -46h190v-136h-190v136zM410 778v-15.5t-1 -15.5q-6 -65 -42 -99.5t-107 -34.5q-82 0 -118.5 41.5t-36.5 123.5h78q15 -48 74 -48q32 0 50 11.5t25 36.5h78z" />
    <glyph glyph-name="uni1EB1" unicode="&#x1eb1;" horiz-adv-x="495" 
d="M174 -10q-40 0 -75 20.5t-57 59.5t-22 94q0 86 60.5 130t156.5 44h43v55q0 29 -20 39.5t-51 10.5q-38 0 -73 -7t-70 -20v140q45 10 93.5 18.5t97.5 8.5q55 0 101 -13.5t74 -48.5t28 -100v-421h-156l-12 43q-25 -27 -56 -40t-62 -13zM244 122q20 0 36 18v99h-13
q-30 0 -51 -14.5t-21 -43.5q0 -28 15 -43.5t34 -15.5zM410 778v-15.5t-1 -15.5q-6 -65 -42 -99.5t-107 -34.5q-82 0 -118.5 41.5t-36.5 123.5h78q15 -48 74 -48q32 0 50 11.5t25 36.5h78zM361 806h-151l-90 135h190z" />
    <glyph glyph-name="uni1EB3" unicode="&#x1eb3;" horiz-adv-x="495" 
d="M174 -10q-40 0 -75 20.5t-57 59.5t-22 94q0 86 60.5 130t156.5 44h43v55q0 29 -20 39.5t-51 10.5q-38 0 -73 -7t-70 -20v140q45 10 93.5 18.5t97.5 8.5q55 0 101 -13.5t74 -48.5t28 -100v-421h-156l-12 43q-25 -27 -56 -40t-62 -13zM244 122q20 0 36 18v99h-13
q-30 0 -51 -14.5t-21 -43.5q0 -28 15 -43.5t34 -15.5zM410 778v-15.5t-1 -15.5q-6 -65 -42 -99.5t-107 -34.5q-82 0 -118.5 41.5t-36.5 123.5h78q15 -48 74 -48q32 0 50 11.5t25 36.5h78zM253 794l-43 52q22 11 31 28.5t1.5 31.5t-34.5 14q-15 0 -29.5 -2.5t-22.5 -5.5l7 86
q37 13 79 13q47 0 75 -18.5t38 -47t2 -59t-34 -56t-70 -36.5z" />
    <glyph glyph-name="uni1EB5" unicode="&#x1eb5;" horiz-adv-x="495" 
d="M174 -10q-40 0 -75 20.5t-57 59.5t-22 94q0 86 60.5 130t156.5 44h43v55q0 29 -20 39.5t-51 10.5q-38 0 -73 -7t-70 -20v140q45 10 93.5 18.5t97.5 8.5q55 0 101 -13.5t74 -48.5t28 -100v-421h-156l-12 43q-25 -27 -56 -40t-62 -13zM244 122q20 0 36 18v99h-13
q-30 0 -51 -14.5t-21 -43.5q0 -28 15 -43.5t34 -15.5zM410 778v-15.5t-1 -15.5q-6 -65 -42 -99.5t-107 -34.5q-82 0 -118.5 41.5t-36.5 123.5h78q15 -48 74 -48q32 0 50 11.5t25 36.5h78zM398 946q2 -10 3.5 -20.5t1.5 -20.5q0 -43 -23.5 -72.5t-71.5 -29.5q-20 0 -38 9
t-32.5 17.5t-24.5 8.5q-13 0 -18 -8t-5 -19h-71q-2 11 -3.5 21t-1.5 20q0 44 23.5 73t71.5 29q20 0 38 -8.5t32.5 -17.5t24.5 -9q14 0 18.5 8t4.5 19h71z" />
    <glyph glyph-name="acircumflex" unicode="&#xe2;" horiz-adv-x="495" 
d="M174 -10q-40 0 -75 20.5t-57 59.5t-22 94q0 86 60.5 130t156.5 44h43v55q0 29 -20 39.5t-51 10.5q-38 0 -73 -7t-70 -20v140q45 10 93.5 18.5t97.5 8.5q55 0 101 -13.5t74 -48.5t28 -100v-421h-156l-12 43q-25 -27 -56 -40t-62 -13zM244 122q20 0 36 18v99h-13
q-30 0 -51 -14.5t-21 -43.5q0 -28 15 -43.5t34 -15.5zM197 769h122l109 -149h-131l-39 47l-39 -47h-131z" />
    <glyph glyph-name="uni1EA5" unicode="&#x1ea5;" horiz-adv-x="495" 
d="M174 -10q-40 0 -75 20.5t-57 59.5t-22 94q0 86 60.5 130t156.5 44h43v55q0 29 -20 39.5t-51 10.5q-38 0 -73 -7t-70 -20v140q45 10 93.5 18.5t97.5 8.5q55 0 101 -13.5t74 -48.5t28 -100v-421h-156l-12 43q-25 -27 -56 -40t-62 -13zM244 122q20 0 36 18v99h-13
q-30 0 -51 -14.5t-21 -43.5q0 -28 15 -43.5t34 -15.5zM197 769h122l109 -149h-131l-39 47l-39 -47h-131zM223 941h190l-90 -135h-151z" />
    <glyph glyph-name="uni1EAD" unicode="&#x1ead;" horiz-adv-x="495" 
d="M174 -10q-40 0 -75 20.5t-57 59.5t-22 94q0 86 60.5 130t156.5 44h43v55q0 29 -20 39.5t-51 10.5q-38 0 -73 -7t-70 -20v140q45 10 93.5 18.5t97.5 8.5q55 0 101 -13.5t74 -48.5t28 -100v-421h-156l-12 43q-25 -27 -56 -40t-62 -13zM244 122q20 0 36 18v99h-13
q-30 0 -51 -14.5t-21 -43.5q0 -28 15 -43.5t34 -15.5zM175 -46h190v-136h-190v136zM197 769h122l109 -149h-131l-39 47l-39 -47h-131z" />
    <glyph glyph-name="uni1EA7" unicode="&#x1ea7;" horiz-adv-x="495" 
d="M174 -10q-40 0 -75 20.5t-57 59.5t-22 94q0 86 60.5 130t156.5 44h43v55q0 29 -20 39.5t-51 10.5q-38 0 -73 -7t-70 -20v140q45 10 93.5 18.5t97.5 8.5q55 0 101 -13.5t74 -48.5t28 -100v-421h-156l-12 43q-25 -27 -56 -40t-62 -13zM244 122q20 0 36 18v99h-13
q-30 0 -51 -14.5t-21 -43.5q0 -28 15 -43.5t34 -15.5zM197 769h122l109 -149h-131l-39 47l-39 -47h-131zM361 806h-151l-90 135h190z" />
    <glyph glyph-name="uni1EA9" unicode="&#x1ea9;" horiz-adv-x="495" 
d="M174 -10q-40 0 -75 20.5t-57 59.5t-22 94q0 86 60.5 130t156.5 44h43v55q0 29 -20 39.5t-51 10.5q-38 0 -73 -7t-70 -20v140q45 10 93.5 18.5t97.5 8.5q55 0 101 -13.5t74 -48.5t28 -100v-421h-156l-12 43q-25 -27 -56 -40t-62 -13zM244 122q20 0 36 18v99h-13
q-30 0 -51 -14.5t-21 -43.5q0 -28 15 -43.5t34 -15.5zM197 769h122l109 -149h-131l-39 47l-39 -47h-131zM415 713l-43 52q22 11 31 28.5t1.5 31.5t-34.5 14q-15 0 -29.5 -2.5t-22.5 -5.5l7 86q37 13 79 13q47 0 75 -18.5t38 -47t2 -59t-34 -56t-70 -36.5z" />
    <glyph glyph-name="uni1EAB" unicode="&#x1eab;" horiz-adv-x="495" 
d="M174 -10q-40 0 -75 20.5t-57 59.5t-22 94q0 86 60.5 130t156.5 44h43v55q0 29 -20 39.5t-51 10.5q-38 0 -73 -7t-70 -20v140q45 10 93.5 18.5t97.5 8.5q55 0 101 -13.5t74 -48.5t28 -100v-421h-156l-12 43q-25 -27 -56 -40t-62 -13zM244 122q20 0 36 18v99h-13
q-30 0 -51 -14.5t-21 -43.5q0 -28 15 -43.5t34 -15.5zM197 769h122l109 -149h-131l-39 47l-39 -47h-131zM398 946q2 -10 3.5 -20.5t1.5 -20.5q0 -43 -23.5 -72.5t-71.5 -29.5q-20 0 -38 9t-32.5 17.5t-24.5 8.5q-13 0 -18 -8t-5 -19h-71q-2 11 -3.5 21t-1.5 20q0 44 23.5 73
t71.5 29q20 0 38 -8.5t32.5 -17.5t24.5 -9q14 0 18.5 8t4.5 19h71z" />
    <glyph glyph-name="uni0201" unicode="&#x201;" horiz-adv-x="495" 
d="M174 -10q-40 0 -75 20.5t-57 59.5t-22 94q0 86 60.5 130t156.5 44h43v55q0 29 -20 39.5t-51 10.5q-38 0 -73 -7t-70 -20v140q45 10 93.5 18.5t97.5 8.5q55 0 101 -13.5t74 -48.5t28 -100v-421h-156l-12 43q-25 -27 -56 -40t-62 -13zM244 122q20 0 36 18v99h-13
q-30 0 -51 -14.5t-21 -43.5q0 -28 15 -43.5t34 -15.5zM373 755l51 -135h-151l-90 135h190zM169 755l51 -135h-151l-90 135h190z" />
    <glyph glyph-name="adieresis" unicode="&#xe4;" horiz-adv-x="495" 
d="M174 -10q-40 0 -75 20.5t-57 59.5t-22 94q0 86 60.5 130t156.5 44h43v55q0 29 -20 39.5t-51 10.5q-38 0 -73 -7t-70 -20v140q45 10 93.5 18.5t97.5 8.5q55 0 101 -13.5t74 -48.5t28 -100v-421h-156l-12 43q-25 -27 -56 -40t-62 -13zM244 122q20 0 36 18v99h-13
q-30 0 -51 -14.5t-21 -43.5q0 -28 15 -43.5t34 -15.5zM76 755h160v-136h-160v136zM280 755h160v-136h-160v136z" />
    <glyph glyph-name="uni1EA1" unicode="&#x1ea1;" horiz-adv-x="495" 
d="M174 -10q-40 0 -75 20.5t-57 59.5t-22 94q0 86 60.5 130t156.5 44h43v55q0 29 -20 39.5t-51 10.5q-38 0 -73 -7t-70 -20v140q45 10 93.5 18.5t97.5 8.5q55 0 101 -13.5t74 -48.5t28 -100v-421h-156l-12 43q-25 -27 -56 -40t-62 -13zM244 122q20 0 36 18v99h-13
q-30 0 -51 -14.5t-21 -43.5q0 -28 15 -43.5t34 -15.5zM175 -46h190v-136h-190v136z" />
    <glyph glyph-name="agrave" unicode="&#xe0;" horiz-adv-x="495" 
d="M174 -10q-40 0 -75 20.5t-57 59.5t-22 94q0 86 60.5 130t156.5 44h43v55q0 29 -20 39.5t-51 10.5q-38 0 -73 -7t-70 -20v140q45 10 93.5 18.5t97.5 8.5q55 0 101 -13.5t74 -48.5t28 -100v-421h-156l-12 43q-25 -27 -56 -40t-62 -13zM244 122q20 0 36 18v99h-13
q-30 0 -51 -14.5t-21 -43.5q0 -28 15 -43.5t34 -15.5zM361 620h-151l-90 135h190z" />
    <glyph glyph-name="uni1EA3" unicode="&#x1ea3;" horiz-adv-x="495" 
d="M174 -10q-40 0 -75 20.5t-57 59.5t-22 94q0 86 60.5 130t156.5 44h43v55q0 29 -20 39.5t-51 10.5q-38 0 -73 -7t-70 -20v140q45 10 93.5 18.5t97.5 8.5q55 0 101 -13.5t74 -48.5t28 -100v-421h-156l-12 43q-25 -27 -56 -40t-62 -13zM244 122q20 0 36 18v99h-13
q-30 0 -51 -14.5t-21 -43.5q0 -28 15 -43.5t34 -15.5zM253 608l-43 52q22 11 31 28.5t1.5 31.5t-34.5 14q-15 0 -29.5 -2.5t-22.5 -5.5l7 86q37 13 79 13q47 0 75 -18.5t38 -47t2 -59t-34 -56t-70 -36.5z" />
    <glyph glyph-name="uni0203" unicode="&#x203;" horiz-adv-x="495" 
d="M174 -10q-40 0 -75 20.5t-57 59.5t-22 94q0 86 60.5 130t156.5 44h43v55q0 29 -20 39.5t-51 10.5q-38 0 -73 -7t-70 -20v140q45 10 93.5 18.5t97.5 8.5q55 0 101 -13.5t74 -48.5t28 -100v-421h-156l-12 43q-25 -27 -56 -40t-62 -13zM244 122q20 0 36 18v99h-13
q-30 0 -51 -14.5t-21 -43.5q0 -28 15 -43.5t34 -15.5zM410 613h-78q-7 25 -25 36.5t-50 11.5q-59 0 -74 -48h-78q0 82 36.5 123.5t118.5 41.5q71 0 107 -34.5t42 -99.5q1 -7 1 -15v-16z" />
    <glyph glyph-name="amacron" unicode="&#x101;" horiz-adv-x="495" 
d="M174 -10q-40 0 -75 20.5t-57 59.5t-22 94q0 86 60.5 130t156.5 44h43v55q0 29 -20 39.5t-51 10.5q-38 0 -73 -7t-70 -20v140q45 10 93.5 18.5t97.5 8.5q55 0 101 -13.5t74 -48.5t28 -100v-421h-156l-12 43q-25 -27 -56 -40t-62 -13zM244 122q20 0 36 18v99h-13
q-30 0 -51 -14.5t-21 -43.5q0 -28 15 -43.5t34 -15.5zM110 755h296v-118h-296v118z" />
    <glyph glyph-name="aogonek" unicode="&#x105;" horiz-adv-x="495" 
d="M174 -10q-40 0 -75 20.5t-57 59.5t-22 94q0 86 60.5 130t156.5 44h43v55q0 29 -20 39.5t-51 10.5q-38 0 -73 -7t-70 -20v140q45 10 93.5 18.5t97.5 8.5q55 0 101 -13.5t74 -48.5t28 -100v-421h-156l-12 43q-25 -27 -56 -40t-62 -13zM244 122q20 0 36 18v99h-13
q-30 0 -51 -14.5t-21 -43.5q0 -28 15 -43.5t34 -15.5zM404 -160q-62 0 -90.5 27.5t-25.5 68.5t35 80h94q-19 -52 -8 -75.5t50 -16.5v-77q-13 -3 -27.5 -5t-27.5 -2z" />
    <glyph glyph-name="aring" unicode="&#xe5;" horiz-adv-x="495" 
d="M174 -10q-40 0 -75 20.5t-57 59.5t-22 94q0 86 60.5 130t156.5 44h43v55q0 29 -20 39.5t-51 10.5q-38 0 -73 -7t-70 -20v140q45 10 93.5 18.5t97.5 8.5q55 0 101 -13.5t74 -48.5t28 -100v-421h-156l-12 43q-25 -27 -56 -40t-62 -13zM244 122q20 0 36 18v99h-13
q-30 0 -51 -14.5t-21 -43.5q0 -28 15 -43.5t34 -15.5zM395 702q0 -47 -32.5 -68.5t-103.5 -21.5q-73 0 -106 21.5t-33 68.5q0 50 33 72t106 22q71 0 103.5 -22t32.5 -72zM226 703q0 -19 10 -26.5t23 -7.5q11 0 21 7.5t10 26.5q0 21 -10 28.5t-21 7.5q-13 0 -23 -7.5
t-10 -28.5z" />
    <glyph glyph-name="aringacute" unicode="&#x1fb;" horiz-adv-x="495" 
d="M174 -10q-40 0 -75 20.5t-57 59.5t-22 94q0 86 60.5 130t156.5 44h43v55q0 29 -20 39.5t-51 10.5q-38 0 -73 -7t-70 -20v140q45 10 93.5 18.5t97.5 8.5q55 0 101 -13.5t74 -48.5t28 -100v-421h-156l-12 43q-25 -27 -56 -40t-62 -13zM244 122q20 0 36 18v99h-13
q-30 0 -51 -14.5t-21 -43.5q0 -28 15 -43.5t34 -15.5zM395 702q0 -47 -32.5 -68.5t-103.5 -21.5q-73 0 -106 21.5t-33 68.5q0 50 33 72t106 22q71 0 103.5 -22t32.5 -72zM226 703q0 -19 10 -26.5t23 -7.5q11 0 21 7.5t10 26.5q0 21 -10 28.5t-21 7.5q-13 0 -23 -7.5
t-10 -28.5zM220 878h190l-90 -135h-151z" />
    <glyph glyph-name="atilde" unicode="&#xe3;" horiz-adv-x="495" 
d="M174 -10q-40 0 -75 20.5t-57 59.5t-22 94q0 86 60.5 130t156.5 44h43v55q0 29 -20 39.5t-51 10.5q-38 0 -73 -7t-70 -20v140q45 10 93.5 18.5t97.5 8.5q55 0 101 -13.5t74 -48.5t28 -100v-421h-156l-12 43q-25 -27 -56 -40t-62 -13zM244 122q20 0 36 18v99h-13
q-30 0 -51 -14.5t-21 -43.5q0 -28 15 -43.5t34 -15.5zM398 760q2 -10 3.5 -20.5t1.5 -20.5q0 -43 -23.5 -72.5t-71.5 -29.5q-20 0 -38 9t-32.5 17.5t-24.5 8.5q-13 0 -18 -8t-5 -19h-71q-2 11 -3.5 21t-1.5 20q0 44 23.5 73t71.5 29q20 0 38 -8.5t32.5 -17.5t24.5 -9
q14 0 18.5 8t4.5 19h71z" />
    <glyph glyph-name="ae" unicode="&#xe6;" horiz-adv-x="723" 
d="M174 -10q-40 0 -75 20.5t-57 59.5t-22 94q0 86 60.5 130t156.5 44h43v55q0 29 -22 39.5t-53 10.5q-38 0 -71 -7t-68 -20v140q45 10 93.5 18.5t97.5 8.5q37 0 70 -6t60 -20q49 26 112 26q67 0 108 -21t63 -56t30 -77.5t8 -85.5q0 -28 -3 -57.5t-8 -53.5h-237
q6 -55 31.5 -78.5t89.5 -23.5q22 0 47.5 3.5t54.5 9.5v-136q-46 -9 -95 -13.5t-96.5 -0.5t-89 21.5t-71.5 54.5q-31 -39 -74 -59t-83 -20zM507 451q-22 0 -33.5 -28t-14.5 -80h83q1 21 -1.5 46.5t-10 43.5t-23.5 18zM244 122q20 0 36 18v99h-13q-30 0 -51 -14.5t-21 -43.5
q0 -28 15 -43.5t34 -15.5z" />
    <glyph glyph-name="aeacute" unicode="&#x1fd;" horiz-adv-x="723" 
d="M174 -10q-40 0 -75 20.5t-57 59.5t-22 94q0 86 60.5 130t156.5 44h43v55q0 29 -22 39.5t-53 10.5q-38 0 -71 -7t-68 -20v140q45 10 93.5 18.5t97.5 8.5q37 0 70 -6t60 -20q49 26 112 26q67 0 108 -21t63 -56t30 -77.5t8 -85.5q0 -28 -3 -57.5t-8 -53.5h-237
q6 -55 31.5 -78.5t89.5 -23.5q22 0 47.5 3.5t54.5 9.5v-136q-46 -9 -95 -13.5t-96.5 -0.5t-89 21.5t-71.5 54.5q-31 -39 -74 -59t-83 -20zM507 451q-22 0 -33.5 -28t-14.5 -80h83q1 21 -1.5 46.5t-10 43.5t-23.5 18zM244 122q20 0 36 18v99h-13q-30 0 -51 -14.5t-21 -43.5
q0 -28 15 -43.5t34 -15.5zM352 755h190l-90 -135h-151z" />
    <glyph glyph-name="b" unicode="b" horiz-adv-x="538" 
d="M259 -10q-62 0 -119.5 11.5t-99.5 32.5v695l180 26v-214q22 20 51.5 31t62.5 11q55 0 90.5 -23.5t56 -64.5t29 -92.5t8.5 -108.5q0 -164 -66 -234t-193 -70zM261 130q46 0 58.5 42t12.5 127q0 79 -12 111.5t-45 32.5q-10 0 -24 -4t-31 -13v-290q23 -6 41 -6z" />
    <glyph glyph-name="c" unicode="c" horiz-adv-x="445" 
d="M273 -10q-54 0 -100 14t-80.5 47t-53.5 91t-19 146q0 86 22.5 143t61.5 90t88 47.5t103 14.5q35 0 64 -5t60 -15v-225h-103l-20 104q-45 0 -67.5 -34t-22.5 -122q0 -63 16 -97t45 -46t69 -8.5t87 15.5v-142q-31 -9 -73 -13.5t-77 -4.5z" />
    <glyph glyph-name="cacute" unicode="&#x107;" horiz-adv-x="445" 
d="M273 -10q-54 0 -100 14t-80.5 47t-53.5 91t-19 146q0 86 22.5 143t61.5 90t88 47.5t103 14.5q35 0 64 -5t60 -15v-225h-103l-20 104q-45 0 -67.5 -34t-22.5 -122q0 -63 16 -97t45 -46t69 -8.5t87 15.5v-142q-31 -9 -73 -13.5t-77 -4.5zM259 755h190l-90 -135h-151z" />
    <glyph glyph-name="ccaron" unicode="&#x10d;" horiz-adv-x="445" 
d="M273 -10q-54 0 -100 14t-80.5 47t-53.5 91t-19 146q0 86 22.5 143t61.5 90t88 47.5t103 14.5q35 0 64 -5t60 -15v-225h-103l-20 104q-45 0 -67.5 -34t-22.5 -122q0 -63 16 -97t45 -46t69 -8.5t87 15.5v-142q-31 -9 -73 -13.5t-77 -4.5zM124 769h131l39 -48l39 48h131
l-109 -149h-122z" />
    <glyph glyph-name="ccedilla" unicode="&#xe7;" horiz-adv-x="445" 
d="M273 -10q-54 0 -100 14t-80.5 47t-53.5 91t-19 146q0 86 22.5 143t61.5 90t88 47.5t103 14.5q35 0 64 -5t60 -15v-225h-103l-20 104q-45 0 -67.5 -34t-22.5 -122q0 -63 16 -97t45 -46t69 -8.5t87 15.5v-142q-31 -9 -73 -13.5t-77 -4.5zM323 16q6 -22 8.5 -40.5t2.5 -33.5
q0 -57 -35.5 -79.5t-83.5 -22.5q-16 0 -35.5 1t-41.5 5v82q10 -1 21 -3t21 -2q44 0 44 50q0 18 -6 43h105z" />
    <glyph glyph-name="ccircumflex" unicode="&#x109;" horiz-adv-x="445" 
d="M273 -10q-54 0 -100 14t-80.5 47t-53.5 91t-19 146q0 86 22.5 143t61.5 90t88 47.5t103 14.5q35 0 64 -5t60 -15v-225h-103l-20 104q-45 0 -67.5 -34t-22.5 -122q0 -63 16 -97t45 -46t69 -8.5t87 15.5v-142q-31 -9 -73 -13.5t-77 -4.5zM233 769h122l109 -149h-131l-39 47
l-39 -47h-131z" />
    <glyph glyph-name="cdotaccent" unicode="&#x10b;" horiz-adv-x="445" 
d="M171 755h190v-136h-190v136zM296 442q-45 0 -67.5 -34t-22.5 -122q0 -63 16 -97t45 -46t69 -8.5t87 15.5v-142q-31 -9 -73 -13.5t-77 -4.5q-54 0 -100 14t-80.5 47t-53.5 91t-19 146q0 81 21 137.5t57 91.5t80.5 50.5t91.5 15.5q35 0 76.5 -4.5t72.5 -13.5v-227h-103z
" />
    <glyph glyph-name="d" unicode="d" horiz-adv-x="538" 
d="M204 -10q-55 0 -90.5 23.5t-56 64.5t-29 92.5t-8.5 108.5q0 164 51.5 234t148.5 70q44 0 98 -18v163l180 27v-755h-153l-15 44q-22 -25 -55 -39.5t-71 -14.5zM263 130q11 0 25 4t30 13v290q-22 6 -41 6q-46 0 -58.5 -42t-12.5 -127q0 -79 12 -111.5t45 -32.5z" />
    <glyph glyph-name="dcaron" unicode="&#x10f;" horiz-adv-x="744" 
d="M204 -10q-55 0 -90.5 23.5t-56 64.5t-29 92.5t-8.5 108.5q0 164 51.5 234t148.5 70q44 0 98 -18v163l180 27v-755h-153l-15 44q-22 -25 -55 -39.5t-71 -14.5zM263 130q11 0 25 4t30 13v290q-22 6 -41 6q-46 0 -58.5 -42t-12.5 -127q0 -79 12 -111.5t45 -32.5zM559 763
h165l-60 -155h-136z" />
    <glyph glyph-name="dcroat" unicode="&#x111;" horiz-adv-x="543" 
d="M204 -10q-55 0 -90.5 21.5t-56 58.5t-29 84.5t-8.5 98.5q0 149 51.5 213t148.5 64q23 0 47 -4.5t51 -12.5v103h-79v75h79v37l180 27v-64h45v-75h-45v-616h-153l-15 44q-22 -25 -55 -39.5t-71 -14.5zM263 130q11 0 25 3.5t30 11.5v238q-11 2 -21.5 3.5t-19.5 1.5
q-46 0 -58.5 -34.5t-12.5 -104.5q0 -65 12 -92t45 -27z" />
    <glyph glyph-name="uni01C6" unicode="&#x1c6;" horiz-adv-x="995" 
d="M204 -10q-55 0 -90.5 23.5t-56 64.5t-29 92.5t-8.5 108.5q0 164 51.5 234t148.5 70q44 0 98 -18v163l180 27v-755h-153l-15 44q-22 -25 -55 -39.5t-71 -14.5zM263 130q11 0 25 4t30 13v290q-22 6 -41 6q-46 0 -58.5 -42t-12.5 -127q0 -79 12 -111.5t45 -32.5zM568 110
l172 325h-165v140h381v-106l-174 -329h183v-140h-397v110zM609 769h131l39 -48l39 48h131l-109 -149h-122z" />
    <glyph glyph-name="eth" unicode="&#xf0;" horiz-adv-x="534" 
d="M20 259q0 75 29 130t80 87t115 36q-26 28 -63 55.5t-88 53.5l93 142q35 -18 65.5 -36.5t56.5 -36.5l67 73l92 -83l-65 -70q51 -53 75 -104.5t30.5 -98t6.5 -86.5q0 -117 -22 -190t-78 -107t-157 -34q-127 0 -182 66.5t-55 202.5zM329 282q0 26 -2.5 55.5t-13.5 60.5
q-60 -7 -82.5 -45t-22.5 -92q0 -34 4 -63.5t16.5 -48t38.5 -18.5q29 0 45.5 39t16.5 112z" />
    <glyph glyph-name="e" unicode="e" horiz-adv-x="474" 
d="M284 -10q-59 0 -107.5 13t-83.5 46t-54 91t-19 148q0 146 54.5 220.5t175.5 74.5q110 0 159.5 -60.5t49.5 -179.5q0 -28 -2 -57.5t-7 -53.5h-239q6 -61 34 -81.5t94 -20.5q23 0 47.5 4t47.5 9v-136q-35 -7 -73.5 -12t-76.5 -5zM257 451q-40 0 -47 -108h82q0 22 -1.5 47
t-9 43t-24.5 18z" />
    <glyph glyph-name="eacute" unicode="&#xe9;" horiz-adv-x="474" 
d="M284 -10q-59 0 -107.5 13t-83.5 46t-54 91t-19 148q0 146 54.5 220.5t175.5 74.5q110 0 159.5 -60.5t49.5 -179.5q0 -28 -2 -57.5t-7 -53.5h-239q6 -61 34 -81.5t94 -20.5q23 0 47.5 4t47.5 9v-136q-35 -7 -73.5 -12t-76.5 -5zM257 451q-40 0 -47 -108h82q0 22 -1.5 47
t-9 43t-24.5 18zM215 755h190l-90 -135h-151z" />
    <glyph glyph-name="ebreve" unicode="&#x115;" horiz-adv-x="474" 
d="M284 -10q-59 0 -107.5 13t-83.5 46t-54 91t-19 148q0 146 54.5 220.5t175.5 74.5q110 0 159.5 -60.5t49.5 -179.5q0 -28 -2 -57.5t-7 -53.5h-239q6 -61 34 -81.5t94 -20.5q23 0 47.5 4t47.5 9v-136q-35 -7 -73.5 -12t-76.5 -5zM257 451q-40 0 -47 -108h82q0 22 -1.5 47
t-9 43t-24.5 18zM402 778v-15.5t-1 -15.5q-6 -65 -42 -99.5t-107 -34.5q-82 0 -118.5 41.5t-36.5 123.5h78q15 -48 74 -48q32 0 50 11.5t25 36.5h78z" />
    <glyph glyph-name="ecaron" unicode="&#x11b;" horiz-adv-x="474" 
d="M284 -10q-59 0 -107.5 13t-83.5 46t-54 91t-19 148q0 146 54.5 220.5t175.5 74.5q110 0 159.5 -60.5t49.5 -179.5q0 -28 -2 -57.5t-7 -53.5h-239q6 -61 34 -81.5t94 -20.5q23 0 47.5 4t47.5 9v-136q-35 -7 -73.5 -12t-76.5 -5zM257 451q-40 0 -47 -108h82q0 22 -1.5 47
t-9 43t-24.5 18zM80 769h131l39 -48l39 48h131l-109 -149h-122z" />
    <glyph glyph-name="ecircumflex" unicode="&#xea;" horiz-adv-x="474" 
d="M284 -10q-59 0 -107.5 13t-83.5 46t-54 91t-19 148q0 146 54.5 220.5t175.5 74.5q110 0 159.5 -60.5t49.5 -179.5q0 -28 -2 -57.5t-7 -53.5h-239q6 -61 34 -81.5t94 -20.5q23 0 47.5 4t47.5 9v-136q-35 -7 -73.5 -12t-76.5 -5zM257 451q-40 0 -47 -108h82q0 22 -1.5 47
t-9 43t-24.5 18zM189 769h122l109 -149h-131l-39 47l-39 -47h-131z" />
    <glyph glyph-name="uni1EBF" unicode="&#x1ebf;" horiz-adv-x="474" 
d="M284 -10q-59 0 -107.5 13t-83.5 46t-54 91t-19 148q0 146 54.5 220.5t175.5 74.5q110 0 159.5 -60.5t49.5 -179.5q0 -28 -2 -57.5t-7 -53.5h-239q6 -61 34 -81.5t94 -20.5q23 0 47.5 4t47.5 9v-136q-35 -7 -73.5 -12t-76.5 -5zM257 451q-40 0 -47 -108h82q0 22 -1.5 47
t-9 43t-24.5 18zM189 769h122l109 -149h-131l-39 47l-39 -47h-131zM215 941h190l-90 -135h-151z" />
    <glyph glyph-name="uni1EC7" unicode="&#x1ec7;" horiz-adv-x="474" 
d="M284 -10q-59 0 -107.5 13t-83.5 46t-54 91t-19 148q0 146 54.5 220.5t175.5 74.5q110 0 159.5 -60.5t49.5 -179.5q0 -28 -2 -57.5t-7 -53.5h-239q6 -61 34 -81.5t94 -20.5q23 0 47.5 4t47.5 9v-136q-35 -7 -73.5 -12t-76.5 -5zM257 451q-40 0 -47 -108h82q0 22 -1.5 47
t-9 43t-24.5 18zM188 -46h190v-136h-190v136zM189 769h122l109 -149h-131l-39 47l-39 -47h-131z" />
    <glyph glyph-name="uni1EC1" unicode="&#x1ec1;" horiz-adv-x="474" 
d="M284 -10q-59 0 -107.5 13t-83.5 46t-54 91t-19 148q0 146 54.5 220.5t175.5 74.5q110 0 159.5 -60.5t49.5 -179.5q0 -28 -2 -57.5t-7 -53.5h-239q6 -61 34 -81.5t94 -20.5q23 0 47.5 4t47.5 9v-136q-35 -7 -73.5 -12t-76.5 -5zM257 451q-40 0 -47 -108h82q0 22 -1.5 47
t-9 43t-24.5 18zM189 769h122l109 -149h-131l-39 47l-39 -47h-131zM353 806h-151l-90 135h190z" />
    <glyph glyph-name="uni1EC3" unicode="&#x1ec3;" horiz-adv-x="474" 
d="M284 -10q-59 0 -107.5 13t-83.5 46t-54 91t-19 148q0 146 54.5 220.5t175.5 74.5q110 0 159.5 -60.5t49.5 -179.5q0 -28 -2 -57.5t-7 -53.5h-239q6 -61 34 -81.5t94 -20.5q23 0 47.5 4t47.5 9v-136q-35 -7 -73.5 -12t-76.5 -5zM257 451q-40 0 -47 -108h82q0 22 -1.5 47
t-9 43t-24.5 18zM189 769h122l109 -149h-131l-39 47l-39 -47h-131zM407 713l-43 52q22 11 31 28.5t1.5 31.5t-34.5 14q-15 0 -29.5 -2.5t-22.5 -5.5l7 86q37 13 79 13q47 0 75 -18.5t38 -47t2 -59t-34 -56t-70 -36.5z" />
    <glyph glyph-name="uni1EC5" unicode="&#x1ec5;" horiz-adv-x="474" 
d="M284 -10q-59 0 -107.5 13t-83.5 46t-54 91t-19 148q0 146 54.5 220.5t175.5 74.5q110 0 159.5 -60.5t49.5 -179.5q0 -28 -2 -57.5t-7 -53.5h-239q6 -61 34 -81.5t94 -20.5q23 0 47.5 4t47.5 9v-136q-35 -7 -73.5 -12t-76.5 -5zM257 451q-40 0 -47 -108h82q0 22 -1.5 47
t-9 43t-24.5 18zM189 769h122l109 -149h-131l-39 47l-39 -47h-131zM390 946q2 -10 3.5 -20.5t1.5 -20.5q0 -43 -23.5 -72.5t-71.5 -29.5q-20 0 -38 9t-32.5 17.5t-24.5 8.5q-13 0 -18 -8t-5 -19h-71q-2 11 -3.5 21t-1.5 20q0 44 23.5 73t71.5 29q20 0 38 -8.5t32.5 -17.5
t24.5 -9q14 0 18.5 8t4.5 19h71z" />
    <glyph glyph-name="uni0205" unicode="&#x205;" horiz-adv-x="474" 
d="M284 -10q-59 0 -107.5 13t-83.5 46t-54 91t-19 148q0 146 54.5 220.5t175.5 74.5q110 0 159.5 -60.5t49.5 -179.5q0 -28 -2 -57.5t-7 -53.5h-239q6 -61 34 -81.5t94 -20.5q23 0 47.5 4t47.5 9v-136q-35 -7 -73.5 -12t-76.5 -5zM257 451q-40 0 -47 -108h82q0 22 -1.5 47
t-9 43t-24.5 18zM365 755l51 -135h-151l-90 135h190zM161 755l51 -135h-151l-90 135h190z" />
    <glyph glyph-name="edieresis" unicode="&#xeb;" horiz-adv-x="474" 
d="M284 -10q-59 0 -107.5 13t-83.5 46t-54 91t-19 148q0 146 54.5 220.5t175.5 74.5q110 0 159.5 -60.5t49.5 -179.5q0 -28 -2 -57.5t-7 -53.5h-239q6 -61 34 -81.5t94 -20.5q23 0 47.5 4t47.5 9v-136q-35 -7 -73.5 -12t-76.5 -5zM257 451q-40 0 -47 -108h82q0 22 -1.5 47
t-9 43t-24.5 18zM68 755h160v-136h-160v136zM272 755h160v-136h-160v136z" />
    <glyph glyph-name="edotaccent" unicode="&#x117;" horiz-adv-x="474" 
d="M284 -10q-59 0 -107.5 13t-83.5 46t-54 91t-19 148q0 146 54.5 220.5t175.5 74.5q110 0 159.5 -60.5t49.5 -179.5q0 -28 -2 -57.5t-7 -53.5h-239q6 -61 34 -81.5t94 -20.5q23 0 47.5 4t47.5 9v-136q-35 -7 -73.5 -12t-76.5 -5zM257 451q-40 0 -47 -108h82q0 22 -1.5 47
t-9 43t-24.5 18zM155 755h190v-136h-190v136z" />
    <glyph glyph-name="uni1EB9" unicode="&#x1eb9;" horiz-adv-x="474" 
d="M284 -10q-59 0 -107.5 13t-83.5 46t-54 91t-19 148q0 146 54.5 220.5t175.5 74.5q110 0 159.5 -60.5t49.5 -179.5q0 -28 -2 -57.5t-7 -53.5h-239q6 -61 34 -81.5t94 -20.5q23 0 47.5 4t47.5 9v-136q-35 -7 -73.5 -12t-76.5 -5zM257 451q-40 0 -47 -108h82q0 22 -1.5 47
t-9 43t-24.5 18zM188 -46h190v-136h-190v136z" />
    <glyph glyph-name="egrave" unicode="&#xe8;" horiz-adv-x="474" 
d="M284 -10q-59 0 -107.5 13t-83.5 46t-54 91t-19 148q0 146 54.5 220.5t175.5 74.5q110 0 159.5 -60.5t49.5 -179.5q0 -28 -2 -57.5t-7 -53.5h-239q6 -61 34 -81.5t94 -20.5q23 0 47.5 4t47.5 9v-136q-35 -7 -73.5 -12t-76.5 -5zM257 451q-40 0 -47 -108h82q0 22 -1.5 47
t-9 43t-24.5 18zM353 620h-151l-90 135h190z" />
    <glyph glyph-name="uni1EBB" unicode="&#x1ebb;" horiz-adv-x="474" 
d="M284 -10q-59 0 -107.5 13t-83.5 46t-54 91t-19 148q0 146 54.5 220.5t175.5 74.5q110 0 159.5 -60.5t49.5 -179.5q0 -28 -2 -57.5t-7 -53.5h-239q6 -61 34 -81.5t94 -20.5q23 0 47.5 4t47.5 9v-136q-35 -7 -73.5 -12t-76.5 -5zM257 451q-40 0 -47 -108h82q0 22 -1.5 47
t-9 43t-24.5 18zM245 608l-43 52q22 11 31 28.5t1.5 31.5t-34.5 14q-15 0 -29.5 -2.5t-22.5 -5.5l7 86q37 13 79 13q47 0 75 -18.5t38 -47t2 -59t-34 -56t-70 -36.5z" />
    <glyph glyph-name="uni0207" unicode="&#x207;" horiz-adv-x="474" 
d="M284 -10q-59 0 -107.5 13t-83.5 46t-54 91t-19 148q0 146 54.5 220.5t175.5 74.5q110 0 159.5 -60.5t49.5 -179.5q0 -28 -2 -57.5t-7 -53.5h-239q6 -61 34 -81.5t94 -20.5q23 0 47.5 4t47.5 9v-136q-35 -7 -73.5 -12t-76.5 -5zM257 451q-40 0 -47 -108h82q0 22 -1.5 47
t-9 43t-24.5 18zM402 613h-78q-7 25 -25 36.5t-50 11.5q-59 0 -74 -48h-78q0 82 36.5 123.5t118.5 41.5q71 0 107 -34.5t42 -99.5q1 -7 1 -15v-16z" />
    <glyph glyph-name="emacron" unicode="&#x113;" horiz-adv-x="474" 
d="M284 -10q-59 0 -107.5 13t-83.5 46t-54 91t-19 148q0 146 54.5 220.5t175.5 74.5q110 0 159.5 -60.5t49.5 -179.5q0 -28 -2 -57.5t-7 -53.5h-239q6 -61 34 -81.5t94 -20.5q23 0 47.5 4t47.5 9v-136q-35 -7 -73.5 -12t-76.5 -5zM257 451q-40 0 -47 -108h82q0 22 -1.5 47
t-9 43t-24.5 18zM102 755h296v-118h-296v118z" />
    <glyph glyph-name="eogonek" unicode="&#x119;" horiz-adv-x="474" 
d="M365 -160q-61 0 -90.5 24.5t-29.5 83.5q0 23 11 43q-71 4 -124 30.5t-82.5 90t-29.5 176.5q0 146 54.5 220.5t175.5 74.5q110 0 159.5 -60.5t49.5 -179.5q0 -28 -2 -57.5t-7 -53.5h-241q8 -59 38.5 -80.5t91.5 -21.5q23 0 47.5 4t47.5 9v-136l-35 -7q-19 -4 -31 -11.5
t-12 -33.5t11 -36.5t33 -10.5q20 0 42 5v-67q-22 -4 -41 -5t-36 -1zM211 343h81q0 23 -1.5 48t-8 42.5t-20.5 17.5q-28 0 -38.5 -32t-12.5 -76z" />
    <glyph glyph-name="uni1EBD" unicode="&#x1ebd;" horiz-adv-x="474" 
d="M284 -10q-59 0 -107.5 13t-83.5 46t-54 91t-19 148q0 146 54.5 220.5t175.5 74.5q110 0 159.5 -60.5t49.5 -179.5q0 -28 -2 -57.5t-7 -53.5h-239q6 -61 34 -81.5t94 -20.5q23 0 47.5 4t47.5 9v-136q-35 -7 -73.5 -12t-76.5 -5zM257 451q-40 0 -47 -108h82q0 22 -1.5 47
t-9 43t-24.5 18zM390 760q2 -10 3.5 -20.5t1.5 -20.5q0 -43 -23.5 -72.5t-71.5 -29.5q-20 0 -38 9t-32.5 17.5t-24.5 8.5q-13 0 -18 -8t-5 -19h-71q-2 11 -3.5 21t-1.5 20q0 44 23.5 73t71.5 29q20 0 38 -8.5t32.5 -17.5t24.5 -9q14 0 18.5 8t4.5 19h71z" />
    <glyph glyph-name="uni0259" unicode="&#x259;" horiz-adv-x="474" 
d="M190 583q59 0 107.5 -13t83.5 -46t54 -91t19 -148q0 -146 -54 -220.5t-176 -74.5q-110 0 -159.5 61t-49.5 179q0 29 2.5 58t6.5 53h239q-6 61 -34 81.5t-94 20.5q-23 0 -47.5 -4t-47.5 -9v136q35 7 74 12t76 5zM217 122q40 0 47 108h-82q0 -22 1.5 -47t9 -43t24.5 -18z
" />
    <glyph glyph-name="f" unicode="f" horiz-adv-x="379" 
d="M80 0v440h-60v135h60v26q0 62 24 97t76 50t137 15q20 0 42 -3v-129q-21 3 -39 3q-29 0 -44.5 -10.5t-15.5 -35.5v-13h99v-135h-99v-440h-180z" />
    <glyph glyph-name="g" unicode="g" horiz-adv-x="542" 
d="M281 -160q-41 0 -81 3.5t-66 7l-26 3.5v136q34 -4 62.5 -6.5t59.5 -2.5q44 0 68 16.5t24 53.5v31q-45 -42 -116 -42q-54 0 -89.5 21.5t-55.5 59t-28.5 85t-8.5 99.5q0 150 50.5 214t146.5 64q71 0 115 -47l13 39h153v-505q0 -115 -57.5 -172.5t-163.5 -57.5zM267 170
q11 0 25 3.5t30 11.5v253q-11 2 -21.5 3.5t-19.5 1.5q-46 0 -58.5 -37t-12.5 -111q0 -68 12 -96.5t45 -28.5z" />
    <glyph glyph-name="gbreve" unicode="&#x11f;" horiz-adv-x="542" 
d="M281 -160q-41 0 -81 3.5t-66 7l-26 3.5v136q34 -4 62.5 -6.5t59.5 -2.5q44 0 68 16.5t24 53.5v31q-45 -42 -116 -42q-54 0 -89.5 21.5t-55.5 59t-28.5 85t-8.5 99.5q0 150 50.5 214t146.5 64q71 0 115 -47l13 39h153v-505q0 -115 -57.5 -172.5t-163.5 -57.5zM267 170
q11 0 25 3.5t30 11.5v253q-11 2 -21.5 3.5t-19.5 1.5q-46 0 -58.5 -37t-12.5 -111q0 -68 12 -96.5t45 -28.5zM454 778v-15.5t-1 -15.5q-6 -65 -42 -99.5t-107 -34.5q-82 0 -118.5 41.5t-36.5 123.5h78q15 -48 74 -48q32 0 50 11.5t25 36.5h78z" />
    <glyph glyph-name="gcaron" unicode="&#x1e7;" horiz-adv-x="542" 
d="M281 -160q-41 0 -81 3.5t-66 7l-26 3.5v136q34 -4 62.5 -6.5t59.5 -2.5q44 0 68 16.5t24 53.5v31q-45 -42 -116 -42q-54 0 -89.5 21.5t-55.5 59t-28.5 85t-8.5 99.5q0 150 50.5 214t146.5 64q71 0 115 -47l13 39h153v-505q0 -115 -57.5 -172.5t-163.5 -57.5zM267 170
q11 0 25 3.5t30 11.5v253q-11 2 -21.5 3.5t-19.5 1.5q-46 0 -58.5 -37t-12.5 -111q0 -68 12 -96.5t45 -28.5zM132 769h131l39 -48l39 48h131l-109 -149h-122z" />
    <glyph glyph-name="gcircumflex" unicode="&#x11d;" horiz-adv-x="542" 
d="M281 -160q-41 0 -81 3.5t-66 7l-26 3.5v136q34 -4 62.5 -6.5t59.5 -2.5q44 0 68 16.5t24 53.5v31q-45 -42 -116 -42q-54 0 -89.5 21.5t-55.5 59t-28.5 85t-8.5 99.5q0 150 50.5 214t146.5 64q71 0 115 -47l13 39h153v-505q0 -115 -57.5 -172.5t-163.5 -57.5zM267 170
q11 0 25 3.5t30 11.5v253q-11 2 -21.5 3.5t-19.5 1.5q-46 0 -58.5 -37t-12.5 -111q0 -68 12 -96.5t45 -28.5zM241 769h122l109 -149h-131l-39 47l-39 -47h-131z" />
    <glyph glyph-name="uni0123" unicode="&#x123;" horiz-adv-x="542" 
d="M281 -160q-41 0 -81 3.5t-66 7l-26 3.5v136q34 -4 62.5 -6.5t59.5 -2.5q44 0 68 16.5t24 53.5v31q-45 -42 -116 -42q-54 0 -89.5 21.5t-55.5 59t-28.5 85t-8.5 99.5q0 150 50.5 214t146.5 64q71 0 115 -47l13 39h153v-505q0 -115 -57.5 -172.5t-163.5 -57.5zM267 170
q11 0 25 3.5t30 11.5v253q-11 2 -21.5 3.5t-19.5 1.5q-46 0 -58.5 -37t-12.5 -111q0 -68 12 -96.5t45 -28.5zM407 762l-36 -140h-174l76 140h134z" />
    <glyph glyph-name="gdotaccent" unicode="&#x121;" horiz-adv-x="542" 
d="M281 -160q-41 0 -81 3.5t-66 7l-26 3.5v136q34 -4 62.5 -6.5t59.5 -2.5q44 0 68 16.5t24 53.5v31q-45 -42 -116 -42q-54 0 -89.5 21.5t-55.5 59t-28.5 85t-8.5 99.5q0 150 50.5 214t146.5 64q71 0 115 -47l13 39h153v-505q0 -115 -57.5 -172.5t-163.5 -57.5zM267 170
q11 0 25 3.5t30 11.5v253q-11 2 -21.5 3.5t-19.5 1.5q-46 0 -58.5 -37t-12.5 -111q0 -68 12 -96.5t45 -28.5zM207 755h190v-136h-190v136z" />
    <glyph glyph-name="h" unicode="h" horiz-adv-x="529" 
d="M220 546q54 37 114 37q69 0 114.5 -43t45.5 -129v-411h-180v382q0 61 -55 61q-22 0 -39 -11v-432h-180v729l180 26v-209z" />
    <glyph glyph-name="hbar" unicode="&#x127;" horiz-adv-x="529" 
d="M40 0v616h-35v75h35v38l180 26v-64h89v-75h-89v-100q54 37 114 37q69 0 114.5 -43t45.5 -129v-381h-180v352q0 61 -55 61q-22 0 -39 -11v-402h-180z" />
    <glyph glyph-name="hcircumflex" unicode="&#x125;" horiz-adv-x="529" 
d="M220 546q54 37 114 37q69 0 114.5 -43t45.5 -129v-411h-180v382q0 61 -55 61q-22 0 -39 -11v-432h-180v729l180 26v-209zM-38 791l108 120h122l108 -120h-124l-45 41l-45 -41h-124z" />
    <glyph glyph-name="i" unicode="i" horiz-adv-x="260" 
d="M40 575h180v-575h-180v575zM35 755h190v-136h-190v136z" />
    <glyph glyph-name="dotlessi" unicode="&#x131;" horiz-adv-x="260" 
d="M40 575h180v-575h-180v575z" />
    <glyph glyph-name="iacute" unicode="&#xed;" horiz-adv-x="260" 
d="M40 575h180v-575h-180v575zM95 755h190l-90 -135h-151z" />
    <glyph glyph-name="ibreve" unicode="&#x12d;" horiz-adv-x="260" 
d="M40 575h180v-575h-180v575zM282 778v-15.5t-1 -15.5q-6 -65 -42 -99.5t-107 -34.5q-82 0 -118.5 41.5t-36.5 123.5h78q15 -48 74 -48q32 0 50 11.5t25 36.5h78z" />
    <glyph glyph-name="icircumflex" unicode="&#xee;" horiz-adv-x="260" 
d="M40 575h180v-575h-180v575zM69 769h122l109 -149h-131l-39 47l-39 -47h-131z" />
    <glyph glyph-name="uni0209" unicode="&#x209;" horiz-adv-x="260" 
d="M40 575h180v-575h-180v575zM245 755l51 -135h-151l-90 135h190zM41 755l51 -135h-151l-90 135h190z" />
    <glyph glyph-name="idieresis" unicode="&#xef;" horiz-adv-x="260" 
d="M40 575h180v-575h-180v575zM-52 755h160v-136h-160v136zM152 755h160v-136h-160v136z" />
    <glyph glyph-name="i.loclTRK" horiz-adv-x="260" 
d="M40 575h180v-575h-180v575zM35 755h190v-136h-190v136z" />
    <glyph glyph-name="uni1ECB" unicode="&#x1ecb;" horiz-adv-x="260" 
d="M40 575h180v-575h-180v575zM35 755h190v-136h-190v136zM35 -46h190v-136h-190v136z" />
    <glyph glyph-name="igrave" unicode="&#xec;" horiz-adv-x="260" 
d="M40 575h180v-575h-180v575zM233 620h-151l-90 135h190z" />
    <glyph glyph-name="uni1EC9" unicode="&#x1ec9;" horiz-adv-x="260" 
d="M40 575h180v-575h-180v575zM125 608l-43 52q22 11 31 28.5t1.5 31.5t-34.5 14q-15 0 -29.5 -2.5t-22.5 -5.5l7 86q37 13 79 13q47 0 75 -18.5t38 -47t2 -59t-34 -56t-70 -36.5z" />
    <glyph glyph-name="uni020B" unicode="&#x20b;" horiz-adv-x="260" 
d="M40 575h180v-575h-180v575zM282 613h-78q-7 25 -25 36.5t-50 11.5q-59 0 -74 -48h-78q0 82 36.5 123.5t118.5 41.5q71 0 107 -34.5t42 -99.5q1 -7 1 -15v-16z" />
    <glyph glyph-name="imacron" unicode="&#x12b;" horiz-adv-x="260" 
d="M40 575h180v-575h-180v575zM-18 755h296v-118h-296v118z" />
    <glyph glyph-name="iogonek" unicode="&#x12f;" horiz-adv-x="260" 
d="M40 575h180v-575h-180v575zM35 755h190v-136h-190v136zM163 -160q-62 0 -90.5 27.5t-25.5 68.5t35 80h94q-19 -52 -8 -75.5t50 -16.5v-77q-13 -3 -27.5 -5t-27.5 -2z" />
    <glyph glyph-name="itilde" unicode="&#x129;" horiz-adv-x="260" 
d="M40 575h180v-575h-180v575zM270 760q2 -10 3.5 -20.5t1.5 -20.5q0 -43 -23.5 -72.5t-71.5 -29.5q-20 0 -38 9t-32.5 17.5t-24.5 8.5q-13 0 -18 -8t-5 -19h-71q-2 11 -3.5 21t-1.5 20q0 44 23.5 73t71.5 29q20 0 38 -8.5t32.5 -17.5t24.5 -9q14 0 18.5 8t4.5 19h71z" />
    <glyph glyph-name="j" unicode="j" horiz-adv-x="260" 
d="M40 575h180v-700l-180 -25v725zM35 755h190v-136h-190v136z" />
    <glyph glyph-name="uni0237" unicode="&#x237;" horiz-adv-x="260" 
d="M40 575h180v-700l-180 -25v725z" />
    <glyph glyph-name="jcircumflex" unicode="&#x135;" horiz-adv-x="260" 
d="M40 575h180v-700l-180 -25v725zM69 769h122l109 -149h-131l-39 47l-39 -47h-131z" />
    <glyph glyph-name="k" unicode="k" horiz-adv-x="511" 
d="M220 325l96 250h187l-113 -281l113 -294h-191l-92 258v-258h-180v731l180 24v-430z" />
    <glyph glyph-name="uni0137" unicode="&#x137;" horiz-adv-x="511" 
d="M220 325l96 250h187l-113 -281l113 -294h-191l-92 258v-258h-180v731l180 24v-430zM159 -150l28 113h171l-61 -113h-138z" />
    <glyph glyph-name="kgreenlandic" unicode="&#x138;" horiz-adv-x="511" 
d="M220 325l96 250h187l-113 -281l113 -294h-191l-92 258v-258h-180v575h180v-250z" />
    <glyph glyph-name="l" unicode="l" horiz-adv-x="260" 
d="M220 0h-180v731l180 24v-755z" />
    <glyph glyph-name="lacute" unicode="&#x13a;" horiz-adv-x="260" 
d="M220 0h-180v731l180 24v-755zM98 911h186l-80 -120h-151z" />
    <glyph glyph-name="lcaron" unicode="&#x13e;" horiz-adv-x="466" 
d="M220 0h-180v731l180 24v-755zM281 763h165l-60 -155h-136z" />
    <glyph glyph-name="uni013C" unicode="&#x13c;" horiz-adv-x="260" 
d="M220 0h-180v731l180 24v-755zM24 -150l28 113h171l-61 -113h-138z" />
    <glyph glyph-name="ldot" unicode="&#x140;" horiz-adv-x="546" 
d="M220 0h-180v731l180 24v-755zM308 403h176v-165h-176v165z" />
    <glyph glyph-name="uni01C9" unicode="&#x1c9;" horiz-adv-x="520" 
d="M220 0h-180v731l180 24v-755zM300 575h180v-700l-180 -25v725zM295 755h190v-136h-190v136z" />
    <glyph glyph-name="lslash" unicode="&#x142;" horiz-adv-x="333" 
d="M257 0h-180v305l-80 -31v94l80 31v332l180 24v-299l79 31v-94l-79 -31v-362z" />
    <glyph glyph-name="m" unicode="m" horiz-adv-x="771" 
d="M298 382q0 61 -46 61q-18 0 -32 -11v-432h-180v575h153l13 -39q56 47 122 47q38 0 69 -15t51 -45q32 31 67.5 45.5t71.5 14.5q65 0 107 -43t42 -129v-411h-180v382q0 61 -46 61q-20 0 -33 -10q0 -5 0.5 -11t0.5 -11v-411h-180v382z" />
    <glyph glyph-name="n" unicode="n" horiz-adv-x="529" 
d="M206 536q59 47 128 47t114.5 -43t45.5 -129v-411h-180v382q0 61 -55 61q-22 0 -39 -11v-432h-180v575h153z" />
    <glyph glyph-name="nacute" unicode="&#x144;" horiz-adv-x="529" 
d="M206 536q59 47 128 47t114.5 -43t45.5 -129v-411h-180v382q0 61 -55 61q-22 0 -39 -11v-432h-180v575h153zM235 755h190l-90 -135h-151z" />
    <glyph glyph-name="ncaron" unicode="&#x148;" horiz-adv-x="529" 
d="M206 536q59 47 128 47t114.5 -43t45.5 -129v-411h-180v382q0 61 -55 61q-22 0 -39 -11v-432h-180v575h153zM100 769h131l39 -48l39 48h131l-109 -149h-122z" />
    <glyph glyph-name="uni0146" unicode="&#x146;" horiz-adv-x="529" 
d="M206 536q59 47 128 47t114.5 -43t45.5 -129v-411h-180v382q0 61 -55 61q-22 0 -39 -11v-432h-180v575h153zM164 -150l28 113h171l-61 -113h-138z" />
    <glyph glyph-name="uni01CC" unicode="&#x1cc;" horiz-adv-x="789" 
d="M206 536q59 47 128 47t114.5 -43t45.5 -129v-411h-180v382q0 61 -55 61q-22 0 -39 -11v-432h-180v575h153zM569 575h180v-700l-180 -25v725zM564 755h190v-136h-190v136z" />
    <glyph glyph-name="ntilde" unicode="&#xf1;" horiz-adv-x="529" 
d="M206 536q59 47 128 47t114.5 -43t45.5 -129v-411h-180v382q0 61 -55 61q-22 0 -39 -11v-432h-180v575h153zM410 760q2 -10 3.5 -20.5t1.5 -20.5q0 -43 -23.5 -72.5t-71.5 -29.5q-20 0 -38 9t-32.5 17.5t-24.5 8.5q-13 0 -18 -8t-5 -19h-71q-2 11 -3.5 21t-1.5 20
q0 44 23.5 73t71.5 29q20 0 38 -8.5t32.5 -17.5t24.5 -9q14 0 18.5 8t4.5 19h71z" />
    <glyph glyph-name="eng" unicode="&#x14b;" horiz-adv-x="529" 
d="M314 382q0 61 -55 61q-22 0 -39 -11v-432h-180v575h153l13 -39q59 47 128 47t114.5 -43t45.5 -129v-395q0 -69 -31.5 -107.5t-81.5 -53.5t-108 -15q-10 0 -21 0.5t-22 1.5v74q35 0 59.5 14.5t24.5 51.5v400z" />
    <glyph glyph-name="o" unicode="o" horiz-adv-x="534" 
d="M267 -10q-89 0 -143.5 30t-79 95.5t-24.5 171.5t24.5 171t79 95t143.5 30q90 0 144 -30t78.5 -95t24.5 -171t-24.5 -171.5t-78.5 -95.5t-144 -30zM266 131q34 0 48 36.5t14 118.5q0 83 -14 119.5t-48 36.5q-33 0 -46.5 -36.5t-13.5 -119.5q0 -82 13.5 -118.5t46.5 -36.5z
" />
    <glyph glyph-name="oacute" unicode="&#xf3;" horiz-adv-x="534" 
d="M267 -10q-89 0 -143.5 30t-79 95.5t-24.5 171.5t24.5 171t79 95t143.5 30q90 0 144 -30t78.5 -95t24.5 -171t-24.5 -171.5t-78.5 -95.5t-144 -30zM266 131q34 0 48 36.5t14 118.5q0 83 -14 119.5t-48 36.5q-33 0 -46.5 -36.5t-13.5 -119.5q0 -82 13.5 -118.5t46.5 -36.5z
M232 755h190l-90 -135h-151z" />
    <glyph glyph-name="obreve" unicode="&#x14f;" horiz-adv-x="534" 
d="M267 -10q-89 0 -143.5 30t-79 95.5t-24.5 171.5t24.5 171t79 95t143.5 30q90 0 144 -30t78.5 -95t24.5 -171t-24.5 -171.5t-78.5 -95.5t-144 -30zM266 131q34 0 48 36.5t14 118.5q0 83 -14 119.5t-48 36.5q-33 0 -46.5 -36.5t-13.5 -119.5q0 -82 13.5 -118.5t46.5 -36.5z
M419 778v-15.5t-1 -15.5q-6 -65 -42 -99.5t-107 -34.5q-82 0 -118.5 41.5t-36.5 123.5h78q15 -48 74 -48q32 0 50 11.5t25 36.5h78z" />
    <glyph glyph-name="ocircumflex" unicode="&#xf4;" horiz-adv-x="534" 
d="M267 -10q-89 0 -143.5 30t-79 95.5t-24.5 171.5t24.5 171t79 95t143.5 30q90 0 144 -30t78.5 -95t24.5 -171t-24.5 -171.5t-78.5 -95.5t-144 -30zM266 131q34 0 48 36.5t14 118.5q0 83 -14 119.5t-48 36.5q-33 0 -46.5 -36.5t-13.5 -119.5q0 -82 13.5 -118.5t46.5 -36.5z
M206 769h122l109 -149h-131l-39 47l-39 -47h-131z" />
    <glyph glyph-name="uni1ED1" unicode="&#x1ed1;" horiz-adv-x="534" 
d="M267 -10q-89 0 -143.5 30t-79 95.5t-24.5 171.5t24.5 171t79 95t143.5 30q90 0 144 -30t78.5 -95t24.5 -171t-24.5 -171.5t-78.5 -95.5t-144 -30zM266 131q34 0 48 36.5t14 118.5q0 83 -14 119.5t-48 36.5q-33 0 -46.5 -36.5t-13.5 -119.5q0 -82 13.5 -118.5t46.5 -36.5z
M206 769h122l109 -149h-131l-39 47l-39 -47h-131zM232 941h190l-90 -135h-151z" />
    <glyph glyph-name="uni1ED9" unicode="&#x1ed9;" horiz-adv-x="534" 
d="M267 -10q-89 0 -143.5 30t-79 95.5t-24.5 171.5t24.5 171t79 95t143.5 30q90 0 144 -30t78.5 -95t24.5 -171t-24.5 -171.5t-78.5 -95.5t-144 -30zM266 131q34 0 48 36.5t14 118.5q0 83 -14 119.5t-48 36.5q-33 0 -46.5 -36.5t-13.5 -119.5q0 -82 13.5 -118.5t46.5 -36.5z
M172 -46h190v-136h-190v136zM206 769h122l109 -149h-131l-39 47l-39 -47h-131z" />
    <glyph glyph-name="uni1ED3" unicode="&#x1ed3;" horiz-adv-x="534" 
d="M267 -10q-89 0 -143.5 30t-79 95.5t-24.5 171.5t24.5 171t79 95t143.5 30q90 0 144 -30t78.5 -95t24.5 -171t-24.5 -171.5t-78.5 -95.5t-144 -30zM266 131q34 0 48 36.5t14 118.5q0 83 -14 119.5t-48 36.5q-33 0 -46.5 -36.5t-13.5 -119.5q0 -82 13.5 -118.5t46.5 -36.5z
M206 769h122l109 -149h-131l-39 47l-39 -47h-131zM370 806h-151l-90 135h190z" />
    <glyph glyph-name="uni1ED5" unicode="&#x1ed5;" horiz-adv-x="534" 
d="M267 -10q-89 0 -143.5 30t-79 95.5t-24.5 171.5t24.5 171t79 95t143.5 30q90 0 144 -30t78.5 -95t24.5 -171t-24.5 -171.5t-78.5 -95.5t-144 -30zM266 131q34 0 48 36.5t14 118.5q0 83 -14 119.5t-48 36.5q-33 0 -46.5 -36.5t-13.5 -119.5q0 -82 13.5 -118.5t46.5 -36.5z
M206 769h122l109 -149h-131l-39 47l-39 -47h-131zM424 713l-43 52q22 11 31 28.5t1.5 31.5t-34.5 14q-15 0 -29.5 -2.5t-22.5 -5.5l7 86q37 13 79 13q47 0 75 -18.5t38 -47t2 -59t-34 -56t-70 -36.5z" />
    <glyph glyph-name="uni1ED7" unicode="&#x1ed7;" horiz-adv-x="534" 
d="M267 -10q-89 0 -143.5 30t-79 95.5t-24.5 171.5t24.5 171t79 95t143.5 30q90 0 144 -30t78.5 -95t24.5 -171t-24.5 -171.5t-78.5 -95.5t-144 -30zM266 131q34 0 48 36.5t14 118.5q0 83 -14 119.5t-48 36.5q-33 0 -46.5 -36.5t-13.5 -119.5q0 -82 13.5 -118.5t46.5 -36.5z
M206 769h122l109 -149h-131l-39 47l-39 -47h-131zM407 946q2 -10 3.5 -20.5t1.5 -20.5q0 -43 -23.5 -72.5t-71.5 -29.5q-20 0 -38 9t-32.5 17.5t-24.5 8.5q-13 0 -18 -8t-5 -19h-71q-2 11 -3.5 21t-1.5 20q0 44 23.5 73t71.5 29q20 0 38 -8.5t32.5 -17.5t24.5 -9
q14 0 18.5 8t4.5 19h71z" />
    <glyph glyph-name="uni020D" unicode="&#x20d;" horiz-adv-x="534" 
d="M267 -10q-89 0 -143.5 30t-79 95.5t-24.5 171.5t24.5 171t79 95t143.5 30q90 0 144 -30t78.5 -95t24.5 -171t-24.5 -171.5t-78.5 -95.5t-144 -30zM266 131q34 0 48 36.5t14 118.5q0 83 -14 119.5t-48 36.5q-33 0 -46.5 -36.5t-13.5 -119.5q0 -82 13.5 -118.5t46.5 -36.5z
M382 755l51 -135h-151l-90 135h190zM178 755l51 -135h-151l-90 135h190z" />
    <glyph glyph-name="odieresis" unicode="&#xf6;" horiz-adv-x="534" 
d="M267 -10q-89 0 -143.5 30t-79 95.5t-24.5 171.5t24.5 171t79 95t143.5 30q90 0 144 -30t78.5 -95t24.5 -171t-24.5 -171.5t-78.5 -95.5t-144 -30zM266 131q34 0 48 36.5t14 118.5q0 83 -14 119.5t-48 36.5q-33 0 -46.5 -36.5t-13.5 -119.5q0 -82 13.5 -118.5t46.5 -36.5z
M85 755h160v-136h-160v136zM289 755h160v-136h-160v136z" />
    <glyph glyph-name="uni022B" unicode="&#x22b;" horiz-adv-x="534" 
d="M267 -10q-89 0 -143.5 30t-79 95.5t-24.5 171.5t24.5 171t79 95t143.5 30q90 0 144 -30t78.5 -95t24.5 -171t-24.5 -171.5t-78.5 -95.5t-144 -30zM266 131q34 0 48 36.5t14 118.5q0 83 -14 119.5t-48 36.5q-33 0 -46.5 -36.5t-13.5 -119.5q0 -82 13.5 -118.5t46.5 -36.5z
M85 755h160v-136h-160v136zM289 755h160v-136h-160v136zM119 924h296v-118h-296v118z" />
    <glyph glyph-name="uni0231" unicode="&#x231;" horiz-adv-x="534" 
d="M267 -10q-89 0 -143.5 30t-79 95.5t-24.5 171.5t24.5 171t79 95t143.5 30q90 0 144 -30t78.5 -95t24.5 -171t-24.5 -171.5t-78.5 -95.5t-144 -30zM266 131q34 0 48 36.5t14 118.5q0 83 -14 119.5t-48 36.5q-33 0 -46.5 -36.5t-13.5 -119.5q0 -82 13.5 -118.5t46.5 -36.5z
M172 755h190v-136h-190v136zM119 924h296v-118h-296v118z" />
    <glyph glyph-name="uni1ECD" unicode="&#x1ecd;" horiz-adv-x="534" 
d="M267 -10q-89 0 -143.5 30t-79 95.5t-24.5 171.5t24.5 171t79 95t143.5 30q90 0 144 -30t78.5 -95t24.5 -171t-24.5 -171.5t-78.5 -95.5t-144 -30zM266 131q34 0 48 36.5t14 118.5q0 83 -14 119.5t-48 36.5q-33 0 -46.5 -36.5t-13.5 -119.5q0 -82 13.5 -118.5t46.5 -36.5z
M172 -46h190v-136h-190v136z" />
    <glyph glyph-name="ograve" unicode="&#xf2;" horiz-adv-x="534" 
d="M267 -10q-89 0 -143.5 30t-79 95.5t-24.5 171.5t24.5 171t79 95t143.5 30q90 0 144 -30t78.5 -95t24.5 -171t-24.5 -171.5t-78.5 -95.5t-144 -30zM266 131q34 0 48 36.5t14 118.5q0 83 -14 119.5t-48 36.5q-33 0 -46.5 -36.5t-13.5 -119.5q0 -82 13.5 -118.5t46.5 -36.5z
M370 620h-151l-90 135h190z" />
    <glyph glyph-name="uni1ECF" unicode="&#x1ecf;" horiz-adv-x="534" 
d="M267 -10q-89 0 -143.5 30t-79 95.5t-24.5 171.5t24.5 171t79 95t143.5 30q90 0 144 -30t78.5 -95t24.5 -171t-24.5 -171.5t-78.5 -95.5t-144 -30zM266 131q34 0 48 36.5t14 118.5q0 83 -14 119.5t-48 36.5q-33 0 -46.5 -36.5t-13.5 -119.5q0 -82 13.5 -118.5t46.5 -36.5z
M262 608l-43 52q22 11 31 28.5t1.5 31.5t-34.5 14q-15 0 -29.5 -2.5t-22.5 -5.5l7 86q37 13 79 13q47 0 75 -18.5t38 -47t2 -59t-34 -56t-70 -36.5z" />
    <glyph glyph-name="ohorn" unicode="&#x1a1;" horiz-adv-x="534" 
d="M463 644v72h152v-69q0 -103 -27.5 -148t-93.5 -54q11 -31 15.5 -70.5t4.5 -87.5q0 -106 -24.5 -171.5t-78.5 -95.5t-144 -30q-89 0 -143.5 30t-79 95.5t-24.5 171.5t24.5 171t79 95t143.5 30h147q49 0 49 61zM266 131q34 0 48 36.5t14 118.5q0 83 -14 119.5t-48 36.5
q-33 0 -46.5 -36.5t-13.5 -119.5q0 -82 13.5 -118.5t46.5 -36.5z" />
    <glyph glyph-name="uni1EDB" unicode="&#x1edb;" horiz-adv-x="534" 
d="M463 644v72h152v-69q0 -103 -27.5 -148t-93.5 -54q11 -31 15.5 -70.5t4.5 -87.5q0 -106 -24.5 -171.5t-78.5 -95.5t-144 -30q-89 0 -143.5 30t-79 95.5t-24.5 171.5t24.5 171t79 95t143.5 30h147q49 0 49 61zM266 131q34 0 48 36.5t14 118.5q0 83 -14 119.5t-48 36.5
q-33 0 -46.5 -36.5t-13.5 -119.5q0 -82 13.5 -118.5t46.5 -36.5zM232 755h190l-90 -135h-151z" />
    <glyph glyph-name="uni1EE3" unicode="&#x1ee3;" horiz-adv-x="534" 
d="M463 644v72h152v-69q0 -103 -27.5 -148t-93.5 -54q11 -31 15.5 -70.5t4.5 -87.5q0 -106 -24.5 -171.5t-78.5 -95.5t-144 -30q-89 0 -143.5 30t-79 95.5t-24.5 171.5t24.5 171t79 95t143.5 30h147q49 0 49 61zM266 131q34 0 48 36.5t14 118.5q0 83 -14 119.5t-48 36.5
q-33 0 -46.5 -36.5t-13.5 -119.5q0 -82 13.5 -118.5t46.5 -36.5zM172 -46h190v-136h-190v136z" />
    <glyph glyph-name="uni1EDD" unicode="&#x1edd;" horiz-adv-x="534" 
d="M463 644v72h152v-69q0 -103 -27.5 -148t-93.5 -54q11 -31 15.5 -70.5t4.5 -87.5q0 -106 -24.5 -171.5t-78.5 -95.5t-144 -30q-89 0 -143.5 30t-79 95.5t-24.5 171.5t24.5 171t79 95t143.5 30h147q49 0 49 61zM266 131q34 0 48 36.5t14 118.5q0 83 -14 119.5t-48 36.5
q-33 0 -46.5 -36.5t-13.5 -119.5q0 -82 13.5 -118.5t46.5 -36.5zM370 620h-151l-90 135h190z" />
    <glyph glyph-name="uni1EDF" unicode="&#x1edf;" horiz-adv-x="534" 
d="M463 644v72h152v-69q0 -103 -27.5 -148t-93.5 -54q11 -31 15.5 -70.5t4.5 -87.5q0 -106 -24.5 -171.5t-78.5 -95.5t-144 -30q-89 0 -143.5 30t-79 95.5t-24.5 171.5t24.5 171t79 95t143.5 30h147q49 0 49 61zM266 131q34 0 48 36.5t14 118.5q0 83 -14 119.5t-48 36.5
q-33 0 -46.5 -36.5t-13.5 -119.5q0 -82 13.5 -118.5t46.5 -36.5zM262 608l-43 52q22 11 31 28.5t1.5 31.5t-34.5 14q-15 0 -29.5 -2.5t-22.5 -5.5l7 86q37 13 79 13q47 0 75 -18.5t38 -47t2 -59t-34 -56t-70 -36.5z" />
    <glyph glyph-name="uni1EE1" unicode="&#x1ee1;" horiz-adv-x="534" 
d="M463 644v72h152v-69q0 -103 -27.5 -148t-93.5 -54q11 -31 15.5 -70.5t4.5 -87.5q0 -106 -24.5 -171.5t-78.5 -95.5t-144 -30q-89 0 -143.5 30t-79 95.5t-24.5 171.5t24.5 171t79 95t143.5 30h147q49 0 49 61zM266 131q34 0 48 36.5t14 118.5q0 83 -14 119.5t-48 36.5
q-33 0 -46.5 -36.5t-13.5 -119.5q0 -82 13.5 -118.5t46.5 -36.5zM407 760q2 -10 3.5 -20.5t1.5 -20.5q0 -43 -23.5 -72.5t-71.5 -29.5q-20 0 -38 9t-32.5 17.5t-24.5 8.5q-13 0 -18 -8t-5 -19h-71q-2 11 -3.5 21t-1.5 20q0 44 23.5 73t71.5 29q20 0 38 -8.5t32.5 -17.5
t24.5 -9q14 0 18.5 8t4.5 19h71z" />
    <glyph glyph-name="ohungarumlaut" unicode="&#x151;" horiz-adv-x="534" 
d="M267 -10q-89 0 -143.5 30t-79 95.5t-24.5 171.5t24.5 171t79 95t143.5 30q90 0 144 -30t78.5 -95t24.5 -171t-24.5 -171.5t-78.5 -95.5t-144 -30zM266 131q34 0 48 36.5t14 118.5q0 83 -14 119.5t-48 36.5q-33 0 -46.5 -36.5t-13.5 -119.5q0 -82 13.5 -118.5t46.5 -36.5z
M131 755h190l-90 -135h-151zM335 755h190l-90 -135h-151z" />
    <glyph glyph-name="uni020F" unicode="&#x20f;" horiz-adv-x="534" 
d="M267 -10q-89 0 -143.5 30t-79 95.5t-24.5 171.5t24.5 171t79 95t143.5 30q90 0 144 -30t78.5 -95t24.5 -171t-24.5 -171.5t-78.5 -95.5t-144 -30zM266 131q34 0 48 36.5t14 118.5q0 83 -14 119.5t-48 36.5q-33 0 -46.5 -36.5t-13.5 -119.5q0 -82 13.5 -118.5t46.5 -36.5z
M419 613h-78q-7 25 -25 36.5t-50 11.5q-59 0 -74 -48h-78q0 82 36.5 123.5t118.5 41.5q71 0 107 -34.5t42 -99.5q1 -7 1 -15v-16z" />
    <glyph glyph-name="omacron" unicode="&#x14d;" horiz-adv-x="534" 
d="M267 -10q-89 0 -143.5 30t-79 95.5t-24.5 171.5t24.5 171t79 95t143.5 30q90 0 144 -30t78.5 -95t24.5 -171t-24.5 -171.5t-78.5 -95.5t-144 -30zM266 131q34 0 48 36.5t14 118.5q0 83 -14 119.5t-48 36.5q-33 0 -46.5 -36.5t-13.5 -119.5q0 -82 13.5 -118.5t46.5 -36.5z
M119 755h296v-118h-296v118z" />
    <glyph glyph-name="uni01EB" unicode="&#x1eb;" horiz-adv-x="534" 
d="M267 -10q-89 0 -143.5 30t-79 95.5t-24.5 171.5t24.5 171t79 95t143.5 30q90 0 144 -30t78.5 -95t24.5 -171t-24.5 -171.5t-78.5 -95.5t-144 -30zM266 131q34 0 48 36.5t14 118.5q0 83 -14 119.5t-48 36.5q-33 0 -46.5 -36.5t-13.5 -119.5q0 -82 13.5 -118.5t46.5 -36.5z
M335 -160q-62 0 -90.5 27.5t-25.5 68.5t35 80h94q-19 -52 -8 -75.5t50 -16.5v-77q-13 -3 -27.5 -5t-27.5 -2z" />
    <glyph glyph-name="oslash" unicode="&#xf8;" horiz-adv-x="534" 
d="M108 -85l-72 41l52 91q-36 35 -52 94t-16 146q0 106 24.5 171t79 95t143.5 30q67 0 114 -16l44 78l71 -41l-46 -82q34 -35 49 -93t15 -142q0 -106 -24.5 -171.5t-78.5 -95.5t-144 -30q-64 0 -109 15zM206 286q0 -18 1 -33l88 180q-11 9 -29 9q-33 0 -46.5 -36.5
t-13.5 -119.5zM266 131q34 0 48 36.5t14 118.5v26l-87 -174q11 -7 25 -7z" />
    <glyph glyph-name="oslashacute" unicode="&#x1ff;" horiz-adv-x="534" 
d="M108 -85l-72 41l52 91q-36 35 -52 94t-16 146q0 106 24.5 171t79 95t143.5 30q67 0 114 -16l44 78l71 -41l-46 -82q34 -35 49 -93t15 -142q0 -106 -24.5 -171.5t-78.5 -95.5t-144 -30q-64 0 -109 15zM206 286q0 -18 1 -33l88 180q-11 9 -29 9q-33 0 -46.5 -36.5
t-13.5 -119.5zM266 131q34 0 48 36.5t14 118.5v26l-87 -174q11 -7 25 -7zM232 755h190l-90 -135h-151z" />
    <glyph glyph-name="otilde" unicode="&#xf5;" horiz-adv-x="534" 
d="M267 -10q-89 0 -143.5 30t-79 95.5t-24.5 171.5t24.5 171t79 95t143.5 30q90 0 144 -30t78.5 -95t24.5 -171t-24.5 -171.5t-78.5 -95.5t-144 -30zM266 131q34 0 48 36.5t14 118.5q0 83 -14 119.5t-48 36.5q-33 0 -46.5 -36.5t-13.5 -119.5q0 -82 13.5 -118.5t46.5 -36.5z
M407 760q2 -10 3.5 -20.5t1.5 -20.5q0 -43 -23.5 -72.5t-71.5 -29.5q-20 0 -38 9t-32.5 17.5t-24.5 8.5q-13 0 -18 -8t-5 -19h-71q-2 11 -3.5 21t-1.5 20q0 44 23.5 73t71.5 29q20 0 38 -8.5t32.5 -17.5t24.5 -9q14 0 18.5 8t4.5 19h71z" />
    <glyph glyph-name="uni022D" unicode="&#x22d;" horiz-adv-x="534" 
d="M267 -10q-89 0 -143.5 30t-79 95.5t-24.5 171.5t24.5 171t79 95t143.5 30q90 0 144 -30t78.5 -95t24.5 -171t-24.5 -171.5t-78.5 -95.5t-144 -30zM266 131q34 0 48 36.5t14 118.5q0 83 -14 119.5t-48 36.5q-33 0 -46.5 -36.5t-13.5 -119.5q0 -82 13.5 -118.5t46.5 -36.5z
M407 760q2 -10 3.5 -20.5t1.5 -20.5q0 -43 -23.5 -72.5t-71.5 -29.5q-20 0 -38 9t-32.5 17.5t-24.5 8.5q-13 0 -18 -8t-5 -19h-71q-2 11 -3.5 21t-1.5 20q0 44 23.5 73t71.5 29q20 0 38 -8.5t32.5 -17.5t24.5 -9q14 0 18.5 8t4.5 19h71zM119 924h296v-118h-296v118z" />
    <glyph glyph-name="oe" unicode="&#x153;" horiz-adv-x="761" 
d="M267 -11q-83 0 -138 27t-82 92.5t-27 178.5t27 177.5t82 91.5t138 27q47 0 83 -7.5t63 -26.5q53 34 124 34q67 0 108 -21t63 -56t30 -77.5t8 -85.5q0 -28 -3 -57.5t-8 -53.5h-236q6 -58 31 -80t81 -22q22 0 49.5 3.5t60.5 9.5v-136q-34 -7 -70.5 -12t-73.5 -5
q-46 0 -89 10.5t-76 38.5q-53 -50 -145 -50zM546 451q-17 0 -30.5 -21t-18.5 -87h82q0 20 -2 45.5t-9 44t-22 18.5zM267 131q32 0 46.5 33.5t14.5 121.5q0 89 -14.5 122.5t-46.5 33.5t-46.5 -33.5t-14.5 -121.5t14.5 -122t46.5 -34z" />
    <glyph glyph-name="p" unicode="p" horiz-adv-x="538" 
d="M40 -150v725h153l15 -46q23 26 55.5 40t70.5 14q55 0 90.5 -23.5t56 -64.5t29 -92.5t8.5 -108.5q0 -164 -51 -234t-149 -70q-44 0 -98 18v-132zM261 130q46 0 58.5 42t12.5 127q0 79 -12 111.5t-45 32.5q-10 0 -24 -4t-31 -13v-290q23 -6 41 -6z" />
    <glyph glyph-name="thorn" unicode="&#xfe;" horiz-adv-x="538" 
d="M220 755v-214q22 20 51.5 31t62.5 11q55 0 90.5 -23.5t56 -64.5t29 -92.5t8.5 -108.5q0 -164 -51 -234t-149 -70q-44 0 -98 18v-132l-180 -26v881zM220 136q23 -6 41 -6q46 0 58.5 42t12.5 127q0 79 -12 111.5t-45 32.5q-10 0 -24 -4t-31 -13v-290z" />
    <glyph glyph-name="q" unicode="q" horiz-adv-x="538" 
d="M318 -182v214q-22 -19 -51.5 -30.5t-62.5 -11.5q-55 0 -90.5 23.5t-56 64.5t-29 92.5t-8.5 108.5q0 164 66 234t193 70q62 0 119.5 -11.5t99.5 -32.5v-695zM263 130q11 0 25 4t30 13v290q-22 6 -41 6q-46 0 -58.5 -42t-12.5 -127q0 -79 12 -111.5t45 -32.5z" />
    <glyph glyph-name="r" unicode="r" horiz-adv-x="389" 
d="M40 0v575h153l20 -80h2q16 50 56.5 73t102.5 12v-170q-39 0 -80.5 -5t-73.5 -14v-391h-180z" />
    <glyph glyph-name="racute" unicode="&#x155;" horiz-adv-x="389" 
d="M40 0v575h153l20 -80h2q16 50 56.5 73t102.5 12v-170q-39 0 -80.5 -5t-73.5 -14v-391h-180zM185 755h190l-90 -135h-151z" />
    <glyph glyph-name="rcaron" unicode="&#x159;" horiz-adv-x="389" 
d="M40 0v575h153l20 -80h2q16 50 56.5 73t102.5 12v-170q-39 0 -80.5 -5t-73.5 -14v-391h-180zM50 769h131l39 -48l39 48h131l-109 -149h-122z" />
    <glyph glyph-name="uni0157" unicode="&#x157;" horiz-adv-x="389" 
d="M40 0v575h153l20 -80h2q16 50 56.5 73t102.5 12v-170q-39 0 -80.5 -5t-73.5 -14v-391h-180zM18 -150l28 113h171l-61 -113h-138z" />
    <glyph glyph-name="uni0211" unicode="&#x211;" horiz-adv-x="389" 
d="M40 0v575h153l20 -80h2q16 50 56.5 73t102.5 12v-170q-39 0 -80.5 -5t-73.5 -14v-391h-180zM335 755l51 -135h-151l-90 135h190zM131 755l51 -135h-151l-90 135h190z" />
    <glyph glyph-name="uni0213" unicode="&#x213;" horiz-adv-x="389" 
d="M40 0v575h153l20 -80h2q16 50 56.5 73t102.5 12v-170q-39 0 -80.5 -5t-73.5 -14v-391h-180zM372 613h-78q-7 25 -25 36.5t-50 11.5q-59 0 -74 -48h-78q0 82 36.5 123.5t118.5 41.5q71 0 107 -34.5t42 -99.5q1 -7 1 -15v-16z" />
    <glyph glyph-name="s" unicode="s" horiz-adv-x="429" 
d="M225 168q0 17 -25 33l-86 56q-47 31 -68 67t-21 94q0 83 49 123.5t161 41.5q42 0 77.5 -3.5t57 -7.5l21.5 -4l-15 -133l-15 2t-38.5 4.5t-48.5 2.5q-36 0 -52 -6t-16 -23q0 -10 6 -16.5t19 -14.5l88 -57q48 -31 69 -66.5t21 -91.5q0 -89 -51 -133.5t-167 -45.5
q-51 0 -93.5 5.5t-77.5 14.5l15 136l37 -5.5t98 -5.5q55 0 55 33z" />
    <glyph glyph-name="sacute" unicode="&#x15b;" horiz-adv-x="429" 
d="M225 168q0 17 -25 33l-86 56q-47 31 -68 67t-21 94q0 83 49 123.5t161 41.5q42 0 77.5 -3.5t57 -7.5l21.5 -4l-15 -133l-15 2t-38.5 4.5t-48.5 2.5q-36 0 -52 -6t-16 -23q0 -10 6 -16.5t19 -14.5l88 -57q48 -31 69 -66.5t21 -91.5q0 -89 -51 -133.5t-167 -45.5
q-51 0 -93.5 5.5t-77.5 14.5l15 136l37 -5.5t98 -5.5q55 0 55 33zM200 755h190l-90 -135h-151z" />
    <glyph glyph-name="scaron" unicode="&#x161;" horiz-adv-x="429" 
d="M225 168q0 17 -25 33l-86 56q-47 31 -68 67t-21 94q0 83 49 123.5t161 41.5q42 0 77.5 -3.5t57 -7.5l21.5 -4l-15 -133l-15 2t-38.5 4.5t-48.5 2.5q-36 0 -52 -6t-16 -23q0 -10 6 -16.5t19 -14.5l88 -57q48 -31 69 -66.5t21 -91.5q0 -89 -51 -133.5t-167 -45.5
q-51 0 -93.5 5.5t-77.5 14.5l15 136l37 -5.5t98 -5.5q55 0 55 33zM65 769h131l39 -48l39 48h131l-109 -149h-122z" />
    <glyph glyph-name="scedilla" unicode="&#x15f;" horiz-adv-x="429" 
d="M225 168q0 17 -25 33l-86 56q-47 31 -68 67t-21 94q0 83 49 123.5t161 41.5q42 0 77.5 -3.5t57 -7.5l21.5 -4l-15 -133l-15 2t-38.5 4.5t-48.5 2.5q-36 0 -52 -6t-16 -23q0 -10 6 -16.5t19 -14.5l88 -57q48 -31 69 -66.5t21 -91.5q0 -89 -51 -133.5t-167 -45.5
q-51 0 -93.5 5.5t-77.5 14.5l15 136l37 -5.5t98 -5.5q55 0 55 33zM248 16q6 -22 8.5 -40.5t2.5 -33.5q0 -57 -35.5 -79.5t-83.5 -22.5q-16 0 -35.5 1t-41.5 5v82q10 -1 21 -3t21 -2q44 0 44 50q0 18 -6 43h105z" />
    <glyph glyph-name="scircumflex" unicode="&#x15d;" horiz-adv-x="429" 
d="M225 168q0 17 -25 33l-86 56q-47 31 -68 67t-21 94q0 83 49 123.5t161 41.5q42 0 77.5 -3.5t57 -7.5l21.5 -4l-15 -133l-15 2t-38.5 4.5t-48.5 2.5q-36 0 -52 -6t-16 -23q0 -10 6 -16.5t19 -14.5l88 -57q48 -31 69 -66.5t21 -91.5q0 -89 -51 -133.5t-167 -45.5
q-51 0 -93.5 5.5t-77.5 14.5l15 136l37 -5.5t98 -5.5q55 0 55 33zM174 769h122l109 -149h-131l-39 47l-39 -47h-131z" />
    <glyph glyph-name="uni0219" unicode="&#x219;" horiz-adv-x="429" 
d="M225 168q0 17 -25 33l-86 56q-47 31 -68 67t-21 94q0 83 49 123.5t161 41.5q42 0 77.5 -3.5t57 -7.5l21.5 -4l-15 -133l-15 2t-38.5 4.5t-48.5 2.5q-36 0 -52 -6t-16 -23q0 -10 6 -16.5t19 -14.5l88 -57q48 -31 69 -66.5t21 -91.5q0 -89 -51 -133.5t-167 -45.5
q-51 0 -93.5 5.5t-77.5 14.5l15 136l37 -5.5t98 -5.5q55 0 55 33zM85 -150l28 113h171l-61 -113h-138z" />
    <glyph glyph-name="germandbls" unicode="&#xdf;" horiz-adv-x="670" 
d="M266 418q0 37 14.5 59t36 35t42.5 23q25 12 43 24.5t18 35.5q0 24 -26 34.5t-75 10.5q-55 0 -77 -23.5t-22 -70.5v-546h-180v560q0 102 64.5 152.5t219.5 50.5q151 0 218 -42.5t67 -127.5q0 -47 -19.5 -75t-47 -43.5t-51.5 -25.5q-19 -8 -31.5 -15t-12.5 -17
q0 -17 25 -33l88 -57q48 -31 69 -66.5t21 -91.5q0 -89 -51 -133.5t-167 -45.5q-51 0 -93.5 5.5t-77.5 14.5l15 136l37 -5.5t98 -5.5q55 0 55 33q0 17 -25 33l-86 56q-47 31 -68 67t-21 94z" />
    <glyph glyph-name="t" unicode="t" horiz-adv-x="394" 
d="M265 575h109v-135h-109v-249q0 -28 14.5 -41t46.5 -13q16 0 28 1.5t20 3.5v-133q-24 -8 -50.5 -13.5t-53.5 -5.5q-92 0 -138.5 39.5t-46.5 141.5v269h-75v135h75v126h180v-126z" />
    <glyph glyph-name="tbar" unicode="&#x167;" horiz-adv-x="394" 
d="M10 281v95h75v64h-75v135h75v126h180v-126h109v-135h-109v-64h108v-95h-108v-90q0 -28 14.5 -41t46.5 -13q16 0 28 1.5t20 3.5v-133q-24 -8 -50.5 -13.5t-53.5 -5.5q-92 0 -138.5 39.5t-46.5 141.5v110h-75z" />
    <glyph glyph-name="tcaron" unicode="&#x165;" horiz-adv-x="528" 
d="M265 575h109v-135h-109v-249q0 -28 14.5 -41t46.5 -13q16 0 28 1.5t20 3.5v-133q-24 -8 -50.5 -13.5t-53.5 -5.5q-92 0 -138.5 39.5t-46.5 141.5v269h-75v135h75v126h180v-126zM343 793h165l-60 -155h-136z" />
    <glyph glyph-name="uni0163" unicode="&#x163;" horiz-adv-x="394" 
d="M265 575h109v-135h-109v-249q0 -28 14.5 -41t46.5 -13q16 0 28 1.5t20 3.5v-133q-24 -8 -50.5 -13.5t-53.5 -5.5q-92 0 -138.5 39.5t-46.5 141.5v269h-75v135h75v126h180v-126zM280 16q6 -22 8.5 -40.5t2.5 -33.5q0 -57 -35.5 -79.5t-83.5 -22.5q-16 0 -35.5 1t-41.5 5
v82q10 -1 21 -3t21 -2q44 0 44 50q0 18 -6 43h105z" />
    <glyph glyph-name="uni021B" unicode="&#x21b;" horiz-adv-x="394" 
d="M265 575h109v-135h-109v-249q0 -28 14.5 -41t46.5 -13q16 0 28 1.5t20 3.5v-133q-24 -8 -50.5 -13.5t-53.5 -5.5q-92 0 -138.5 39.5t-46.5 141.5v269h-75v135h75v126h180v-126zM131 -150l28 113h171l-61 -113h-138z" />
    <glyph glyph-name="u" unicode="u" horiz-adv-x="519" 
d="M313 39q-28 -23 -60 -36t-64 -13q-66 0 -110 43t-44 129v413h180v-382q0 -61 49 -61q19 0 35 11v432h180v-575h-153z" />
    <glyph glyph-name="uacute" unicode="&#xfa;" horiz-adv-x="519" 
d="M313 39q-28 -23 -60 -36t-64 -13q-66 0 -110 43t-44 129v413h180v-382q0 -61 49 -61q19 0 35 11v432h180v-575h-153zM222 755h190l-90 -135h-151z" />
    <glyph glyph-name="ubreve" unicode="&#x16d;" horiz-adv-x="519" 
d="M313 39q-28 -23 -60 -36t-64 -13q-66 0 -110 43t-44 129v413h180v-382q0 -61 49 -61q19 0 35 11v432h180v-575h-153zM409 778v-15.5t-1 -15.5q-6 -65 -42 -99.5t-107 -34.5q-82 0 -118.5 41.5t-36.5 123.5h78q15 -48 74 -48q32 0 50 11.5t25 36.5h78z" />
    <glyph glyph-name="ucircumflex" unicode="&#xfb;" horiz-adv-x="519" 
d="M313 39q-28 -23 -60 -36t-64 -13q-66 0 -110 43t-44 129v413h180v-382q0 -61 49 -61q19 0 35 11v432h180v-575h-153zM196 769h122l109 -149h-131l-39 47l-39 -47h-131z" />
    <glyph glyph-name="uni0215" unicode="&#x215;" horiz-adv-x="519" 
d="M313 39q-28 -23 -60 -36t-64 -13q-66 0 -110 43t-44 129v413h180v-382q0 -61 49 -61q19 0 35 11v432h180v-575h-153zM372 755l51 -135h-151l-90 135h190zM168 755l51 -135h-151l-90 135h190z" />
    <glyph glyph-name="udieresis" unicode="&#xfc;" horiz-adv-x="519" 
d="M313 39q-28 -23 -60 -36t-64 -13q-66 0 -110 43t-44 129v413h180v-382q0 -61 49 -61q19 0 35 11v432h180v-575h-153zM75 755h160v-136h-160v136zM279 755h160v-136h-160v136z" />
    <glyph glyph-name="uni1EE5" unicode="&#x1ee5;" horiz-adv-x="519" 
d="M313 39q-28 -23 -60 -36t-64 -13q-66 0 -110 43t-44 129v413h180v-382q0 -61 49 -61q19 0 35 11v432h180v-575h-153zM166 -41h190v-136h-190v136z" />
    <glyph glyph-name="ugrave" unicode="&#xf9;" horiz-adv-x="519" 
d="M313 39q-28 -23 -60 -36t-64 -13q-66 0 -110 43t-44 129v413h180v-382q0 -61 49 -61q19 0 35 11v432h180v-575h-153zM360 620h-151l-90 135h190z" />
    <glyph glyph-name="uni1EE7" unicode="&#x1ee7;" horiz-adv-x="519" 
d="M313 39q-28 -23 -60 -36t-64 -13q-66 0 -110 43t-44 129v413h180v-382q0 -61 49 -61q19 0 35 11v432h180v-575h-153zM252 608l-43 52q22 11 31 28.5t1.5 31.5t-34.5 14q-15 0 -29.5 -2.5t-22.5 -5.5l7 86q37 13 79 13q47 0 75 -18.5t38 -47t2 -59t-34 -56t-70 -36.5z" />
    <glyph glyph-name="uhorn" unicode="&#x1b0;" horiz-adv-x="645" 
d="M313 39q-28 -23 -60 -36t-64 -13q-66 0 -110 43t-44 129v413h180v-382q0 -61 49 -61q19 0 35 11v432h180v-575h-153zM449 436l-60 139h75q49 0 49 61v72h152v-69q0 -89 -20.5 -135t-68 -59.5t-127.5 -8.5z" />
    <glyph glyph-name="uni1EE9" unicode="&#x1ee9;" horiz-adv-x="645" 
d="M313 39q-28 -23 -60 -36t-64 -13q-66 0 -110 43t-44 129v413h180v-382q0 -61 49 -61q19 0 35 11v432h180v-575h-153zM449 436l-60 139h75q49 0 49 61v72h152v-69q0 -89 -20.5 -135t-68 -59.5t-127.5 -8.5zM222 755h190l-90 -135h-151z" />
    <glyph glyph-name="uni1EF1" unicode="&#x1ef1;" horiz-adv-x="645" 
d="M313 39q-28 -23 -60 -36t-64 -13q-66 0 -110 43t-44 129v413h180v-382q0 -61 49 -61q19 0 35 11v432h180v-575h-153zM449 436l-60 139h75q49 0 49 61v72h152v-69q0 -89 -20.5 -135t-68 -59.5t-127.5 -8.5zM166 -41h190v-136h-190v136z" />
    <glyph glyph-name="uni1EEB" unicode="&#x1eeb;" horiz-adv-x="645" 
d="M313 39q-28 -23 -60 -36t-64 -13q-66 0 -110 43t-44 129v413h180v-382q0 -61 49 -61q19 0 35 11v432h180v-575h-153zM449 436l-60 139h75q49 0 49 61v72h152v-69q0 -89 -20.5 -135t-68 -59.5t-127.5 -8.5zM360 620h-151l-90 135h190z" />
    <glyph glyph-name="uni1EED" unicode="&#x1eed;" horiz-adv-x="645" 
d="M313 39q-28 -23 -60 -36t-64 -13q-66 0 -110 43t-44 129v413h180v-382q0 -61 49 -61q19 0 35 11v432h180v-575h-153zM449 436l-60 139h75q49 0 49 61v72h152v-69q0 -89 -20.5 -135t-68 -59.5t-127.5 -8.5zM252 608l-43 52q22 11 31 28.5t1.5 31.5t-34.5 14
q-15 0 -29.5 -2.5t-22.5 -5.5l7 86q37 13 79 13q47 0 75 -18.5t38 -47t2 -59t-34 -56t-70 -36.5z" />
    <glyph glyph-name="uni1EEF" unicode="&#x1eef;" horiz-adv-x="645" 
d="M313 39q-28 -23 -60 -36t-64 -13q-66 0 -110 43t-44 129v413h180v-382q0 -61 49 -61q19 0 35 11v432h180v-575h-153zM449 436l-60 139h75q49 0 49 61v72h152v-69q0 -89 -20.5 -135t-68 -59.5t-127.5 -8.5zM397 760q2 -10 3.5 -20.5t1.5 -20.5q0 -43 -23.5 -72.5
t-71.5 -29.5q-20 0 -38 9t-32.5 17.5t-24.5 8.5q-13 0 -18 -8t-5 -19h-71q-2 11 -3.5 21t-1.5 20q0 44 23.5 73t71.5 29q20 0 38 -8.5t32.5 -17.5t24.5 -9q14 0 18.5 8t4.5 19h71z" />
    <glyph glyph-name="uhungarumlaut" unicode="&#x171;" horiz-adv-x="519" 
d="M313 39q-28 -23 -60 -36t-64 -13q-66 0 -110 43t-44 129v413h180v-382q0 -61 49 -61q19 0 35 11v432h180v-575h-153zM121 755h190l-90 -135h-151zM325 755h190l-90 -135h-151z" />
    <glyph glyph-name="uni0217" unicode="&#x217;" horiz-adv-x="519" 
d="M313 39q-28 -23 -60 -36t-64 -13q-66 0 -110 43t-44 129v413h180v-382q0 -61 49 -61q19 0 35 11v432h180v-575h-153zM409 613h-78q-7 25 -25 36.5t-50 11.5q-59 0 -74 -48h-78q0 82 36.5 123.5t118.5 41.5q71 0 107 -34.5t42 -99.5q1 -7 1 -15v-16z" />
    <glyph glyph-name="umacron" unicode="&#x16b;" horiz-adv-x="519" 
d="M313 39q-28 -23 -60 -36t-64 -13q-66 0 -110 43t-44 129v413h180v-382q0 -61 49 -61q19 0 35 11v432h180v-575h-153zM109 755h296v-118h-296v118z" />
    <glyph glyph-name="uogonek" unicode="&#x173;" horiz-adv-x="519" 
d="M313 39q-28 -23 -60 -36t-64 -13q-66 0 -110 43t-44 129v413h180v-382q0 -61 49 -61q19 0 35 11v432h180v-575h-153zM424 -160q-62 0 -90.5 27.5t-25.5 68.5t35 80h94q-19 -52 -8 -75.5t50 -16.5v-77q-13 -3 -27.5 -5t-27.5 -2z" />
    <glyph glyph-name="uring" unicode="&#x16f;" horiz-adv-x="519" 
d="M313 39q-28 -23 -60 -36t-64 -13q-66 0 -110 43t-44 129v413h180v-382q0 -61 49 -61q19 0 35 11v432h180v-575h-153zM394 702q0 -47 -32.5 -68.5t-103.5 -21.5q-73 0 -106 21.5t-33 68.5q0 50 33 72t106 22q71 0 103.5 -22t32.5 -72zM225 703q0 -19 10 -26.5t23 -7.5
q11 0 21 7.5t10 26.5q0 21 -10 28.5t-21 7.5q-13 0 -23 -7.5t-10 -28.5z" />
    <glyph glyph-name="utilde" unicode="&#x169;" horiz-adv-x="519" 
d="M313 39q-28 -23 -60 -36t-64 -13q-66 0 -110 43t-44 129v413h180v-382q0 -61 49 -61q19 0 35 11v432h180v-575h-153zM397 760q2 -10 3.5 -20.5t1.5 -20.5q0 -43 -23.5 -72.5t-71.5 -29.5q-20 0 -38 9t-32.5 17.5t-24.5 8.5q-13 0 -18 -8t-5 -19h-71q-2 11 -3.5 21
t-1.5 20q0 44 23.5 73t71.5 29q20 0 38 -8.5t32.5 -17.5t24.5 -9q14 0 18.5 8t4.5 19h71z" />
    <glyph glyph-name="v" unicode="v" horiz-adv-x="491" 
d="M139 0l-134 575h185l58 -381h2l56 381h180l-136 -575h-211z" />
    <glyph glyph-name="w" unicode="w" horiz-adv-x="783" 
d="M638 0h-200l-27 118l-24 156l-24 -156l-28 -118h-200l-130 575h183l41 -287l16 -94l16 94l42 287h182l42 -287l16 -94l16 94l37 287h182z" />
    <glyph glyph-name="wacute" unicode="&#x1e83;" horiz-adv-x="783" 
d="M638 0h-200l-27 118l-24 156l-24 -156l-28 -118h-200l-130 575h183l41 -287l16 -94l16 94l42 287h182l42 -287l16 -94l16 94l37 287h182zM352 755h190l-90 -135h-151z" />
    <glyph glyph-name="wcircumflex" unicode="&#x175;" horiz-adv-x="783" 
d="M638 0h-200l-27 118l-24 156l-24 -156l-28 -118h-200l-130 575h183l41 -287l16 -94l16 94l42 287h182l42 -287l16 -94l16 94l37 287h182zM326 769h122l109 -149h-131l-39 47l-39 -47h-131z" />
    <glyph glyph-name="wdieresis" unicode="&#x1e85;" horiz-adv-x="783" 
d="M638 0h-200l-27 118l-24 156l-24 -156l-28 -118h-200l-130 575h183l41 -287l16 -94l16 94l42 287h182l42 -287l16 -94l16 94l37 287h182zM205 755h160v-136h-160v136zM409 755h160v-136h-160v136z" />
    <glyph glyph-name="wgrave" unicode="&#x1e81;" horiz-adv-x="783" 
d="M638 0h-200l-27 118l-24 156l-24 -156l-28 -118h-200l-130 575h183l41 -287l16 -94l16 94l42 287h182l42 -287l16 -94l16 94l37 287h182zM490 620h-151l-90 135h190z" />
    <glyph glyph-name="x" unicode="x" horiz-adv-x="491" 
d="M301 575h182l-114 -290l113 -285h-182l-40 110l-16 66l-54 -176h-182l114 290l-113 285h182l40 -110l16 -66z" />
    <glyph glyph-name="y" unicode="y" horiz-adv-x="491" 
d="M339 0l-28 -126l-176 -24l28 150h-24l-134 575h185l58 -381h2l56 381h180z" />
    <glyph glyph-name="yacute" unicode="&#xfd;" horiz-adv-x="491" 
d="M339 0l-28 -126l-176 -24l28 150h-24l-134 575h185l58 -381h2l56 381h180zM213 755h190l-90 -135h-151z" />
    <glyph glyph-name="ycircumflex" unicode="&#x177;" horiz-adv-x="491" 
d="M339 0l-28 -126l-176 -24l28 150h-24l-134 575h185l58 -381h2l56 381h180zM187 769h122l109 -149h-131l-39 47l-39 -47h-131z" />
    <glyph glyph-name="ydieresis" unicode="&#xff;" horiz-adv-x="491" 
d="M339 0l-28 -126l-176 -24l28 150h-24l-134 575h185l58 -381h2l56 381h180zM66 755h160v-136h-160v136zM270 755h160v-136h-160v136z" />
    <glyph glyph-name="uni1EF5" unicode="&#x1ef5;" horiz-adv-x="491" 
d="M339 0l-28 -126l-176 -24l28 150h-24l-134 575h185l58 -381h2l56 381h180zM358 -46h190v-136h-190v136z" />
    <glyph glyph-name="ygrave" unicode="&#x1ef3;" horiz-adv-x="491" 
d="M339 0l-28 -126l-176 -24l28 150h-24l-134 575h185l58 -381h2l56 381h180zM351 620h-151l-90 135h190z" />
    <glyph glyph-name="uni1EF7" unicode="&#x1ef7;" horiz-adv-x="491" 
d="M339 0l-28 -126l-176 -24l28 150h-24l-134 575h185l58 -381h2l56 381h180zM243 608l-43 52q22 11 31 28.5t1.5 31.5t-34.5 14q-15 0 -29.5 -2.5t-22.5 -5.5l7 86q37 13 79 13q47 0 75 -18.5t38 -47t2 -59t-34 -56t-70 -36.5z" />
    <glyph glyph-name="uni0233" unicode="&#x233;" horiz-adv-x="491" 
d="M339 0l-28 -126l-176 -24l28 150h-24l-134 575h185l58 -381h2l56 381h180zM100 755h296v-118h-296v118z" />
    <glyph glyph-name="uni1EF9" unicode="&#x1ef9;" horiz-adv-x="491" 
d="M339 0l-28 -126l-176 -24l28 150h-24l-134 575h185l58 -381h2l56 381h180zM388 760q2 -10 3.5 -20.5t1.5 -20.5q0 -43 -23.5 -72.5t-71.5 -29.5q-20 0 -38 9t-32.5 17.5t-24.5 8.5q-13 0 -18 -8t-5 -19h-71q-2 11 -3.5 21t-1.5 20q0 44 23.5 73t71.5 29q20 0 38 -8.5
t32.5 -17.5t24.5 -9q14 0 18.5 8t4.5 19h71z" />
    <glyph glyph-name="z" unicode="z" horiz-adv-x="457" 
d="M30 110l172 325h-165v140h381v-106l-174 -329h183v-140h-397v110z" />
    <glyph glyph-name="zacute" unicode="&#x17a;" horiz-adv-x="457" 
d="M30 110l172 325h-165v140h381v-106l-174 -329h183v-140h-397v110zM206 755h190l-90 -135h-151z" />
    <glyph glyph-name="zcaron" unicode="&#x17e;" horiz-adv-x="457" 
d="M30 110l172 325h-165v140h381v-106l-174 -329h183v-140h-397v110zM71 769h131l39 -48l39 48h131l-109 -149h-122z" />
    <glyph glyph-name="zdotaccent" unicode="&#x17c;" horiz-adv-x="457" 
d="M30 110l172 325h-165v140h381v-106l-174 -329h183v-140h-397v110zM146 755h190v-136h-190v136z" />
    <glyph glyph-name="ordfeminine" unicode="&#xaa;" horiz-adv-x="369" 
d="M133 304q-46 0 -74.5 34t-28.5 82q0 53 35 86t84 33h54v32q0 16 -14.5 21.5t-31.5 5.5q-22 0 -44.5 -3t-37.5 -6.5l-15 -3.5v96l22.5 3t54 6t57.5 3q63 0 96.5 -27.5t33.5 -77.5v-276h-103l-6 23q-17 -15 -36.5 -23t-45.5 -8zM179 395q13 0 24 13v64h-20
q-18 0 -28.5 -10.5t-10.5 -26.5q0 -23 9.5 -31.5t25.5 -8.5z" />
    <glyph glyph-name="ordmasculine" unicode="&#xba;" horiz-adv-x="383" 
d="M353 498q0 -74 -16.5 -116.5t-52 -60t-93.5 -17.5t-93.5 17.5t-52 60t-16.5 116.5q0 75 16.5 117.5t52 60t93.5 17.5t93.5 -17.5t52 -60t16.5 -117.5zM157 499q0 -57 8 -78t26 -21t26 21t8 78q0 56 -8 77t-26 21t-26 -21t-8 -77z" />
    <glyph glyph-name="zero" unicode="0" horiz-adv-x="635" 
d="M317 728q142 0 205 -86t63 -278t-63 -283t-205 -91t-204.5 91t-62.5 283t62.5 278t204.5 86zM317 145q31 0 44.5 54.5t13.5 164.5t-13.5 159.5t-44.5 49.5t-44.5 -49.5t-13.5 -159.5t13.5 -164.5t44.5 -54.5z" />
    <glyph glyph-name="one" unicode="1" horiz-adv-x="383" 
d="M15 647l166 73h157v-720h-196v542l-110 -45z" />
    <glyph glyph-name="two" unicode="2" horiz-adv-x="512" 
d="M188 327q32 42 56 88t24 85q0 36 -28 50.5t-68 14.5q-27 0 -57 -5t-56 -14l-30 147q54 17 107 26t100 9q68 0 120.5 -20t82.5 -63.5t30 -114.5q0 -61 -26 -118.5t-67 -110.5l-108 -141h214v-160h-447v126z" />
    <glyph glyph-name="three" unicode="3" horiz-adv-x="505" 
d="M219 -10q-48 0 -97.5 9.5t-96.5 25.5l18 153q35 -13 72.5 -21.5t70.5 -8.5q43 0 71.5 16t28.5 53q0 35 -24.5 52t-81.5 17h-73v146h76q56 0 79.5 18t23.5 56q0 35 -28.5 48.5t-69.5 13.5q-28 0 -58.5 -4.5t-58.5 -11.5l-28 143q50 16 100.5 24.5t97.5 8.5q67 0 121 -18.5
t86.5 -58t33.5 -104.5q0 -69 -26 -113t-79 -70v-2q51 -19 82 -59t31 -109q0 -70 -37.5 -115.5t-99 -67t-134.5 -21.5z" />
    <glyph glyph-name="four" unicode="4" horiz-adv-x="582" 
d="M490 712v-427h91l-29 -152h-62v-133h-188v132h-282v145l236 449zM302 285v230l-124 -230h124z" />
    <glyph glyph-name="five" unicode="5" horiz-adv-x="499" 
d="M484 235q0 -116 -67 -180.5t-219 -64.5q-53 0 -101.5 10.5t-85.5 23.5l21 153q43 -16 88 -24t83 -4t61.5 24t23.5 60q0 37 -23 55t-59.5 23t-79 3t-80.5 -4v410h426l-35 -180h-213v-96q23 2 47 2q95 0 154 -50t59 -161z" />
    <glyph glyph-name="six" unicode="6" horiz-adv-x="574" 
d="M554 250q0 -125 -61.5 -192t-188.5 -67t-198 80.5t-71 258.5q0 79 16 150.5t54 127t103 87.5t162 32q34 0 67 -4t63 -10l-19 -158q-56 11 -96 11q-68 0 -99 -29t-41 -94q32 13 62 20t58 7q83 0 136 -56t53 -164zM289 331q-21 0 -50 -8q0 -86 4 -129t17 -57.5t40 -14.5
q25 0 41.5 27.5t16.5 74.5q0 58 -15.5 82.5t-53.5 24.5z" />
    <glyph glyph-name="seven" unicode="7" horiz-adv-x="489" 
d="M77 0l211 540h-263v180h449v-142l-189 -578h-208z" />
    <glyph glyph-name="eight" unicode="8" horiz-adv-x="570" 
d="M285 -10q-89 0 -148 26t-88 70t-29 99q0 148 132 195v2q-111 36 -111 157q0 92 61.5 140t182.5 48q122 0 183 -48t61 -140q0 -121 -111 -157v-2q132 -47 132 -195q0 -55 -29 -99t-87.5 -70t-148.5 -26zM285 441q28 0 39.5 20.5t11.5 66.5q0 38 -11.5 57.5t-39.5 19.5
t-39.5 -19.5t-11.5 -57.5q0 -46 11.5 -66.5t39.5 -20.5zM285 104q33 0 47 25.5t14 77.5t-14 77.5t-47 25.5t-47 -25.5t-14 -77.5t14 -77.5t47 -25.5z" />
    <glyph glyph-name="nine" unicode="9" horiz-adv-x="574" 
d="M20 468q0 125 61.5 192t188.5 67t198 -80.5t71 -258.5q0 -79 -16 -150.5t-54 -127t-102.5 -87.5t-162.5 -32q-34 0 -67 4t-63 10l19 158q56 -11 96 -11q68 0 99 29t41 94q-32 -13 -62 -20t-58 -7q-82 0 -135.5 56t-53.5 164zM285 387q21 0 50 8q0 86 -4 129t-17 57.5
t-40 14.5q-25 0 -41.5 -27.5t-16.5 -74.5q0 -58 16 -82.5t53 -24.5z" />
    <glyph glyph-name="zero.osf" horiz-adv-x="575" 
d="M287 -10q-136 0 -196.5 91t-60.5 283t60.5 278t196.5 86q137 0 197.5 -86t60.5 -278t-60.5 -283t-197.5 -91zM287 145q48 0 48 219q0 110 -11 159.5t-37 49.5q-25 0 -36.5 -49.5t-11.5 -159.5q0 -219 48 -219z" />
    <glyph glyph-name="one.osf" horiz-adv-x="363" 
d="M15 647l146 73h157v-720h-196v542l-90 -45z" />
    <glyph glyph-name="two.osf" horiz-adv-x="497" 
d="M35 0v126l144 201q30 42 52.5 88t22.5 85q0 36 -26 50.5t-64 14.5q-25 0 -52.5 -5t-52.5 -13l-30 146q53 17 104 26t97 9q66 0 117 -20t80.5 -63.5t29.5 -114.5q0 -61 -24.5 -118.5t-62.5 -110.5l-102 -141h199v-160h-432z" />
    <glyph glyph-name="three.osf" horiz-adv-x="474" 
d="M29 695q48 16 96.5 24.5t94.5 8.5q64 0 116.5 -18.5t83.5 -58t31 -104.5q0 -69 -32.5 -113t-98.5 -70v-2q63 -19 101.5 -59t38.5 -109q0 -70 -36 -115.5t-95.5 -67t-130.5 -21.5q-46 0 -94 9.5t-94 25.5l18 152q34 -13 69.5 -21t66.5 -8q41 0 67.5 16t26.5 53
q0 35 -23 52t-77 17h-68v146h71q53 0 75 18t22 56q0 35 -27 48.5t-66 13.5q-26 0 -54.5 -4.5t-55.5 -11.5z" />
    <glyph glyph-name="four.osf" horiz-adv-x="573" 
d="M481 712v-427h91l-29 -152h-62v-133h-188v132h-272v145l206 449zM293 285v227l-104 -227h104z" />
    <glyph glyph-name="five.osf" horiz-adv-x="479" 
d="M464 235q0 -116 -64.5 -180.5t-210.5 -64.5q-50 0 -97 10.5t-82 23.5l19 153q41 -16 83 -24t77.5 -4t57 24t21.5 60q0 37 -21.5 55t-55.5 23t-73.5 3t-74.5 -4v410h410l-34 -180h-205v-96q23 2 46 2q92 0 148 -50t56 -161z" />
    <glyph glyph-name="six.osf" horiz-adv-x="541" 
d="M521 250q0 -125 -57.5 -192t-176.5 -67q-118 0 -185 80.5t-67 258.5q0 79 15 150.5t50.5 127t96.5 87.5t152 32q32 0 63 -4t59 -10l-18 -160q-54 13 -91 13q-56 0 -82.5 -28t-34.5 -89q26 10 51 15.5t48 5.5q77 0 127 -56t50 -164zM275 331q-15 0 -36 -7q0 -86 5 -129.5
t16 -58t30 -14.5t27.5 27.5t8.5 74.5q0 58 -12 82.5t-39 24.5z" />
    <glyph glyph-name="seven.osf" horiz-adv-x="469" 
d="M77 0l191 540h-243v180h429v-142l-169 -578h-208z" />
    <glyph glyph-name="eight.osf" horiz-adv-x="548" 
d="M274 -10q-85 0 -141.5 26t-84.5 70t-28 99q0 147 127 195v2q-54 18 -80 58t-26 99q0 92 58.5 140t174.5 48t174.5 -48t58.5 -140q0 -59 -26 -99t-80 -58v-2q127 -48 127 -195q0 -55 -28 -99t-84 -70t-142 -26zM274 441q23 0 32.5 20.5t9.5 66.5q0 38 -9.5 57.5
t-32.5 19.5t-32.5 -19.5t-9.5 -57.5q0 -46 9.5 -66.5t32.5 -20.5zM274 104q27 0 38.5 25.5t11.5 77.5t-11.5 77.5t-38.5 25.5t-38.5 -25.5t-11.5 -77.5t11.5 -77.5t38.5 -25.5z" />
    <glyph glyph-name="nine.osf" horiz-adv-x="574" 
d="M20 468q0 125 61.5 192t188.5 67t198 -80.5t71 -258.5q0 -79 -16 -150.5t-54 -127t-102.5 -87.5t-162.5 -32q-34 0 -67 4t-63 10l19 158q56 -11 96 -11q68 0 99 29t41 94q-32 -13 -62 -20t-58 -7q-82 0 -135.5 56t-53.5 164zM285 387q21 0 50 8q0 86 -4 129t-17 57.5
t-40 14.5q-25 0 -41.5 -27.5t-16.5 -74.5q0 -58 16 -82.5t53 -24.5z" />
    <glyph glyph-name="fraction" unicode="&#x2044;" horiz-adv-x="180" 
d="M295 748l74 -55l-461 -689l-74 55z" />
    <glyph glyph-name="onehalf" unicode="&#xbd;" horiz-adv-x="765" 
d="M15 665l123 45h97v-378h-141v234l-66 -21zM575 748l74 -55l-461 -689l-74 55zM470 0v83l28 32q36 42 54.5 67t25 40t6.5 27q0 17 -17 24.5t-37 7.5q-28 0 -47 -7l-13 89q48 20 112 20t106.5 -25t42.5 -75q0 -68 -61 -132l-54 -56h119v-95h-265z" />
    <glyph glyph-name="onequarter" unicode="&#xbc;" horiz-adv-x="770" 
d="M15 665l123 45h97v-378h-141v234l-66 -21zM575 748l74 -55l-461 -689l-74 55zM718 360v-209h47l-15 -103h-32v-48h-131v48h-159v89q18 65 43 126t69 115zM587 151v29l6 101l-25 -56q-9 -20 -13 -37.5t-8 -36.5h40z" />
    <glyph glyph-name="threequarters" unicode="&#xbe;" horiz-adv-x="770" 
d="M10 344l15 82q16 -5 37.5 -8t41.5 -1.5t33 9.5t13 24q0 24 -18 30.5t-62 6.5h-9v75h7q41 0 58 6.5t16 25.5q1 14 -11.5 20.5t-30.5 8t-36 -1t-29 -7.5l-15 83q38 14 85 17.5t90 -6t71 -31.5t28 -59q0 -75 -76 -95v-2q37 -12 59 -31t22 -57q0 -42 -28.5 -67.5t-73.5 -35
t-95 -5.5t-92 19zM608 748l74 -55l-461 -689l-74 55zM718 360v-209h47l-15 -103h-32v-48h-131v48h-159v89q18 65 43 126t69 115zM587 151v29l6 101l-25 -56q-9 -20 -13 -37.5t-8 -36.5h40z" />
    <glyph glyph-name="uni00B9" unicode="&#xb9;" horiz-adv-x="280" 
d="M15 665l123 45h97v-378h-141v234l-66 -21z" />
    <glyph glyph-name="uni00B2" unicode="&#xb2;" horiz-adv-x="324" 
d="M29 332v83l28 32q36 42 54.5 67t25 40t6.5 27q0 17 -17 24.5t-37 7.5q-28 0 -47 -7l-13 89q48 20 112 20t106.5 -25t42.5 -75q0 -68 -61 -132l-54 -56h119v-95h-265z" />
    <glyph glyph-name="uni00B3" unicode="&#xb3;" horiz-adv-x="313" 
d="M10 344l15 82q16 -5 37.5 -8t41.5 -1.5t33 9.5t13 24q0 24 -18 30.5t-62 6.5h-9v75h7q41 0 58 6.5t16 25.5q1 14 -11.5 20.5t-30.5 8t-36 -1t-29 -7.5l-15 83q38 14 85 17.5t90 -6t71 -31.5t28 -59q0 -75 -76 -95v-2q37 -12 59 -31t22 -57q0 -42 -28.5 -67.5t-73.5 -35
t-95 -5.5t-92 19z" />
    <glyph glyph-name="uni2074" unicode="&#x2074;" horiz-adv-x="363" 
d="M311 692v-209h47l-15 -103h-32v-48h-131v48h-159v89q18 65 43 126t69 115zM180 483v29l6 101l-25 -56q-9 -20 -13 -37.5t-8 -36.5h40z" />
    <glyph glyph-name="period" unicode="." horiz-adv-x="300" 
d="M62 165h176v-165h-176v165z" />
    <glyph glyph-name="comma" unicode="," horiz-adv-x="300" 
d="M75 164h180l-94 -248h-141z" />
    <glyph glyph-name="colon" unicode=":" horiz-adv-x="300" 
d="M62 165h176v-165h-176v165zM62 513h176v-165h-176v165z" />
    <glyph glyph-name="semicolon" unicode=";" horiz-adv-x="300" 
d="M62 513h176v-165h-176v165zM75 164h180l-94 -248h-141z" />
    <glyph glyph-name="ellipsis" unicode="&#x2026;" horiz-adv-x="892" 
d="M62 165h176v-165h-176v165zM357 165h176v-165h-176v165zM654 165h176v-165h-176v165z" />
    <glyph glyph-name="exclam" unicode="!" horiz-adv-x="300" 
d="M82 224l-30 386v169h196v-169l-30 -386h-136zM60 0v136h181v-136h-181z" />
    <glyph glyph-name="exclamdown" unicode="&#xa1;" horiz-adv-x="300" 
d="M82 405h136l30 -386v-169h-196v169zM60 629h181v-136h-181v136z" />
    <glyph glyph-name="question" unicode="?" horiz-adv-x="441" 
d="M62 224v246h10q31 0 61.5 6.5t51 24t20.5 49.5q0 29 -27 49.5t-78 20.5q-24 0 -41 -1.5t-31 -3.5l-18 159q35 8 69.5 11t84.5 3q66 0 123.5 -21t93 -67.5t35.5 -124.5q0 -86 -44 -148t-130 -77v-126h-180zM62 0v136h180v-136h-180z" />
    <glyph glyph-name="questiondown" unicode="&#xbf;" horiz-adv-x="441" 
d="M379 405v-246h-10q-31 0 -61.5 -6.5t-51 -23.5t-20.5 -50q0 -29 27 -49.5t78 -20.5q24 0 41 1.5t31 3.5l18 -159q-34 -7 -69 -10.5t-85 -3.5q-66 0 -123.5 21t-93 68t-35.5 124q0 86 44 148t130 77v126h180zM379 629v-136h-180v136h180z" />
    <glyph glyph-name="periodcentered" unicode="&#xb7;" horiz-adv-x="300" 
d="M62 403h176v-165h-176v165z" />
    <glyph glyph-name="bullet" unicode="&#x2022;" horiz-adv-x="400" 
d="M199 174q-73 0 -108.5 38.5t-35.5 106.5t35.5 107t108.5 39q72 0 109 -39t37 -107t-37 -106.5t-109 -38.5z" />
    <glyph glyph-name="asterisk" unicode="*" horiz-adv-x="482" 
d="M180 386l24 140l-110 -90l-61 105l133 49l-132 51l62 104l108 -89l-24 138h122l-23 -138l107 89l61 -105l-131 -50l133 -50l-63 -104l-108 89l24 -139h-122z" />
    <glyph glyph-name="numbersign" unicode="#" horiz-adv-x="605" 
d="M24 154l18 113h78l29 194h-78l18 113h77l22 146h128l-22 -146h86l22 146h128l-22 -146h73l-17 -113h-73l-29 -194h72l-16 -113h-73l-23 -154h-128l23 154h-86l-23 -154h-128l23 154h-79zM248 267h86l29 194h-86z" />
    <glyph glyph-name="slash" unicode="/" horiz-adv-x="427" 
d="M258 755h169l-258 -791h-169z" />
    <glyph glyph-name="backslash" unicode="\" horiz-adv-x="427" 
d="M169 755l258 -791h-169l-258 791h169z" />
    <glyph glyph-name="periodcentered.loclCAT" horiz-adv-x="300" 
d="M62 403h176v-165h-176v165z" />
    <glyph glyph-name="hyphen" unicode="-" horiz-adv-x="300" 
d="M270 408v-139h-240v139h240z" />
    <glyph glyph-name="endash" unicode="&#x2013;" horiz-adv-x="450" 
d="M440 398v-119h-430v119h430z" />
    <glyph glyph-name="emdash" unicode="&#x2014;" horiz-adv-x="675" 
d="M625 398v-119h-575v119h575z" />
    <glyph glyph-name="underscore" unicode="_" horiz-adv-x="450" 
d="M440 -31v-119h-430v119h430z" />
    <glyph glyph-name="parenleft" unicode="(" horiz-adv-x="380" 
d="M232 -146l-161 162q-20 20 -28 37t-8 43v444q0 26 8 43t28 37l161 162l116 -117l-112 -109q-12 -11 -14.5 -23.5t-2.5 -28.5v-372q0 -16 2.5 -28.5t14.5 -23.5l112 -109z" />
    <glyph glyph-name="parenright" unicode=")" horiz-adv-x="380" 
d="M148 782l161 -162q20 -20 28 -37t8 -43v-444q0 -26 -8 -43t-28 -37l-161 -162l-116 117l112 109q12 11 14.5 23.5t2.5 28.5v372q0 16 -2.5 28.5t-14.5 23.5l-112 109z" />
    <glyph glyph-name="braceleft" unicode="{" horiz-adv-x="436" 
d="M337 -123q-81 0 -130 17.5t-70.5 59t-21.5 113.5v55q0 71 -24 98t-81 27v138q57 0 81 27t24 98v55q0 72 21.5 113.5t70.5 59t130 17.5h50v-148h-44q-28 0 -40 -15t-12 -56v-71q0 -70 -32.5 -102t-87.5 -46v-2q55 -13 87.5 -45t32.5 -103v-71q0 -40 12 -55.5t40 -15.5h44
v-148h-50z" />
    <glyph glyph-name="braceright" unicode="}" horiz-adv-x="436" 
d="M99 -123h-50v148h44q28 0 40 15.5t12 55.5v71q0 71 32.5 103t87.5 45v2q-55 14 -87.5 46t-32.5 102v71q0 41 -12 56t-40 15h-44v148h50q81 0 130 -17.5t70.5 -59t21.5 -113.5v-55q0 -71 24 -98t81 -27v-138q-57 0 -81 -27t-24 -98v-55q0 -72 -21.5 -113.5t-70.5 -59
t-130 -17.5z" />
    <glyph glyph-name="bracketleft" unicode="[" horiz-adv-x="349" 
d="M55 755h259v-148h-99v-583h99v-148h-259v879z" />
    <glyph glyph-name="bracketright" unicode="]" horiz-adv-x="349" 
d="M294 -124h-259v148h99v583h-99v148h259v-879z" />
    <glyph glyph-name="quotesinglbase" unicode="&#x201a;" horiz-adv-x="257" 
d="M212 -134l-192 -26v305h85q107 0 107 -100v-179z" />
    <glyph glyph-name="quotedblbase" unicode="&#x201e;" horiz-adv-x="488" 
d="M443 -134l-192 -26v305h85q107 0 107 -100v-179zM212 -134l-192 -26v305h85q107 0 107 -100v-179z" />
    <glyph glyph-name="quotedblleft" unicode="&#x201c;" horiz-adv-x="488" 
d="M45 737l192 26v-305h-85q-107 0 -107 100v179zM276 737l192 26v-305h-85q-107 0 -107 100v179z" />
    <glyph glyph-name="quotedblright" unicode="&#x201d;" horiz-adv-x="488" 
d="M443 484l-192 -26v305h85q107 0 107 -100v-179zM212 484l-192 -26v305h85q107 0 107 -100v-179z" />
    <glyph glyph-name="quoteleft" unicode="&#x2018;" horiz-adv-x="257" 
d="M45 737l192 26v-305h-85q-107 0 -107 100v179z" />
    <glyph glyph-name="quoteright" unicode="&#x2019;" horiz-adv-x="257" 
d="M212 484l-192 -26v305h85q107 0 107 -100v-179z" />
    <glyph glyph-name="guillemotleft" unicode="&#xab;" horiz-adv-x="549" 
d="M306 59h-156l-130 195v10l130 195h156l-130 -200zM509 59h-156l-130 195v10l130 195h156l-130 -200z" />
    <glyph glyph-name="guillemotright" unicode="&#xbb;" horiz-adv-x="549" 
d="M243 59l130 200l-130 200h156l130 -195v-10l-130 -195h-156zM40 59l130 200l-130 200h156l130 -195v-10l-130 -195h-156z" />
    <glyph glyph-name="guilsinglleft" unicode="&#x2039;" horiz-adv-x="346" 
d="M306 59h-156l-130 195v10l130 195h156l-130 -200z" />
    <glyph glyph-name="guilsinglright" unicode="&#x203a;" horiz-adv-x="346" 
d="M40 59l130 200l-130 200h156l130 -195v-10l-130 -195h-156z" />
    <glyph glyph-name="quotedbl" unicode="&#x22;" horiz-adv-x="439" 
d="M30 754h176l-22 -296h-133zM233 754h176l-22 -296h-133z" />
    <glyph glyph-name="quotesingle" unicode="'" horiz-adv-x="236" 
d="M30 754h176l-22 -296h-133z" />
    <glyph glyph-name="florin" unicode="&#x192;" horiz-adv-x="422" 
d="M79 195h-59l20 140h60l11 86q11 92 64 127t162 35q18 0 37 -1.5t38 -3.5l-19 -140q-7 1 -14 1.5t-13 0.5q-37 0 -55.5 -9.5t-22.5 -35.5l-8 -60h99l-20 -140h-99l-50 -344h-182z" />
    <glyph glyph-name="at" unicode="@" horiz-adv-x="797" 
d="M460 -141q-127 0 -220 41t-144 130.5t-51 236.5t51 238t144 132.5t220 41.5q80 0 145 -22.5t103.5 -70t38.5 -123.5v-368h-156l-12 43q-25 -27 -56 -40t-62 -13q-40 0 -75 20.5t-57 59.5t-22 94q0 86 60.5 130t156.5 44h43q0 56 -32.5 80.5t-94.5 24.5t-110 -24.5
t-74.5 -83t-26.5 -160.5t26.5 -161t74.5 -84t110 -25q52 0 91.5 3.5t83.5 18.5l21 -143q-41 -12 -89.5 -16t-86.5 -4zM531 217q20 0 36 18v99h-13q-30 0 -51 -14.5t-21 -43.5q0 -28 15 -43.5t34 -15.5z" />
    <glyph glyph-name="ampersand" unicode="&#x26;" horiz-adv-x="746" 
d="M466 300q11 41 14.5 82t3.5 69h186q0 -38 -7 -88.5t-25 -102.5t-50 -98l143 -161h-255l-32 37q-28 -23 -72 -35.5t-97 -12.5q-71 0 -123 32.5t-79.5 83.5t-27.5 107q0 35 10 70.5t34.5 65.5t66.5 48q-18 34 -27.5 66t-9.5 63q0 71 31 115.5t83.5 65t118.5 20.5
q37 0 76 -5.5t79 -16.5l-14 -156q-21 8 -43.5 13t-43.5 5q-40 0 -63.5 -15.5t-23.5 -49.5t44 -85zM342 137h10.5t11.5 1l-129 152q-5 -20 -5 -40q0 -46 27 -79.5t85 -33.5z" />
    <glyph glyph-name="paragraph" unicode="&#xb6;" horiz-adv-x="580" 
d="M242 227q-107 0 -157 56.5t-50 189.5q0 134 51.5 190.5t155.5 56.5h338l-55 -137v-583h-105v634h-29v-634h-105v227h-44z" />
    <glyph glyph-name="section" unicode="&#xa7;" horiz-adv-x="489" 
d="M206 -101q-51 0 -93.5 5.5t-77.5 14.5l15 136l37 -5.5t98 -5.5q55 0 55 32q0 13 -6 19t-17 13l-80 53q-28 19 -50 39.5t-34.5 50.5t-12.5 76q0 54 20.5 90.5t66.5 54.5q-26 22 -41.5 52.5t-15.5 81.5q0 79 49 117.5t161 39.5q42 0 77.5 -3.5t57 -7.5l21.5 -4l-15 -133
l-15 2t-38.5 4.5t-48.5 2.5q-36 0 -52 -6t-16 -23q0 -10 6 -16.5t19 -14.5l84 -54q29 -18 50 -39t32.5 -51t11.5 -77q0 -56 -22 -92.5t-70 -54.5q32 -25 47 -55t15 -74q0 -84 -50.5 -125.5t-167.5 -42.5zM252 269q25 7 41.5 22.5t16.5 34.5q0 20 -8 30.5t-25 20.5l-22 13
q-24 -6 -40.5 -21.5t-16.5 -34.5t8.5 -29.5t24.5 -21.5z" />
    <glyph glyph-name="copyright" unicode="&#xa9;" horiz-adv-x="761" 
d="M380 72q-73 0 -136 25.5t-110 72.5t-73 110t-26 138t26 138t73 109.5t110 72t136 25.5q74 0 137 -25.5t110 -72t73 -109.5t26 -138t-26 -138t-73 -110t-110 -72.5t-137 -25.5zM380 158q75 0 133.5 33t92.5 92t34 135t-34 134.5t-92.5 92t-133.5 33.5q-74 0 -133 -33.5
t-93 -92t-34 -134.5t34 -135t93 -92t133 -33zM391 223q-53 0 -95.5 20t-66.5 63t-24 111q0 71 29.5 113t76 60.5t97.5 18.5q26 0 47 -3.5t44 -9.5v-147h-76l-15 68q-33 0 -49.5 -21t-16.5 -76q0 -52 21 -73.5t57 -22t82 9.5v-99q-22 -6 -53.5 -9t-57.5 -3z" />
    <glyph glyph-name="registered" unicode="&#xae;" horiz-adv-x="761" 
d="M380 72q-73 0 -136 25.5t-110 72.5t-73 110t-26 138t26 138t73 109.5t110 72t136 25.5q74 0 137 -25.5t110 -72t73 -109.5t26 -138t-26 -138t-73 -110t-110 -72.5t-137 -25.5zM380 158q75 0 133.5 33t92.5 92t34 135t-34 134.5t-92.5 92t-133.5 33.5q-74 0 -133 -33.5
t-93 -92t-34 -134.5t34 -135t93 -92t133 -33zM248 228v315l-19 71h167q74 0 102.5 -34.5t28.5 -88.5q0 -38 -11.5 -65.5t-30.5 -45.5l56 -152h-121l-40 131h-14v-131h-118zM366 430h4q20 0 28 11t8 42q0 32 -8 43.5t-28 11.5h-4v-108z" />
    <glyph glyph-name="trademark" unicode="&#x2122;" horiz-adv-x="757" 
d="M496 413l-38 93v-188h-114v326l-31 76h155l57 -135l57 135h125v-402h-113v199l-39 -104h-59zM298 720v-94h-82v-308h-119v308h-82v94h283z" />
    <glyph glyph-name="degree" unicode="&#xb0;" horiz-adv-x="468" 
d="M234 341q-88 0 -141 53.5t-53 140.5q0 88 53 141t141 53q89 0 141.5 -53t52.5 -141q0 -87 -52.5 -140.5t-141.5 -53.5zM234 423q49 0 78 31.5t29 81.5t-29 80.5t-78 30.5t-78 -31t-29 -81q0 -49 29 -80.5t78 -31.5z" />
    <glyph glyph-name="bar" unicode="|" horiz-adv-x="280" 
d="M200 -120h-120v925h120v-925z" />
    <glyph glyph-name="brokenbar" unicode="&#xa6;" horiz-adv-x="280" 
d="M80 402v403h120v-403h-120zM200 283v-403h-120v403h120z" />
    <glyph glyph-name="dagger" unicode="&#x2020;" horiz-adv-x="347" 
d="M219 -1q-58 8 -89 39t-31 74q0 41 6 92l22 211h-35q-1 0 -5 4.5t-4 10.5q0 4 11 21t21.5 40t10.5 43t-5 30t-10.5 20.5t-5.5 31.5q0 30 17.5 48t43 24.5t51 0t43 -25.5t17.5 -51v-197h-14v-236zM192 599q11 0 17.5 7t6.5 17q0 11 -6.5 17.5t-17.5 6.5q-10 0 -17 -6.5
t-7 -17.5q0 -10 7 -17t17 -7z" />
    <glyph glyph-name="litre" unicode="&#x2113;" horiz-adv-x="531" 
d="M432 9q-30 -9 -59 -14t-57 -5q-54 0 -109 25.5t-91 87.5q-29 -16 -49.5 -25t-39.5 -16l-34 103q18 6 37.5 14t49.5 22q-9 46 -9 100q0 135 33.5 230.5t95.5 146t147 50.5q89 0 127.5 -43t38.5 -108q0 -56 -25.5 -125.5t-75 -140.5t-122.5 -133q15 -29 38.5 -45.5
t55.5 -17.5q29 -1 68 14zM261 332q0 -24 2 -46q53 58 81 114t38.5 102t10.5 76q0 24 -9.5 32.5t-24.5 8.5q-27 0 -49.5 -38t-35.5 -103t-13 -146z" />
    <glyph glyph-name="daggerdbl" unicode="&#x2021;" horiz-adv-x="590" 
d="M219 -1q-58 8 -89 39t-31 74q0 41 6 92l22 211h-35q-1 0 -5 4.5t-4 10.5q0 4 11 21t21.5 40t10.5 43t-5 30t-10.5 20.5t-5.5 31.5q0 30 17.5 48t43 24.5t51 0t43 -25.5t17.5 -51v-197h-14v-236zM192 599q11 0 17.5 7t6.5 17q0 11 -6.5 17.5t-17.5 6.5q-10 0 -17 -6.5
t-7 -17.5q0 -10 7 -17t17 -7zM384 682q59 -8 89.5 -38.5t30.5 -74.5q0 -41 -6 -92l-22 -211h35q1 0 5 -4.5t4 -10.5q0 -3 -10.5 -20.5t-21.5 -40t-11 -43.5q0 -20 5.5 -30t10.5 -20.5t5 -31.5q0 -30 -17.5 -48t-43 -24.5t-51 0t-43 25.5t-17.5 51v197h14v236zM411 82
q-10 0 -17 -7t-7 -17t7 -17t17 -7t17 7t7 17t-7 17t-17 7z" />
    <glyph glyph-name="estimated" unicode="&#x212e;" horiz-adv-x="697" 
d="M363 -10q-158 0 -236 80t-78 216q0 155 76 226t223 71q148 0 224 -71t76 -226h-487v-199q34 -28 83.5 -44t118.5 -16q63 0 117.5 20t88 54.5t33.5 79.5h39q0 -55 -37 -98.5t-100 -68t-141 -24.5zM162 321h374v174q-66 51 -188 51q-59 0 -105.5 -11.5t-80.5 -37.5v-176z
" />
    <glyph glyph-name="uni2116" unicode="&#x2116;" horiz-adv-x="1006" 
d="M262 720l141 -411v411h190v-720h-234l-128 374v-374h-190v617l-41 103h262zM976 498q0 -74 -16.5 -116.5t-52 -60t-93.5 -17.5t-93.5 17.5t-52 60t-16.5 116.5q0 75 16.5 117.5t52 60t93.5 17.5t93.5 -17.5t52 -60t16.5 -117.5zM780 499q0 -57 8 -78t26 -21t26 21t8 78
q0 56 -8 77t-26 21t-26 -21t-8 -77zM665 194v77h299v-77h-299z" />
    <glyph glyph-name="Euro" unicode="&#x20ac;" horiz-adv-x="563" 
d="M20 223v111h63v23v29h-63v111h75q18 86 57.5 136.5t99 73t135.5 22.5q67 0 147 -23l-16 -143q-27 8 -46 11t-41 3q-93 0 -126 -80h176v-111h-196v-18q0 -18 1 -34h195v-111h-172q18 -38 49 -55t76 -17q46 0 104 15v-154q-79 -24 -148 -24q-120 0 -195 55t-100 180h-75z
" />
    <glyph glyph-name="uni20B5" unicode="&#x20b5;" horiz-adv-x="500" 
d="M308 -74v65q-93 4 -157 42.5t-97.5 118.5t-33.5 209q0 135 35 216t99.5 117t153.5 39v65h78v-71q21 -4 42 -9.5t43 -11.5l-15 -138q-21 6 -37.5 9t-32.5 4v-426q40 2 89 15v-154q-46 -15 -89 -21v-69h-78zM222 372q0 -90 21.5 -139.5t64.5 -66.5v404q-45 -18 -65.5 -67.5
t-20.5 -130.5z" />
    <glyph glyph-name="cent" unicode="&#xa2;" horiz-adv-x="445" 
d="M203 -103v99q-54 10 -95 41.5t-64.5 92.5t-23.5 158q0 42 10 87t32 86.5t57 72t84 42.5v106h102v-100q29 -1 59.5 -5.5t54.5 -11.5v-227h-103l-20 104q-45 0 -67.5 -34t-22.5 -122q0 -63 16 -97t45 -46t69 -8.5t87 15.5v-142q-25 -7 -56.5 -11t-61.5 -6v-94h-102z" />
    <glyph glyph-name="colonmonetary" unicode="&#x20a1;" horiz-adv-x="560" 
d="M247 -77l-66 15l14 79q-85 34 -130 116t-45 226q0 131 36 210t103 116t162 42l12 70l66 -15l-10 -55q21 -2 44 -5l14 79l66 -15l-13 -75q16 -4 34 -8l-16 -140q-23 5 -43 8l-74 -417q59 0 134 15v-153q-86 -23 -163 -25l-11 -64l-66 15l9 51q-23 2 -44 6zM398 577
q-19 0 -36 -2l-69 -395q18 -12 41 -18l73 415h-9zM222 369q0 -68 15 -113l52 292q-67 -47 -67 -179z" />
    <glyph glyph-name="currency" unicode="&#xa4;" horiz-adv-x="601" 
d="M135 86l-100 104l67 71q-23 46 -23 101q0 54 23 102l-67 72l100 104l69 -74q46 22 97 22q49 0 95 -22l70 74l100 -104l-68 -72q11 -23 17.5 -49t6.5 -53q0 -55 -23 -101l67 -71l-100 -104l-69 73q-46 -22 -96 -22q-27 0 -51 6t-47 16zM300 250q47 0 78.5 33t31.5 79
q0 47 -31.5 80t-78.5 33q-46 0 -78 -33t-32 -80q0 -46 32 -79t78 -33z" />
    <glyph glyph-name="dollar" unicode="$" horiz-adv-x="523" 
d="M225 163q38 0 57 11t19 36q0 17 -9 27t-32 20l-106 49q-59 27 -91 72t-32 131q0 97 44 150.5t143 65.5v73h78v-69q51 -1 92 -6t65.5 -10l24.5 -5l-20 -161l-24.5 3t-60.5 5.5t-70 2.5q-36 0 -54.5 -10.5t-18.5 -39.5q0 -16 14 -26.5t39 -21.5l85 -37q68 -30 99 -74.5
t31 -126.5q0 -101 -47.5 -160t-154.5 -70v-66h-78v65q-56 1 -105 9t-88 18l20 161l24.5 -4t65.5 -8t90 -4z" />
    <glyph glyph-name="dong" unicode="&#x20ab;" horiz-adv-x="563" 
d="M204 130q-73 0 -113 31t-55.5 81t-15.5 107q0 125 51.5 178t148.5 53q46 0 98 -13v55h-148v67h148v45l180 21v-66h60v-67h-60v-484h-153l-15 45q-47 -53 -126 -53zM263 266q11 0 25 4t30 14v156q-11 2 -21.5 3t-19.5 1q-46 0 -58.5 -24t-12.5 -72q0 -45 12 -63.5
t45 -18.5zM30 0v77h468v-77h-468z" />
    <glyph glyph-name="franc" unicode="&#x20a3;" horiz-adv-x="474" 
d="M0 97v93h55v393l-55 137h464l-30 -160h-184v-136h166l-30 -160h-136v-74h116v-93h-116v-97h-195v97h-55z" />
    <glyph glyph-name="uni20B2" unicode="&#x20b2;" horiz-adv-x="567" 
d="M300 -74v65q-96 5 -158 43t-92 116.5t-30 204.5q0 169 73.5 261t206.5 108v74h78v-70q66 -2 141 -18l-18 -166q-33 6 -61.5 9.5t-52.5 3.5h-9v-402q19 4 40 12l-3 189h137v-307q-51 -49 -174 -57v-66h-78zM230 356q0 -79 14 -131.5t56 -68.5v383q-36 -19 -53 -63.5
t-17 -119.5z" />
    <glyph glyph-name="uni20AD" unicode="&#x20ad;" horiz-adv-x="605" 
d="M20 313v111h65v296h195v-289l107 289h210l-114 -296h108v-111h-108l107 -313h-210l-100 305v-305h-195v313h-65z" />
    <glyph glyph-name="lira" unicode="&#x20a4;" horiz-adv-x="525" 
d="M24 0v125l32 16q33 16 47 37t17 45h-115v111h96q-4 12 -7 25t-6 27h-83v111h73q4 77 39.5 128.5t96 77t139.5 25.5q31 0 62.5 -4.5t64.5 -12.5v-155q-59 17 -103 17q-41 0 -68.5 -17.5t-37.5 -58.5h195v-111h-191q3 -13 5.5 -26t4.5 -26h181v-111h-185q-7 -18 -19 -33.5
t-32 -29.5h285v-160h-491z" />
    <glyph glyph-name="uni20BA" unicode="&#x20ba;" horiz-adv-x="654" 
d="M115 720h195v-85l171 76v-111l-171 -76v-52l171 76v-111l-171 -76v-182q79 6 107.5 53t28.5 137h188q0 -125 -39 -207t-125 -122t-227 -40h-128v285l-95 -42v111l95 42v52l-95 -42v111l95 42v161z" />
    <glyph glyph-name="uni20BC" unicode="&#x20bc;" horiz-adv-x="666" 
d="M40 0v359q0 132 24.5 210.5t80.5 115.5t149 42v71h78v-71q93 -5 149 -42t80.5 -115.5t24.5 -210.5v-357h-195v359q0 97 -11.5 139.5t-47.5 52.5v-627h-78v627q-36 -10 -47.5 -52.5t-11.5 -139.5v-361h-195z" />
    <glyph glyph-name="uni20A6" unicode="&#x20a6;" horiz-adv-x="730" 
d="M5 348v78h84v191l-41 103h262l141 -411v411h190v-294h84v-78h-84v-348h-234l-128 374v-374h-190v348h-84z" />
    <glyph glyph-name="peseta" unicode="&#x20a7;" horiz-adv-x="673" 
d="M90 0v428h-85v78h85v77l-55 137h288q122 0 187.5 -47t76.5 -167h81v-78h-80q-6 -123 -72 -178t-193 -55h-38v-195h-195zM285 579v-73h93q-6 45 -27 59t-66 14zM285 338q42 0 65.5 20t28.5 70h-94v-90z" />
    <glyph glyph-name="uni20B1" unicode="&#x20b1;" horiz-adv-x="673" 
d="M90 0v381h-85v66h85v33h-85v66h85v37l-55 137h288q111 0 175.5 -38.5t82.5 -135.5h87v-66h-79v-25v-8h79v-66h-85q-16 -98 -80.5 -142t-179.5 -44h-38v-195h-195zM285 579v-33h82q-10 20 -30 26.5t-52 6.5zM380 457v23h-95v-33h95v1.5v8.5zM285 338q30 0 50.5 10t31.5 33
h-82v-43z" />
    <glyph glyph-name="uni20BD" unicode="&#x20bd;" horiz-adv-x="624" 
d="M5 53v111h105v52h-105v111h105v256l-55 137h288q90 0 149 -24.5t88 -82.5t29 -158q0 -138 -66 -199t-200 -61h-38v-31h161v-111h-161v-53h-195v53h-105zM305 338q48 0 71.5 26t23.5 93q0 51 -8.5 77t-29 35.5t-57.5 9.5v-241z" />
    <glyph glyph-name="uni20B9" unicode="&#x20b9;" horiz-adv-x="514" 
d="M100 368q41 0 66.5 11.5t36.5 40.5h-183v111h184q-9 27 -33.5 37.5t-70.5 10.5h-80v141h471v-111h-94q16 -33 21 -78h73v-111h-79q-17 -67 -67 -103t-128 -49l292 -268h-237l-252 234v134h80z" />
    <glyph glyph-name="sterling" unicode="&#xa3;" horiz-adv-x="525" 
d="M24 0v125l32 16q36 18 50 41t14 51q0 15 -3 31t-7 34h-105v111h79q-3 17 -4.5 34.5t-1.5 36.5q0 83 35 138t97 82.5t143 27.5q31 0 62.5 -4.5t64.5 -12.5v-155q-59 17 -103 17q-50 0 -80 -27t-30 -92q0 -11 1 -22t3 -23h179v-111h-161q1 -10 1 -20q0 -33 -13 -63.5
t-47 -54.5h285v-160h-491z" />
    <glyph glyph-name="uni20A9" unicode="&#x20a9;" horiz-adv-x="856" 
d="M139 0l-42 268h-67v78h54l-59 374h208l29 -374h21l67 276h156l67 -276h22l28 374h208l-59 -374h54v-78h-67l-42 -268h-191l-61 268h-72l-63 -268h-191zM430 424l-18 -78h36z" />
    <glyph glyph-name="yen" unicode="&#xa5;" horiz-adv-x="570" 
d="M45 93v111h142v16l-13 36h-129v111h88l-128 353h210l58 -212l16 -88h2l16 88l58 212h200l-129 -353h90v-111h-131l-13 -36v-16h144v-111h-144v-93h-195v93h-142z" />
    <glyph glyph-name="uni2219" unicode="&#x2219;" horiz-adv-x="450" 
d="M226 250q-36 0 -65.5 17.5t-47.5 47t-18 65.5t18 65t47.5 46.5t65.5 17.5t65 -17.5t46.5 -46.5t17.5 -65t-17.5 -65.5t-46.5 -47t-65 -17.5z" />
    <glyph glyph-name="uni2215" unicode="&#x2215;" horiz-adv-x="450" 
d="M258 755h169l-258 -791h-169z" />
    <glyph glyph-name="plus" unicode="+" horiz-adv-x="450" 
d="M267 341v-158h-83v158h-154v77h154v155h83v-155h153v-77h-153z" />
    <glyph glyph-name="minus" unicode="&#x2212;" horiz-adv-x="450" 
d="M30 341v77h390v-77h-390z" />
    <glyph glyph-name="multiply" unicode="&#xd7;" horiz-adv-x="450" 
d="M281 382l108 -109l-59 -59l-108 109l-109 -109l-54 54l109 109l-110 110l59 59l109 -110l109 108l54 -54z" />
    <glyph glyph-name="divide" unicode="&#xf7;" horiz-adv-x="450" 
d="M155 598h139v-116h-139v116zM30 341v77h390v-77h-390zM155 265h139v-116h-139v116z" />
    <glyph glyph-name="equal" unicode="=" horiz-adv-x="450" 
d="M30 405v77h390v-77h-390zM30 205v77h390v-77h-390z" />
    <glyph glyph-name="notequal" unicode="&#x2260;" horiz-adv-x="450" 
d="M132 106h-82l57 99h-77v77h121l70 123h-191v77h235l53 92h82l-53 -92h73v-77h-117l-70 -123h187v-77h-231z" />
    <glyph glyph-name="greater" unicode="&#x3e;" horiz-adv-x="450" 
d="M40 218l259 122l-259 122v80l370 -170v-64l-370 -170v80z" />
    <glyph glyph-name="less" unicode="&#x3c;" horiz-adv-x="450" 
d="M410 218v-80l-370 170v64l370 170v-80l-259 -122z" />
    <glyph glyph-name="greaterequal" unicode="&#x2265;" horiz-adv-x="450" 
d="M30 336l264 92l-264 92v80l390 -140v-64l-390 -140v80zM30 139v77h390v-77h-390z" />
    <glyph glyph-name="lessequal" unicode="&#x2264;" horiz-adv-x="450" 
d="M420 336v-80l-390 140v64l390 140v-80l-264 -92zM420 139h-390v77h390v-77z" />
    <glyph glyph-name="plusminus" unicode="&#xb1;" horiz-adv-x="450" 
d="M267 401v-158h-83v158h-154v77h154v155h83v-155h153v-77h-153zM30 139v77h390v-77h-390z" />
    <glyph glyph-name="approxequal" unicode="&#x2248;" horiz-adv-x="450" 
d="M337 371q-28 0 -56 10t-56 22t-56 22t-57 10q-20 0 -41 -7.5t-41 -24.5v77q21 17 41.5 24.5t41.5 7.5q29 0 57 -10t56 -22t56 -22t56 -10q20 0 41 7.5t41 24.5v-77q-21 -17 -41.5 -24.5t-41.5 -7.5zM337 173q-28 0 -56 10t-56 22t-56 22t-57 10q-20 0 -41 -7.5t-41 -24.5
v77q21 17 41.5 24.5t41.5 7.5q29 0 57 -10t56 -22t56 -22t56 -10q20 0 41 7.5t41 24.5v-77q-21 -17 -41.5 -24.5t-41.5 -7.5z" />
    <glyph glyph-name="asciitilde" unicode="~" horiz-adv-x="450" 
d="M337 309q-28 0 -56 10t-56 22t-56 22t-57 10q-20 0 -41 -7.5t-41 -24.5v77q21 17 41.5 24.5t41.5 7.5q29 0 57 -10t56 -22t56 -22t56 -10q20 0 41 7.5t41 24.5v-77q-21 -17 -41.5 -24.5t-41.5 -7.5z" />
    <glyph glyph-name="logicalnot" unicode="&#xac;" horiz-adv-x="450" 
d="M440 183h-83v158h-347v77h430v-235z" />
    <glyph glyph-name="asciicircum" unicode="^" horiz-adv-x="450" 
d="M123 440h-80l150 280h64l150 -280h-80l-102 177z" />
    <glyph glyph-name="uni00B5" unicode="&#xb5;" horiz-adv-x="524" 
d="M40 -150v725h180v-382q0 -61 49 -61q19 0 35 11v432h180v-575h-153l-13 39q-18 -23 -37.5 -36t-39.5 -13q-11 0 -21 3v-143h-180z" />
    <glyph glyph-name="percent" unicode="%" horiz-adv-x="856" 
d="M629 748l74 -55l-461 -689l-74 55zM197 325q-89 0 -133 50.5t-44 144.5q0 95 44 146t133 51t133 -51t44 -146q0 -94 -44 -144.5t-133 -50.5zM197 410q22 0 29.5 26.5t7.5 83.5t-7.5 83.5t-29.5 26.5t-29.5 -26.5t-7.5 -83.5t7.5 -83.5t29.5 -26.5zM669 -10
q-89 0 -133 50.5t-44 144.5q0 95 44 146t133 51t133 -51t44 -146q0 -94 -44 -144.5t-133 -50.5zM669 75q22 0 29.5 26.5t7.5 83.5t-7.5 83.5t-29.5 26.5t-29.5 -26.5t-7.5 -83.5t7.5 -83.5t29.5 -26.5z" />
    <glyph glyph-name="perthousand" unicode="&#x2030;" horiz-adv-x="1244" 
d="M629 748l74 -55l-461 -689l-74 55zM197 325q-89 0 -133 50.5t-44 144.5q0 95 44 146t133 51t133 -51t44 -146q0 -94 -44 -144.5t-133 -50.5zM197 410q22 0 29.5 26.5t7.5 83.5t-7.5 83.5t-29.5 26.5t-29.5 -26.5t-7.5 -83.5t7.5 -83.5t29.5 -26.5zM1057 -10
q-89 0 -133 50.5t-44 144.5q0 95 44 146t133 51t133 -51t44 -146q0 -94 -44 -144.5t-133 -50.5zM669 -10q-89 0 -133 50.5t-44 144.5q0 95 44 146t133 51t133 -51t44 -146q0 -94 -44 -144.5t-133 -50.5zM1057 75q22 0 29.5 26.5t7.5 83.5t-7.5 83.5t-29.5 26.5t-29.5 -26.5
t-7.5 -83.5t7.5 -83.5t29.5 -26.5zM669 75q22 0 29.5 26.5t7.5 83.5t-7.5 83.5t-29.5 26.5t-29.5 -26.5t-7.5 -83.5t7.5 -83.5t29.5 -26.5z" />
    <glyph glyph-name="uni0308" unicode="&#x308;" 
d="M-182 755h160v-136h-160v136zM22 755h160v-136h-160v136z" />
    <glyph glyph-name="uni0307" unicode="&#x307;" 
d="M-95 755h190v-136h-190v136z" />
    <glyph glyph-name="gravecomb" unicode="&#x300;" 
d="M120 620h-151l-90 135h190z" />
    <glyph glyph-name="acutecomb" unicode="&#x301;" 
d="M-70 755h190l-90 -135h-151z" />
    <glyph glyph-name="uni030B" unicode="&#x30b;" 
d="M-241 755h190l-90 -135h-151zM-37 755h190l-90 -135h-151z" />
    <glyph glyph-name="uni030C.alt" 
d="M-67 755h165l-60 -155h-136z" />
    <glyph glyph-name="uni0302" unicode="&#x302;" 
d="M-61 769h122l109 -149h-131l-39 47l-39 -47h-131z" />
    <glyph glyph-name="uni030C" unicode="&#x30c;" 
d="M-170 769h131l39 -48l39 48h131l-109 -149h-122z" />
    <glyph glyph-name="uni0306" unicode="&#x306;" 
d="M152 778v-15.5t-1 -15.5q-6 -65 -42 -99.5t-107 -34.5q-82 0 -118.5 41.5t-36.5 123.5h78q15 -48 74 -48q32 0 50 11.5t25 36.5h78z" />
    <glyph glyph-name="uni030A" unicode="&#x30a;" 
d="M137 702q0 -47 -32.5 -68.5t-103.5 -21.5q-73 0 -106 21.5t-33 68.5q0 50 33 72t106 22q71 0 103.5 -22t32.5 -72zM-32 703q0 -19 10 -26.5t23 -7.5q11 0 21 7.5t10 26.5q0 21 -10 28.5t-21 7.5q-13 0 -23 -7.5t-10 -28.5z" />
    <glyph glyph-name="tildecomb" unicode="&#x303;" 
d="M140 760q2 -10 3.5 -20.5t1.5 -20.5q0 -43 -23.5 -72.5t-71.5 -29.5q-20 0 -38 9t-32.5 17.5t-24.5 8.5q-13 0 -18 -8t-5 -19h-71q-2 11 -3.5 21t-1.5 20q0 44 23.5 73t71.5 29q20 0 38 -8.5t32.5 -17.5t24.5 -9q14 0 18.5 8t4.5 19h71z" />
    <glyph glyph-name="uni0304" unicode="&#x304;" 
d="M-148 755h296v-118h-296v118z" />
    <glyph glyph-name="hookabovecomb" unicode="&#x309;" 
d="M-5 608l-43 52q22 11 31 28.5t1.5 31.5t-34.5 14q-15 0 -29.5 -2.5t-22.5 -5.5l7 86q37 13 79 13q47 0 75 -18.5t38 -47t2 -59t-34 -56t-70 -36.5z" />
    <glyph glyph-name="uni030F" unicode="&#x30f;" 
d="M172 755l51 -135h-151l-90 135h190zM-32 755l51 -135h-151l-90 135h190z" />
    <glyph glyph-name="uni0311" unicode="&#x311;" 
d="M152 613h-78q-7 25 -25 36.5t-50 11.5q-59 0 -74 -48h-78q0 82 36.5 123.5t118.5 41.5q71 0 107 -34.5t42 -99.5q1 -7 1 -15v-16z" />
    <glyph glyph-name="uni0312" unicode="&#x312;" 
d="M105 762l-36 -140h-174l76 140h134z" />
    <glyph glyph-name="uni031B" unicode="&#x31b;" 
d="M-108 436l-60 139h75q49 0 49 61v72h152v-69q0 -89 -20.5 -135t-68 -59.5t-127.5 -8.5z" />
    <glyph glyph-name="dotbelowcomb" unicode="&#x323;" 
d="M-95 -46h190v-136h-190v136z" />
    <glyph glyph-name="uni0324" unicode="&#x324;" 
d="M-182 -46h160v-136h-160v136zM22 -46h160v-136h-160v136z" />
    <glyph glyph-name="uni0326" unicode="&#x326;" 
d="M-99 -150l28 113h171l-61 -113h-138z" />
    <glyph glyph-name="uni0327" unicode="&#x327;" 
d="M86 16q6 -22 8.5 -40.5t2.5 -33.5q0 -57 -35.5 -79.5t-83.5 -22.5q-16 0 -35.5 1t-41.5 5v82q10 -1 21 -3t21 -2q44 0 44 50q0 18 -6 43h105z" />
    <glyph glyph-name="uni0328" unicode="&#x328;" 
d="M31 -160q-62 0 -90.5 27.5t-25.5 68.5t35 80h94q-19 -52 -8 -75.5t50 -16.5v-77q-13 -3 -27.5 -5t-27.5 -2z" />
    <glyph glyph-name="uni032E" unicode="&#x32e;" 
d="M0 -204q-76 0 -110.5 33.5t-42.5 106.5h86q16 -41 67 -41t67 41h86q-7 -73 -41.5 -106.5t-111.5 -33.5z" />
    <glyph glyph-name="uni0331" unicode="&#x331;" 
d="M-148 -66h296v-118h-296v118z" />
    <glyph glyph-name="uni0308.case" 
d="M-182 913h160v-136h-160v136zM22 913h160v-136h-160v136z" />
    <glyph glyph-name="uni0307.case" 
d="M-95 913h190v-136h-190v136z" />
    <glyph glyph-name="gravecomb.case" 
d="M71 891l45 -120h-151l-80 120h186z" />
    <glyph glyph-name="acutecomb.case" 
d="M-71 891h186l-80 -120h-151z" />
    <glyph glyph-name="uni030B.case" 
d="M-173 891h186l-80 -120h-151zM30 891h186l-80 -120h-151z" />
    <glyph glyph-name="uni0302.case" 
d="M-169 771l108 120h122l108 -120h-124l-45 41l-45 -41h-124z" />
    <glyph glyph-name="uni030C.case" 
d="M-169 891h124l45 -41l45 41h124l-108 -120h-122z" />
    <glyph glyph-name="uni0306.case" 
d="M0 771q-76 0 -110.5 33.5t-42.5 106.5h86q16 -41 67 -41t67 41h86q-7 -73 -41.5 -106.5t-111.5 -33.5z" />
    <glyph glyph-name="uni030A.case" 
d="M122 847q0 -41 -29 -60t-92 -19q-64 0 -93.5 19t-29.5 60q0 45 29.5 64.5t93.5 19.5q63 0 92 -19.5t29 -64.5zM-27 848q0 -17 8.5 -23.5t19.5 -6.5q9 0 18 6.5t9 23.5q0 20 -9 26t-18 6q-11 0 -19.5 -6t-8.5 -26z" />
    <glyph glyph-name="tildecomb.case" 
d="M143 909q2 -10 3.5 -20.5t1.5 -20.5q0 -43 -23.5 -72.5t-71.5 -29.5q-20 0 -38 9t-32.5 17.5t-24.5 8.5q-13 0 -18 -8t-5 -19h-71q-2 11 -3.5 21t-1.5 20q0 44 23.5 73t71.5 29q20 0 38 -8.5t32.5 -17.5t24.5 -9q14 0 18.5 8t4.5 19h71z" />
    <glyph glyph-name="uni0304.case" 
d="M-151 897h296v-110h-296v110z" />
    <glyph glyph-name="hookabovecomb.case" 
d="M-5 757l-43 52q22 11 31 28.5t1.5 31.5t-34.5 14q-15 0 -29.5 -2.5t-22.5 -5.5l7 86q37 13 79 13q47 0 75 -18.5t38 -47t2 -59t-34 -56t-70 -36.5z" />
    <glyph glyph-name="uni030F.case" 
d="M173 891l45 -120h-151l-80 120h186zM-30 891l45 -120h-151l-80 120h186z" />
    <glyph glyph-name="uni0311.case" 
d="M0 912q77 0 111.5 -33.5t41.5 -106.5h-86q-16 41 -67 41t-67 -41h-86q8 73 42.5 106.5t110.5 33.5z" />
    <glyph glyph-name="dieresis" unicode="&#xa8;" horiz-adv-x="404" 
d="M20 755h160v-136h-160v136zM224 755h160v-136h-160v136z" />
    <glyph glyph-name="dotaccent" unicode="&#x2d9;" horiz-adv-x="230" 
d="M20 755h190v-136h-190v136z" />
    <glyph glyph-name="grave" unicode="`" horiz-adv-x="281" 
d="M261 620h-151l-90 135h190z" />
    <glyph glyph-name="acute" unicode="&#xb4;" horiz-adv-x="281" 
d="M71 755h190l-90 -135h-151z" />
    <glyph glyph-name="hungarumlaut" unicode="&#x2dd;" horiz-adv-x="485" 
d="M71 755h190l-90 -135h-151zM275 755h190l-90 -135h-151z" />
    <glyph glyph-name="circumflex" unicode="&#x2c6;" horiz-adv-x="380" 
d="M129 769h122l109 -149h-131l-39 47l-39 -47h-131z" />
    <glyph glyph-name="uni02C9" unicode="&#x2c9;" horiz-adv-x="336" 
d="M20 755h296v-118h-296v118z" />
    <glyph glyph-name="caron" unicode="&#x2c7;" horiz-adv-x="380" 
d="M20 769h131l39 -48l39 48h131l-109 -149h-122z" />
    <glyph glyph-name="breve" unicode="&#x2d8;" horiz-adv-x="345" 
d="M325 778v-15.5t-1 -15.5q-6 -65 -42 -99.5t-107 -34.5q-82 0 -118.5 41.5t-36.5 123.5h78q15 -48 74 -48q32 0 50 11.5t25 36.5h78z" />
    <glyph glyph-name="ring" unicode="&#x2da;" horiz-adv-x="315" 
d="M295 702q0 -47 -32.5 -68.5t-103.5 -21.5q-73 0 -106 21.5t-33 68.5q0 50 33 72t106 22q71 0 103.5 -22t32.5 -72zM126 703q0 -19 10 -26.5t23 -7.5q11 0 21 7.5t10 26.5q0 21 -10 28.5t-21 7.5q-13 0 -23 -7.5t-10 -28.5z" />
    <glyph glyph-name="tilde" unicode="&#x2dc;" horiz-adv-x="329" 
d="M304 760q2 -10 3.5 -20.5t1.5 -20.5q0 -43 -23.5 -72.5t-71.5 -29.5q-20 0 -38 9t-32.5 17.5t-24.5 8.5q-13 0 -18 -8t-5 -19h-71q-2 11 -3.5 21t-1.5 20q0 44 23.5 73t71.5 29q20 0 38 -8.5t32.5 -17.5t24.5 -9q14 0 18.5 8t4.5 19h71z" />
    <glyph glyph-name="macron" unicode="&#xaf;" horiz-adv-x="336" 
d="M20 755h296v-118h-296v118z" />
    <glyph glyph-name="cedilla" unicode="&#xb8;" horiz-adv-x="236" 
d="M205 16q6 -22 8.5 -40.5t2.5 -33.5q0 -57 -35.5 -79.5t-83.5 -22.5q-16 0 -35.5 1t-41.5 5v82q10 -1 21 -3t21 -2q44 0 44 50q0 18 -6 43h105z" />
    <glyph glyph-name="ogonek" unicode="&#x2db;" horiz-adv-x="212" 
d="M137 -160q-62 0 -90.5 27.5t-25.5 68.5t35 80h94q-19 -52 -8 -75.5t50 -16.5v-77q-13 -3 -27.5 -5t-27.5 -2z" />
    <glyph glyph-name="uni02BC" unicode="&#x2bc;" horiz-adv-x="257" 
d="M212 484l-192 -26v305h85q107 0 107 -100v-179z" />
    <glyph glyph-name="n.superior" unicode="&#xe00d;" horiz-adv-x="390" 
d="M166 312h-121v376h109l5 -21q36 26 79 26q112 0 112 -113v-268h-121v246q0 41 -37 41q-12 0 -26 -8v-279z" />
    <glyph glyph-name="zero.slash" unicode="&#xe03a;" horiz-adv-x="635" 
d="M317 -10q-142 0 -204.5 91t-62.5 283t62.5 278t204.5 86t205 -86t63 -278t-63 -283t-205 -91zM259 364v-31l106 177q-14 63 -48 63q-31 0 -44.5 -49.5t-13.5 -159.5zM317 145q31 0 44.5 54.5t13.5 164.5v1.5v9.5l-103 -173q14 -57 45 -57z" />
    <glyph glyph-name="T_h" unicode="&#xe099;" horiz-adv-x="986" 
d="M156 0v560h-146v160h487l180 26v-200q59 37 117 37q72 0 114.5 -45.5t42.5 -128.5v-409h-180v372q0 39 -13 55t-42 16q-22 0 -39 -11v-432h-180v560h-145v-560h-196z" />
    <glyph glyph-name="i.TRK" unicode="&#xe84b;" horiz-adv-x="260" 
d="M40 575h180v-575h-180v575z" />
    </font>
</defs>
</svg>
